<svg width="48" height="54" fill="none" xmlns="http://www.w3.org/2000/svg"><path d="M5.92 25.987a1.063 1.063 0 00-1.045 1.076v22.312a4.262 4.262 0 004.25 4.25h29.75a4.262 4.262 0 004.25-4.25V27.063a1.062 1.062 0 10-2.125 0v22.312a2.097 2.097 0 01-2.125 2.125H9.125A2.098 2.098 0 017 49.375V27.063a1.063 1.063 0 00-1.08-1.076z" fill="#F7F7F8"/><path d="M4.875 11.125a4.262 4.262 0 00-4.25 4.25v8.5a4.262 4.262 0 004.25 4.25h15.938a1.063 1.063 0 000-2.125H4.874a2.098 2.098 0 01-2.125-2.125v-8.5c0-1.196.93-2.125 2.125-2.125h38.25c1.196 0 2.125.929 2.125 2.125v8.5A2.096 2.096 0 0143.125 26H27.187a1.062 1.062 0 000 2.125h15.938a4.262 4.262 0 004.25-4.25v-8.5a4.262 4.262 0 00-4.25-4.25H4.875z" fill="#F7F7F8"/><path d="M18.688.5a6.386 6.386 0 00-6.375 6.375 6.386 6.386 0 006.374 6.375H24a1.063 1.063 0 001.063-1.063V6.875A6.384 6.384 0 0018.688.5zm0 2.125a4.217 4.217 0 014.25 4.25v4.25h-4.25a4.218 4.218 0 01-4.25-4.25 4.218 4.218 0 014.25-4.25z" fill="#F7F7F8"/><path d="M29.313.5a6.386 6.386 0 00-6.375 6.375v5.313A1.062 1.062 0 0024 13.25h5.313a6.384 6.384 0 006.375-6.375A6.384 6.384 0 0029.311.5zm0 2.125a4.217 4.217 0 014.25 4.25 4.217 4.217 0 01-4.25 4.25h-4.25v-4.25a4.218 4.218 0 014.25-4.25z" fill="#F7F7F8"/><path d="M20.813 11.125a1.062 1.062 0 00-1.063 1.063v40.374a1.062 1.062 0 001.063 1.063h6.375a1.063 1.063 0 001.062-1.063V12.188a1.062 1.062 0 00-1.063-1.063h-6.375zm1.062 2.125h4.25V51.5h-4.25V13.25z" fill="#F7F7F8"/><path fill-rule="evenodd" clip-rule="evenodd" d="M10.17 25.987a1.063 1.063 0 00-1.045 1.076v14.862a1.063 1.063 0 002.125 0V27.063a1.061 1.061 0 00-1.08-1.076zm0 19.108a1.063 1.063 0 00-1.045 1.08V48.3a1.063 1.063 0 002.125 0v-2.125a1.063 1.063 0 00-1.08-1.08z" fill="#F7F7F8"/><path d="M6.921 15.384a2.21 2.21 0 00-1.311.406 1.715 1.715 0 00-.731 1.36v3.139a1.062 1.062 0 102.125 0v-2.78h3.092a1.062 1.062 0 000-2.125H6.92z" fill="#F7F7F8"/></svg>