<svg width="517" height="207" fill="none" xmlns="http://www.w3.org/2000/svg"><path d="M24.197 145.309c-.213-.389-.213-.681-.427-.973-14.71-20.536-10.233-40.585 8.102-60.147C45.73 69.493 66.41 57.036 92.206 46.33c46.051-19.367 100.203-31.532 162.029-36.01 45.198-3.308 89.969-2.335 133.888 4.088 25.37 3.699 48.608 9.052 68.862 16.935 20.68 7.98 35.604 17.713 43.918 29.587 1.066 1.362 2.346 2.725 3.625 4.087 11.299 12.263 14.71 25.012 11.086 38.151-4.904 17.519-20.254 32.993-44.345 46.716-1.919 1.168-4.051 2.336-5.756 3.601-36.883 25.888-88.263 42.628-153.715 49.733-76.75 8.273-149.237 3.017-216.394-16.156-28.355-8.078-52.446-18.394-69.928-31.63C-4.798 132.56-7.569 108.813 14.39 84.287c13.857-15.572 35.177-28.71 61.614-40.292C118.216 25.6 168.317 13.239 224.174 5.94c30.7-3.99 61.613-6.034 93.166-5.937 19.401 0 38.802.779 57.563 3.601 10.021 1.46 19.401 3.504 27.29 6.618 2.771 1.071 5.116 2.336 7.461 3.504 1.28.681 2.346 1.557.427 2.725-.853-.195-1.919-.292-2.559-.584-10.873-6.326-26.009-9.343-42.426-11.387-18.761-2.238-37.949-2.725-57.349-2.238-79.096 2.044-149.664 14.501-211.065 37.47-30.487 11.484-54.79 25.304-71.42 41.752C12.684 94.019 6.715 107.06 9.06 120.783c1.28 8.175 5.97 15.961 13.218 23.358.213.292.64.584 1.066.779 0 .194.426.194.853.389zm482.676-39.611c-2.558 1.557-2.985 3.309-2.132 5.061-.426.292-1.279.486-1.492.778-.853 1.265-1.28 2.628-1.919 3.991.213 0 .426 0 .639.097.853-1.655 1.706-3.212 2.772-4.866.639-1.655 1.279-3.407 2.132-5.061 0-.973.213-1.849.426-2.725h-1.066c.213.973.427 1.849.64 2.725zM311.372 16.062c-42.639.097-80.801 3.893-117.258 10.997-35.177 6.813-66.304 16.254-92.101 29.198-17.908 9.051-31.979 19.173-40.507 30.755-7.248 9.83-9.807 19.854-6.183 30.17 3.838 11.095 15.137 20.536 32.193 28.614 30.487 14.404 64.385 26.861 101.695 37.372 18.334 5.061 37.309 9.441 57.776 12.263 4.69.584 9.167 1.071 14.071.876 28.355-1.071 55.857-3.893 82.507-8.565 43.278-7.591 81.227-18.881 112.567-34.647 2.772-1.363 5.117-2.92 7.249-4.477 8.528-6.618 15.35-13.528 20.893-20.73 13.218-17.227 19.188-34.842 14.924-53.042-1.279-5.937-4.904-11.387-11.939-16.448-13.858-10.122-31.553-18.492-53.299-25.207-37.949-11.874-80.162-17.13-122.588-17.13zm-102.547 3.796c0-.098-.214-.292-.214-.39-1.705.195-3.411.487-5.116.681-19.401 3.115-37.736 7.008-55.431 11.874-38.589 10.706-70.781 24.331-94.446 41.85-18.122 13.43-28.995 27.932-29.848 43.796-1.066 18.394 10.873 34.647 38.162 48.37 14.072 7.007 30.914 12.458 49.249 16.837 35.39 8.467 73.126 12.555 112.781 13.528 4.264.098 8.314 0 12.578 0-.853-.486-1.919-.681-2.985-.876-8.741-1.557-17.695-2.919-26.01-4.671-51.806-11.29-95.511-27.446-134.313-46.619-6.396-3.114-11.086-6.812-15.35-10.705-13.645-12.945-15.35-26.473-8.528-40.293 7.462-15.28 23.878-28.418 46.69-39.903 28.781-14.696 64.172-24.915 104.253-32.02 2.985-.486 5.756-.973 8.528-1.46zm215.754 152.02c-.213-.194-.639-.389-.853-.583-42.426 14.501-89.755 23.747-142.201 27.153-52.234 3.406-103.187 1.168-152.862-7.299 10.233 2.628 20.893 4.574 31.979 6.326 41.574 6.423 84.213 7.786 127.705 4.866 42.213-2.822 80.375-9.927 114.273-21.898 7.462-2.725 14.497-5.742 21.959-8.565zm83.36-72.117c-.213 0-.213 0 0 0-.213.389-.213.681-.213 1.071h.213v-1.071z" fill="#FF1616"/></svg>