<svg width="48" height="38" fill="none" xmlns="http://www.w3.org/2000/svg"><path d="M36.6 14.385H25.2v4.038c0 2.863-2.423 5.192-5.4 5.192-2.978 0-5.4-2.329-5.4-5.192v-8.77l-4.868 2.813c-1.447.83-2.332 2.337-2.332 3.952v3.411l-6 3.332c-1.148.635-1.545 2.048-.878 3.151l6 9.996c.66 1.103 2.13 1.478 3.278.843l7.755-4.305H27.6c2.647 0 4.8-2.07 4.8-4.615h1.2c1.327 0 2.4-1.032 2.4-2.308v-4.615h.6c.997 0 1.8-.772 1.8-1.731v-3.462c0-.959-.803-1.73-1.8-1.73zm11.077-2.697l-6-9.996C41.017.59 39.547.214 38.4.85l-7.755 4.305H22.98c-.9 0-1.778.245-2.543.7L17.925 7.36A2.273 2.273 0 0016.8 9.315v9.108c0 1.594 1.342 2.885 3 2.885 1.657 0 3-1.291 3-2.885v-6.346h13.8c2.317 0 4.2 1.81 4.2 4.038v2.056l6-3.332c1.147-.642 1.537-2.048.877-3.152z" fill="#FF1616"/></svg>