<svg width="226" height="86" fill="none" xmlns="http://www.w3.org/2000/svg"><path d="M103.214 45.893c-.833.14-1.335.406-1.888.346-20.406 1.649-40.962 1.86-62.086-1.515-9.567-1.534-18.845-4.183-27.951-7.225-2.374-.76-4.97-1.452-7.4-2.08-.884-.187-1.991-.306-2.824-.167-.444.135-1.06.664-1.065 1.122-.005.457.708 1.038 1.205 1.229 22.236 7.938 45 13.322 68.323 13.408 11.966.007 23.824-.18 35.526-1.347 1.221-.144 2.995-.227 3.931.286 12.168 6.67 25.484 9.8 38.872 11.425 20.69 2.596 41.334 4.409 62.03 6.547 1.272.183 2.766.299 4.364 1.066-11.47 5.085-23.048 9.974-34.741 15.127 1.366 1.75 2.803 1.996 4.412 1.849 1.83-.215 3.826-.366 5.605-.907 9.676-3.171 19.351-6.343 28.918-9.709 2.058-.74 3.899-1.87 5.575-3.063 3.185-2.45 2.446-5.645-1.629-7.824a849.405 849.405 0 00-24.129-12.036c-2.369-1.217-4.2-1.002-5.156.315-.735 1.25-.088 2.876 2.223 4.224 4.019 2.311 8.15 4.36 12.665 6.861-.998.076-1.443.211-1.996.152-20.634-2.728-41.324-5.324-62.009-8.377-6.195-.85-12.489-2.812-18.565-4.382-2.43-.629-4.799-1.846-7.777-2.991a45.663 45.663 0 013.392-1.146c7.333-1.775 14.397-4.265 20.587-7.858 5.466-3.258 9.722-7.288 11.945-12.865.631-1.902 1.319-3.934 1.454-6.027.713-9.22-6.677-17.116-18.229-19.415-14.314-3.053-35.304 1.28-41.794 16.703-3.755 8.664-1.47 17.2 5.585 25.426.765.907 1.696 1.877 2.627 2.848zm45.781-21.448c-2.327 4.924-5.802 8.489-10.431 11.15-7.141 4.452-15.591 7.023-24.31 8.877-1.944.477-3.434-.095-5.083-1.189-8.409-5.99-11.946-16.54-8.259-24.157 5.047-10.311 20.965-16.749 35.005-13.953 9.453 1.797 14.758 7.82 13.952 15.473-.238 1.44-.698 2.947-.874 3.799z" fill="#FF1616"/></svg>