<svg width="33" height="29" fill="none" xmlns="http://www.w3.org/2000/svg"><path d="M10.114 14.637c1.345 2.406 3.59 4.348 6.37 5.507a1.483 1.483 0 001.291-.085l4.084-2.364a1.47 1.47 0 011.241-.1l7.644 2.846c.262.094.48.26.622.473a.998.998 0 01.163.702c-.243 1.639-1.166 3.145-2.597 4.237-1.43 1.092-3.272 1.694-5.178 1.694-5.892 0-11.543-2.028-15.708-5.639-4.166-3.61-6.507-8.507-6.507-13.613 0-1.652.696-3.248 1.955-4.488 1.26-1.24 2.998-2.04 4.89-2.25.28-.032.564.018.81.14.244.123.436.313.545.539l3.283 6.64a1 1 0 01-.098 1.061l-2.728 3.596a1.004 1.004 0 00-.082 1.104v0z" stroke="#F7F7F8" stroke-width="2" stroke-linecap="round" stroke-linejoin="round"/></svg>