<svg width="64" height="64" fill="none" xmlns="http://www.w3.org/2000/svg"><path d="M36.853 19.625c2.195.512 4.196 1.517 5.803 2.914 1.606 1.397 2.762 3.137 3.351 5.045M35.51 23.97c1.32.305 2.524.908 3.49 1.747.965.84 1.659 1.887 2.01 3.035m-14.893 2.885c1.345 2.406 3.59 4.347 6.37 5.507a1.483 1.483 0 001.29-.085l4.084-2.364a1.47 1.47 0 011.241-.1l7.645 2.846c.261.094.48.26.621.472.142.213.199.46.163.703-.242 1.639-1.165 3.145-2.596 4.237s-3.273 1.694-5.18 1.694c-5.89 0-11.541-2.028-15.707-5.639-4.166-3.61-6.506-8.507-6.506-13.613 0-1.653.695-3.248 1.955-4.488 1.26-1.24 2.997-2.04 4.889-2.25.28-.032.565.018.81.14.245.123.436.313.545.539l3.283 6.64a.999.999 0 01-.098 1.061L26.2 30.533a1.004 1.004 0 00-.082 1.104v0z" stroke="#F7F7F8" stroke-width="2" stroke-linecap="round" stroke-linejoin="round"/></svg>