<svg width="38" height="40" fill="none" xmlns="http://www.w3.org/2000/svg"><path d="M17.997.006c-3.21.039-10.11.566-13.97 4.107C1.154 6.958.152 11.165.034 16.366-.062 21.548-.18 31.28 9.201 33.93v4.036s-.058 1.615 1.009 1.946c1.315.417 2.064-.826 3.314-2.16l2.331-2.637c6.419.534 11.335-.696 11.901-.879 1.303-.416 8.639-1.354 9.838-11.087 1.23-10.053-.599-16.387-3.9-19.252h-.02c-.996-.917-5-3.835-13.945-3.867 0 0-.664-.045-1.732-.026zm.11 2.826c.912-.006 1.466.033 1.466.033 7.57.02 11.184 2.298 12.037 3.066 2.78 2.382 4.212 8.092 3.164 16.485-.996 8.137-6.947 8.652-8.048 9.004-.468.15-4.799 1.217-10.253.866 0 0-4.063 4.902-5.333 6.165-.201.221-.436.286-.586.254-.215-.053-.28-.32-.268-.684l.039-6.699c-7.956-2.2-7.487-10.501-7.402-14.837.097-4.337.91-7.884 3.333-10.287 3.262-2.948 9.122-3.346 11.849-3.366h.003zm.6 4.335a.496.496 0 00-.5.495.5.5 0 00.5.501 9.391 9.391 0 016.72 2.65c1.816 1.764 2.7 4.134 2.734 7.233a.5.5 0 00.502.501v-.02a.5.5 0 00.5-.495 10.767 10.767 0 00-3.02-7.936c-1.98-1.934-4.487-2.93-7.436-2.93v.001zM12.12 8.313a1.565 1.565 0 00-1.023.202h-.026a7.845 7.845 0 00-1.907 1.568c-.457.528-.704 1.062-.77 1.575-.038.307-.012.613.08.905l.032.02a22.533 22.533 0 002.005 4.33 25.472 25.472 0 003.867 5.287l.045.065.072.052.045.053.052.045a25.836 25.836 0 005.3 3.886c2.2 1.197 3.535 1.764 4.337 1.999v.012c.234.071.448.104.663.104a3.064 3.064 0 001.837-.788 7.58 7.58 0 001.55-1.913v-.013c.383-.722.253-1.406-.3-1.869a23.08 23.08 0 00-3.582-2.57c-.852-.463-1.719-.183-2.07.285l-.748.944c-.384.469-1.082.404-1.082.404l-.02.012c-5.201-1.328-6.588-6.595-6.588-6.595s-.066-.716.416-1.08l.937-.756c.449-.365.762-1.23.28-2.084a22.495 22.495 0 00-2.565-3.58 1.425 1.425 0 00-.84-.502l.003.002zm7.454 1.485c-.664 0-.664 1.003.006 1.003a6.283 6.283 0 014.413 1.914 5.827 5.827 0 011.498 4.283.504.504 0 00.501.495l.02.027a.505.505 0 00.502-.502c.044-1.986-.573-3.652-1.784-4.987-1.218-1.335-2.916-2.084-5.085-2.233h-.071zm.82 2.695c-.683-.02-.71 1.003-.032 1.023 1.648.085 2.448.917 2.553 2.63a.497.497 0 00.495.489h.02a.504.504 0 00.481-.534c-.117-2.233-1.335-3.49-3.496-3.606h-.02v-.002z" fill="#F7F7F8"/></svg>