<svg width="33" height="29" fill="none" xmlns="http://www.w3.org/2000/svg"><path d="M10.115 14.637c1.345 2.406 3.59 4.348 6.37 5.507a1.483 1.483 0 001.29-.085l4.084-2.364a1.47 1.47 0 011.241-.1l7.645 2.846c.261.094.48.26.621.473.142.212.2.459.163.702-.242 1.639-1.165 3.145-2.596 4.237s-3.273 1.694-5.179 1.694c-5.892 0-11.542-2.028-15.708-5.639C3.88 18.298 1.54 13.401 1.54 8.295c0-1.652.695-3.248 1.955-4.488 1.26-1.24 2.997-2.04 4.889-2.25.28-.032.565.018.81.14.245.123.437.313.545.539l3.284 6.64a1 1 0 01-.099 1.061l-2.727 3.596a1.004 1.004 0 00-.082 1.104v0z" stroke="#F7F7F8" stroke-width="2" stroke-linecap="round" stroke-linejoin="round"/></svg>