<svg width="40" height="40" fill="none" xmlns="http://www.w3.org/2000/svg"><path d="M29.16 23.971c-.501-.253-2.942-1.445-3.399-1.615-.456-.162-.787-.247-1.12.254-.325.489-1.282 1.608-1.575 1.934-.292.326-.58.351-1.073.13-.502-.254-2.103-.775-4.004-2.48-1.485-1.322-2.474-2.949-2.768-3.45-.292-.495-.032-.775.215-1.023.228-.227.502-.572.755-.872.242-.3.319-.502.495-.826.163-.352.079-.625-.045-.873-.123-.248-1.12-2.701-1.536-3.679-.398-.97-.814-.846-1.12-.846-.286-.026-.619-.026-.95-.026-.331 0-.873.123-1.329.598-.456.502-1.745 1.7-1.745 4.122 0 2.428 1.784 4.778 2.031 5.13.254.325 3.51 5.325 8.503 7.473 1.191.502 2.116.802 2.839 1.05 1.191.377 2.279.324 3.137.2.95-.156 2.943-1.204 3.36-2.376.424-1.178.424-2.155.3-2.376-.123-.228-.448-.351-.95-.573l-.021.124zM20.104 36.25h-.026c-2.957 0-5.88-.801-8.432-2.299l-.599-.357-6.25 1.627 1.68-6.081-.403-.625a16.458 16.458 0 01-2.526-8.762c0-9.075 7.428-16.478 16.568-16.478 4.428 0 8.582 1.725 11.707 4.85a16.322 16.322 0 014.85 11.654C36.66 28.848 29.236 36.25 20.11 36.25h-.006zM34.199 5.749C30.396 2.076 25.396 0 20.078 0 9.107 0 .175 8.894.168 19.824c0 3.49.912 6.895 2.657 9.909L0 40l10.56-2.754a20.163 20.163 0 009.519 2.415h.006c10.976 0 19.909-8.894 19.915-19.831a19.641 19.641 0 00-5.826-14.017l.025-.064z" fill="#F7F7F8"/></svg>