<svg width="179" height="55" fill="none" xmlns="http://www.w3.org/2000/svg"><path d="M76.117 17.744c-1.365.317-20.653-.477-22.398-.51-7.5-.14-15.004-.257-22.498-.492-3.882-.12-7.765.297-11.632.593-3.54.272-7.636.026-10.93 1.415-2.055.866-5.828 6.335-8.33 3.384-1.07-1.262.797-3.177.972-4.247.038-.228-.496-.34-.495-.47.008-1.14-.085-2.352-.085-3.506 7.784 2.542 17.252 1.935 25.287.211C35.303 12.127 42.64 5.366 51.95 3.071 60.584.936 69.86.85 78.713.602 83.808.462 88.91.486 94.004.558c.568.007 11.598.114 10.635 1.999-.305.595-4.851-.018-6.515-.202-2.139-.237-6.179-.247-9.345-.237-5.906.017-12.66-.668-18.383 1.015-2.815.826-5.333 2.21-7.896 3.782-1.465.898-5.918 3.257-6.475 4.744-.785 2.1 3.021 2.53 4.456 2.812m28.771 17.687h-8.5v21.428c0 .555-.36.913-.926.914h-4.675a.874.874 0 01-.598-.255.854.854 0 01-.251-.592v-26.44a.848.848 0 01.252-.588.868.868 0 01.596-.25h19.709a.846.846 0 01.584.24.825.825 0 01.249.575v26.475a.837.837 0 01-.254.592.858.858 0 01-.603.243H90.12a.852.852 0 01-.62-.242.833.833 0 01-.25-.611v-21.49h.002zM34.628 42.97v10.609c0 .534-.369.904-.903.904h-4.734c-.44 0-.846-.393-.846-.817V27.183c0-.403.407-.799.82-.8h4.806c.225.004.44.092.6.248.16.155.251.366.256.587v10.789l.08.058c.14-.127.311-.232.412-.384 1.94-2.906 3.877-5.815 5.808-8.728.513-.772 1.03-1.542 1.535-2.32a.475.475 0 01.461-.252c1.952.009 3.904.017 5.856-.006.362-.004.407.23.517.433.111.203.256.364.063.635-2.603 3.665-5.188 7.345-7.808 11.001-.25.35-.695.568-1.054.84-.19.142-.389.276-.63.445.447.306.877.581 1.285.885.222.159.419.348.584.564 2.93 4.048 5.857 8.098 8.78 12.15.185.254.187.443.035.697-.152.253-.24.48-.647.475-2.06-.03-4.12-.02-6.18-.007-.273 0-.434-.083-.587-.303-2.549-3.63-5.111-7.253-7.654-10.888-.215-.314-.437-.447-.855-.332zM105.3 32.147c-.007.136-.014.229-.015.322v4.925h8.663c.554 0 .877.34.878.917v4.015a.854.854 0 01-.241.591.812.812 0 01-.578.247H105.3v5.555h9.785c.513 0 .87.369.871.898v4.05c0 .432-.382.833-.797.833h-15.28c-.42 0-.81-.393-.81-.819v-26.51c0-.404.39-.796.79-.796h15.108c.21.007.41.096.558.25a.85.85 0 01.236.575v4.122c0 .43-.379.822-.795.822H105.3v.003zM18.28 42.795H8.674c-.517 0-.893-.35-.893-.83V38.51c0-.48.378-.833.894-.833h9.622c-.144-.552-.24-1.073-.41-1.573-.844-2.462-2.79-3.914-5.506-4.126-2.307-.18-4.509.197-6.593 1.162-.337.157-.962-.112-1.055-.46-.373-1.4-.74-2.804-1.116-4.203-.055-.201 0-.298.199-.392 2.272-1.067 4.691-1.573 7.204-1.69 2.052-.095 4.072.126 6.022.763 3.126 1.02 5.176 3.105 6.421 5.963.808 1.854 1.152 3.799 1.255 5.79.133 2.483.031 4.95-.777 7.336-1.467 4.331-4.533 7.01-9.26 7.886-3.532.653-7.01.445-10.406-.73-.258-.09-.504-.205-.758-.31a1.094 1.094 0 01-.14-.087c.305-.958.609-1.915.912-2.873.183-.577.365-1.155.552-1.731.104-.324.687-.585 1.015-.458 2.083.81 4.341 1.13 6.582.931 2.725-.222 4.807-1.92 5.553-4.548.122-.428.195-.867.288-1.3a1.299 1.299 0 00.001-.233zm102.18-15.713c.79-.127 1.56-.304 2.337-.366 1.859-.15 3.721-.324 5.583-.34 1.956-.017 3.918.14 5.775.87 3.256 1.274 5.081 3.683 5.381 7.27.148 1.753.057 3.486-.606 5.13-1.131 2.799-3.226 4.47-6.024 5.28-1.989.575-4.021.588-6.062.468l-.247-.014c-.007.152-.02.298-.02.444v7.783c0 .552-.342.892-.884.893h-4.442a.793.793 0 01-.554-.24.835.835 0 01-.238-.566V27.082h.001zm6.137 4.95v7.743a.994.994 0 00.179.031c1.045-.025 2.096.02 3.13-.097 1.222-.14 2.311-.65 2.87-1.864.25-.544.371-1.177.431-1.781.21-2.116-.911-3.594-2.938-3.982-1.211-.232-2.42-.182-3.672-.05z" fill="#FF1616"/><path d="M94.566 4.515c2.625-.561 9.728-1.435 13.102.87 3.798 2.591 6.893 7.098 11.033 9.12 3.453 1.685 9.125 1.288 12.918 1.409 4.922.156 9.677.179 14.529.38 8.95.37 17.98.622 26.752 2.597 1.838.414 5.061.789 5.891 2.794.84 2.036-1.064 4.503-1.933 6.202-2.24 4.375-4.464 8.757-6.738 13.113-.359-4.419 2.87-9.297 4.059-13.444 1.557-5.412-3.709-5.649-7.913-6.508-9.313-1.903-18.94-1.747-28.397-1.919-4.437-.08-8.259-.07-12.696-.156-1.979-.039-4.853.005-6.796-.357-2.145-.4-3.094-1.528-4.68-3.015-3.22-3.02-6.417-6.09-9.721-9.015-1.652-1.461-2.559-1.558-4.81-1.78-.455-.048-4.6-.29-4.6-.29zM70.613 27.584l-.817 3.584c-.048.21-.139.42-.14.631 0 .502-.344.667-.714.814a.311.311 0 01-.216.005c-1.162-.51-2.394-.611-3.636-.669-.978-.045-1.945-.021-2.88.308-1.757.62-2.899 1.875-3.514 3.638-.622 1.779-.726 3.626-.625 5.495.075 1.398.311 2.762.921 4.03 1.077 2.237 2.876 3.353 5.288 3.463 1.643.074 3.227-.185 4.686-1.022.257-.147.869.145.94.441.335 1.346.657 2.695 1 4.037.05.205 0 .303-.155.419-1.086.799-2.321 1.2-3.621 1.43-2.12.375-4.24.455-6.36 0-4.162-.88-6.749-3.536-8.106-7.557-.742-2.195-.915-4.473-.872-6.774.042-2.072.302-4.11 1.073-6.048 1.13-2.834 2.943-5.038 5.714-6.317 1.788-.824 3.684-1.146 5.642-1.115 1.958.03 3.897.264 5.757.951.203.073.397.159.635.256z" fill="#FF1616"/><path d="M148.77 32.144h-7.205a.863.863 0 01-.585-.242.836.836 0 01-.256-.572v-4.157a.828.828 0 01.249-.556.858.858 0 01.567-.242h20.888c.423 0 .811.384.811.803v4.123a.831.831 0 01-.246.594.86.86 0 01-.6.25h-7.163v21.393c0 .64-.333.962-.985.962h-4.581c-.526 0-.894-.355-.894-.869V32.144z" fill="#FF1616"/></svg>