<svg width="24" height="24" fill="none" xmlns="http://www.w3.org/2000/svg"><path d="M18.31 14.23a.748.748 0 00-.99.38c-.015.033-1.55 3.38-5.377 3.425h-.07c-3.602 0-5.155-3.29-5.22-3.431a.751.751 0 00-1.366.62c.08.178 2.001 4.311 6.583 4.311h.09c4.778-.057 6.653-4.14 6.73-4.315a.749.749 0 00-.38-.99zM12 0C5.372 0 0 5.372 0 12s5.372 12 12 12 12-5.372 12-12S18.628 0 12 0zm0 22.5C6.21 22.5 1.5 17.79 1.5 12S6.21 1.5 12 1.5 22.5 6.21 22.5 12 17.79 22.5 12 22.5zM8.238 11.246a1.496 1.496 0 100-2.993 1.496 1.496 0 000 2.993zm7.5 0a1.496 1.496 0 100-2.992 1.496 1.496 0 000 2.992z" fill="#F7F7F8"/></svg>