<svg width="34" height="62" fill="none" xmlns="http://www.w3.org/2000/svg"><path d="M7.962 30.14c-.782-.015-1.512-.025-2.266-.068a140.194 140.194 0 01-3.543-.102 3.182 3.182 0 01-.75-.072C.405 29.68-.076 28.704.24 27.593c.037-.117.074-.233.135-.317 1.504-3.4 2.68-6.92 3.806-10.475C5.45 12.869 6.744 8.939 8.035 5.039c.256-.756.538-1.51.794-2.266.359-1.016.943-1.65 1.938-1.675 1.046-.019 2.076-.13 3.12-.12 4.69.123 9.406-.022 14.1-.2A70.807 70.807 0 0131.54.763c.417.01.828.08 1.205.236.957.363 1.268 1.474.78 2.478-.162.315-.372.595-.582.875-.546.788-1.09 1.547-1.61 2.337-1.414 2.206-2.803 4.415-4.24 6.589a913.901 913.901 0 01-4.366 6.516c-.425.62-.848 1.21-1.27 1.8-.121.168-.245.366-.43.649l.57.055c2.146.237 4.294.445 6.44.682.154.015.333.062.485.107.96.333 1.352 1.422.886 2.458-.167.374-.434.709-.699 1.014-1.216 1.504-2.455 2.976-3.649 4.513a20.105 20.105 0 00-1.561 2.372c-2.539 4.38-5.05 8.733-7.54 13.148-2.578 4.526-5.112 9.117-7.665 13.646-.19.342-.405.682-.693.954-.693.684-1.515.545-2.096-.202a2.749 2.749 0 01-.575-1.89c.051-1.346.08-2.725.238-4.091.549-4.873 1.175-9.738 1.724-14.61.37-3.299.69-6.602 1.035-9.902.06-.085.046-.206.034-.357z" fill="#FF1616"/></svg>