<svg width="54" height="52" fill="none" xmlns="http://www.w3.org/2000/svg"><path fill-rule="evenodd" clip-rule="evenodd" d="M21.56 19.29c.096.223.193.45.28.687.133-.044.245-.069.347-.091.13-.029.243-.054.355-.11l.068-.234c.175-.606.333-1.15.333-1.774 0-5.12 0-10.239-.1-15.359 0-.502 0-1.104-.3-1.405C22.04.502 21.44 0 20.838 0c-.4 0-1.102.602-1.302 1.205-.3.602-.3 1.405-.2 2.108.45 4.336.982 8.59 1.522 12.91l.18 1.445c.071.567.292 1.084.521 1.621zm30.51 3.546a28.422 28.422 0 011.93-.55c0-.1-.1-.302-.2-.502H31.557c-.4 0-.901 0-1.202.2l-.142.113c-.482.382-1.07.846-1.16 1.393-.1.904.6 1.406 1.502 1.606.601.1 1.102.1 1.703.1h.001c5.61-.501 11.22-1.003 16.73-1.605 1.05-.124 2.06-.438 3.08-.755zm-26.868 28.26c.155.302.311.603.445.904.2 0 .4-.1.601-.2 0-.101.05-.201.1-.302.05-.1.1-.2.1-.301V35.035c0-.703-.1-1.406-.2-2.108-.2-1.004-.902-1.707-2.004-1.707-1.202 0-1.703.904-1.803 1.907-.066.398-.045.752-.023 1.12.011.19.023.382.023.587.1 1.506.2 3.012.4 4.517.502 3.313 1.003 6.626 1.604 9.939.133.602.445 1.204.757 1.806zm-4.426-25.742c-.54.211-1.07.419-1.64.546-4.56.716-9.2 1.353-13.778 1.981l-1.651.227c-.802.1-1.703.2-2.405-.1C.802 27.706 0 27.104 0 26.602c0-.502.601-1.104 1.102-1.606.2-.2.701-.301 1.102-.301 5.51-.2 11.02-.402 16.53-.502.902 0 1.904.1 2.806.2.05.101.075.202.1.302.025.1.05.2.1.301-.331.11-.65.235-.964.358z" fill="#FF1616"/></svg>