<svg width="202" height="142" fill="none" xmlns="http://www.w3.org/2000/svg"><g clip-path="url(#clip0_232_1318)" fill="#FF1616"><path d="M136.617 10.683c-.953-1.732-1.877-3.417-3.01-5.466l-3.419 5.47c-1.31 2.096-2.564 4.198-3.853 6.307-.472.754-.873 1.582-1.365 2.324-1.886 2.785-3.772 5.57-5.665 8.321-1.598 2.324-3.217 4.636-4.793 6.973-.341.545-.611 1.163-.915 1.789 1.32.912 2.523 1.78 3.905 2.732-.01-.357.014-.487-.01-.59-.55-1.771.044-2.07 1.928-2.293.539-.07 1.093-.074 1.784-.109-.614 1.307-2.054.728-2.921 1.556.219.72.242 1.754.757 2.28.909.918 2.062 1.725 3.293 2.174.962.368 1.905-.442 2.659-1.136-.29-.793-.627-1.557-.231-2.33.102-.024.191-.027.293-.05.269.78.626 1.557.78 2.381.057.328-.307.77-.6 1.053-.367.354-.845.609-1.403.99l2.991 1.868c2.07 1.294 4.132 2.553 6.19 3.868 1.756 1.097 3.461 2.279 5.217 3.377l10.289 6.429a224.157 224.157 0 006.047 3.633c1.929 1.147 3.958 2.181 5.822 3.433 2.875 1.914 5.632 4.016 8.495 5.95 1.333.891 2.792 1.628 4.224 2.406.918.487 2.205.708 2.732 1.445.75 1.08 2.024 1.323 2.776 2.26.107.154.232.465.133.578-.092.147-.411.239-.584.189a3.173 3.173 0 01-.972-.491c-2.604-1.744-5.215-3.521-7.832-5.244-1.283-.83-2.645-1.536-3.929-2.367-3.801-2.433-7.549-4.95-11.389-7.321-3.715-2.292-7.547-4.396-11.288-6.646-1.916-1.168-3.741-2.483-5.617-3.714-2.351-1.497-4.766-2.89-7.03-4.48-1.069-.755-2.319-1.128-3.388-1.883-1.09-.769-2.358-1.3-3.56-1.934l-.168-.105c-2.572-2.073-5.596-3.468-8.242-5.47-.713-.534-1.401-1.109-2.101-1.663-.463-.377-.596-.722-.237-1.343.81-1.388 1.381-2.955 2.275-4.291.998-1.504 2.267-2.838 3.349-4.29 1.398-1.866 2.776-3.744 4.028-5.701 2.198-3.378 4.555-6.685 6.308-10.281 1.488-3.034 3.675-5.602 5.234-8.562.636-1.206.72-1.153 1.917-.463 2.374 1.366 4.808 2.683 7.129 4.134 2.071 1.293 4.062 2.713 6.059 4.077 1.467 1.004 2.941 2.042 4.434 3.004 1.15.718 2.379 1.311 3.542 2.01 3.971 2.393 7.921 4.774 11.879 7.189.522.326 1.014.75 1.523 1.097.23.144.458.432.649.405 1.14-.103 1.775.79 2.591 1.299.481.3.988.56 1.422.889.684.486 1.291 1.098 2.01 1.576.606.379 1.278.653 1.945.982.319.141.685.253.964.457 2.248 1.522 4.457 3.106 6.739 4.62 2.073 1.382 4.164 2.689 6.263 4.03 1.673 1.045 3.38 2.082 5.027 3.17.698.465 1.317 1.056 1.856 1.684.17.193.075.717-.054 1.016-.403.972-.87 1.904-1.328 2.87-.092.148-.163.307-.262.42-.731.797-1.532 1.52-2.171 2.403-.717 1.01-1.323 2.117-1.915 3.204-.513.962-.883 1.926-2.003 2.508-.513.263-.707 1.132-1.032 1.745-.393.63-.744 1.284-1.158 1.9-.445.712-.904 1.446-1.42 2.085-1.157 1.434-1.329 3.337-2.418 4.755-.812 1.067-1.687 2.094-2.54 3.134l-.21.336a562.894 562.894 0 00-3.627 5.34c-.223.356-.375.786-.64 1.116-.29.372-.686.679-1.039 1.012-.306-.395-.632-.804-.938-1.199.144.003.275.026.419.029.319-.325.646-.616.924-.967a232.626 232.626 0 002.522-3.292c.104-.167.319-.325.314-.503.148-2.005 1.91-2.916 2.86-4.391.184-.293.495-.653.446-.946-.182-.871.365-1.375.779-1.99 1.249-1.814 2.415-3.679 3.588-5.51.655-1.049 1.31-2.097 1.944-3.158.065-.104.144-.23.272-.296 1.725-.991 2.045-2.715 2.502-4.47.255-.919 1.254-1.634 1.93-2.436.351-.422.744-.818.998-1.271.482-.865.846-1.774 1.292-2.72-.892.172-1.811.385-2.739.475-1.332.13-2.684.247-4.028.164-4.891-.316-9.764-.709-14.662-1.06-4.46-.309-8.89-.57-13.337-.901-1.584-.116-3.146-.363-4.707-.61-.241-.034-.499-.458-.617-.735-.138-.29-.02-.712-.205-.974-1.894-2.786-3.848-5.523-5.742-8.309-1.379-2.027-2.617-4.142-4.069-6.098-1.51-2.051-3.308-3.874-4.737-5.962-1.086-1.611-2.226-2.207-4.029-1.323-.385.197-.9.137-1.337.185a3.567 3.567 0 00-.115-.421c1.016-.415 1.997-.822 3.059-1.266-1.186-1.732-2.371-3.464-3.628-5.269-.942.344-1.884.688-2.941 1.077.07.772.208 1.529.215 2.262.002.322-.249.631-.39.95-.233-.232-.602-.433-.63-.713a16.758 16.758 0 01-.22-2.673c.005-.288.301-.715.566-.813.955-.365 1.954-.615 3.053-.977l.269.08zm60.88 31.892s.055-.228.079-.358l-7.299-4.561-11.648-7.279c-1.861-1.163-3.688-2.334-5.563-3.476-.878-.549-1.775-1.021-2.653-1.57l-4.768-2.98c-.147-.091-.329-.264-.411-.227-1.172.433-1.741-.564-2.494-1.034-1.757-1.098-3.469-2.313-5.225-3.411-2.029-1.268-4.07-2.514-6.078-3.769-1.401-.875-2.742-1.8-4.13-2.697a465.754 465.754 0 00-4.951-3.152l-7.382-4.613c-.129.066-.27.152-.398.218.041.492-.012 1.042.179 1.481.316.752.862 1.413 1.212 2.156 2.054 4.344 4.915 8.143 7.93 11.834 2.419 2.969 4.812 5.98 7.03 9.085 2.745 3.843 5.276 7.843 7.927 11.744.243.356.69.664 1.09.769 1.062.255 2.142.435 3.219.525 4.379.346 8.754.603 13.146.928 5.359.405 10.691.852 16.029 1.244a3.835 3.835 0 001.813-.295c1.084-.43 2.062-1.16 3.333-.54l.013-.022z"/><path d="M172.824 70.846c-.858-.77-2.841.032-2.69-2.118-.358-.078-.818-.133-1.239-.25-.27-.08-.733-.224-.738-.402-.135-1.134-1.11-1.015-1.782-1.29-.471-.177-.973-.257-1.41-.443-.7-.32-.831-.81-.048-1.458-.421-.117-.826-.167-1.145-.308-.319-.14-.847-.412-.832-.577.064-1.126-.77-1.094-1.474-1.271-.572-.154-1.449.085-1.424-.978-.003-.089-.327-.175-.5-.224-1.655-.656-3.323-1.29-4.978-1.945-.319-.141-.585-.366-.836-.756.191-.026.421-.116.56-.058 2.274.78 4.549 1.56 6.819 2.396.664.24 1.291.632 1.924.969.314.196.826.4.86.625.08 1.128 1.001 1.004 1.652 1.265.769.305 1.55.59 1.047 1.675.777.339 1.726.495 2.228 1.042.755.792 1.691.97 2.559 1.395.424.206.679.774.933 1.253 1.758.691 2.496 1.434 2.213 2.228.533.217 1.106.37 1.621.663.293.183.536.54.716.856.037.08-.165.45-.275.44-.343-.01-.714-.067-1.012-.195-.617-.27-1.171-.732-1.807-.925-.836-.29-1.252-.695-.906-1.528l-.036-.081zm-3.348-8.65c-1.775-.556-2.348-.71-1.824-1.78-.57-.066-1.085-.125-1.71-.195.031-.097.023-.364.144-.464.597-.443 2.579-.079 2.667.618.161 1.091 1.106.836 1.605 1.294.316.285.606.612.922.897.183.172.434.33.67.418.92.342 1.893.6 2.166 1.791.055.238.526.416.837.523 1.169.41 2.337.82 2.967 2 .122.222.023.567.017.855l-.69-.43c-.878-.55-1.73-1.373-2.651-1.482-1.195-.135-1.859-.841-2.373-1.6-.379-.557-.774-.717-1.292-.865-.441-.13-.915-.164-1.344-.316-.29-.093-.523-.326-.781-.517l.636-.739.034-.008zm-40.531-26.579c.137-1.43-.489-2.754-.143-4.053.178-.005.369-.032.547-.037.218 1.419.484 2.809.613 4.23.008.267-.445.713-.756.839-.9.37-1.803.651-2.755.872-.272.063-.594-.167-.918-.253.191-.26.33-.668.581-.744.908-.336 1.84-.57 2.818-.833l.013-.021zm-6.925-4.415c.146.79.321 1.629.44 2.461.044.348.075.717.01 1.055-.037.152-.312.36-.49.365-.144-.003-.397-.249-.449-.398-.232-1.165-.498-2.322-.627-3.51-.037-.314.343-.922.641-1.027 1.133-.37 2.284-.584 3.462-.84.136-.03.311.108.47.178l.071.306c-1.165.468-2.337.901-3.569 1.384l.041.026zm7.301-8.378c-.754.695-1.763.822-2.81 1.1.25.856.514 1.691.709 2.542.07.306.039.636-.056.927-.057.139-.369.265-.567.257-.123.01-.309-.25-.361-.4-.253-.945-.472-1.898-.711-2.863-.261-.98.006-1.454 1.016-1.58.874-.096 1.755-.157 2.629-.252.036.081.094.175.13.256l.021.013zm8.096-4.442c.232 1.398.49 2.754.653 4.168.029.28-.299.804-.576.922-.772.304-1.596.46-2.407.594-.225.035-.492-.19-.714-.3.199-.225.354-.566.571-.634.746-.263 1.536-.41 2.378-.642-.161-1.324-.309-2.67-.464-4.05.191-.026.368-.031.58-.045l-.021-.013zm-4.56-.984c-.743.119-1.486.237-2.182.327.208 1.063.461 2.008.557 2.971.021.246-.354.566-.545.825-.151-.269-.384-.502-.475-.821-.242-.822-.362-1.654-.605-2.476-.279-.903-.066-1.383.862-1.473.772-.071 1.583.027 2.391.037.005.178.031.37.023.568l-.026.042zm-.056 7.397c.786.929.937 2.13.97 3.287.002.322-.535.716-.911.947-.492.275-1.05.422-1.594.549-.238.055-.51-.115-.771-.162.136-.265.207-.657.416-.76.594-.299 1.22-.462 1.85-.68a851.995 851.995 0 01-.381-3.065c.136-.032.293-.05.429-.082l-.008-.034zm-8.017 7.989c.354-.566.814-.745 1.408-.345.523.327.715 1.554.312 2.06-.424.493-.974.674-1.573.33-.606-.38-.658-1.228-.126-2.032l-.021-.013zm-3.853 6.073c.293-.05.753-.229 1.153-.125.539.162.901 1.583.472 1.898-.382.286-1.128.548-1.442.352-.627-.392-.642-1.159-.196-2.104l.013-.021zm14.243-18.233c-.629.773-1.157.734-1.727.436-.591-.31-.697-.931-.305-1.327.32-.325 1.084-.664 1.39-.502.347.188.444.919.642 1.393zm-5.909 6.246c-.057-.794-.258-1.357-.098-1.752.123-.244.788-.237 1.209-.352.104.53.318 1.073.278 1.602-.016.165-.712.254-1.41.488l.021.013zm8.839-11.586c-.678.014-1.214.175-1.342.007-.227-.287-.332-.819-.211-1.152.063-.193.811-.367 1.007-.215.272.17.3.683.567 1.374l-.021-.014z"/></g><path fill-rule="evenodd" clip-rule="evenodd" d="M75.936 38.71c2.373.553 4.525 1.734 6.254 3.62l-1.188 1.097c-1.494-1.63-3.351-2.654-5.43-3.138l.364-1.578zM62.19 41.267c2.162-1.19 4.4-2.045 6.607-2.513l.333 1.586c-2.036.431-4.125 1.226-6.164 2.348l-.776-1.42zm-10.34 9.392a31.651 31.651 0 014.635-5.287l1.086 1.2a30.033 30.033 0 00-4.397 5.016l-1.323-.929zm33.69-1.989c.3 1.083.527 2.253.676 3.513.128 1.086.189 2.178.185 3.274l-1.614-.006a25.48 25.48 0 00-.174-3.078 21.885 21.885 0 00-.628-3.27l1.556-.433zM46.688 63.651a29.817 29.817 0 011.824-6.804l1.499.603a28.186 28.186 0 00-1.725 6.433l-1.598-.232zm38.977-1.714a39.39 39.39 0 01-1.93 6.197l-1.498-.604a37.767 37.767 0 001.85-5.94l1.578.347zm51.211 4.292a.812.812 0 01.215 1.125c-.617.913-1.255 1.84-1.914 2.778l-1.319-.934a182.64 182.64 0 001.897-2.753.805.805 0 011.121-.216zM47.873 77.576a33.442 33.442 0 01-1.37-6.884l1.609-.145a31.812 31.812 0 001.304 6.55l-1.543.479zm33.075-3.61a68.454 68.454 0 01-3.387 5.475l-1.332-.916a66.796 66.796 0 003.308-5.346l1.411.786zm50.24 1.624a162.09 162.09 0 01-4.206 5.3l-1.241-1.037c1.445-1.743 2.835-3.5 4.164-5.247l1.283.984zM54.199 90.013a48.598 48.598 0 01-3.667-5.973l1.434-.744a46.99 46.99 0 003.545 5.773l-1.312.944zm19.55-5.422a110.305 110.305 0 01-4.138 4.891L68.41 88.4a108.81 108.81 0 004.078-4.82l1.261 1.01zm48.792 1.407a119.723 119.723 0 01-4.702 4.873l-1.127-1.16a118.117 118.117 0 004.639-4.808l1.19 1.095zM61.156 98.132l-.498.469-1.102-1.183.466-.44a69.924 69.924 0 01-1.484-1.593l1.196-1.088c.47.52.955 1.042 1.457 1.564.985-.95 1.95-1.902 2.89-2.859l1.149 1.14c-.947.96-1.915 1.919-2.904 2.873.73.722 1.46 1.4 2.193 2.034l-1.055 1.227a46.735 46.735 0 01-2.308-2.144zm51.678-2.684a78.699 78.699 0 01-5.351 4.185l-.935-1.322a77.042 77.042 0 005.242-4.099l1.044 1.236zm-56.902 7.441a219.176 219.176 0 01-4.855 4.138l-1.028-1.249a224.203 224.203 0 004.82-4.108l1.063 1.219zm45.804.392a46.862 46.862 0 01-6.184 2.896l-.57-1.516a45.33 45.33 0 005.972-2.797l.782 1.417zm-26.44 3.862a30.63 30.63 0 01-6.282-2.84l.819-1.396a29.027 29.027 0 005.952 2.692l-.489 1.544zm13.645.867a29.622 29.622 0 01-6.87.401l.097-1.617c2.17.131 4.34-.006 6.498-.381l.275 1.597zm-42.823 3.019a286.565 286.565 0 01-5.052 3.885l-.968-1.297a289.312 289.312 0 005.024-3.863l.996 1.275zm-10.181 7.66a353.252 353.252 0 01-5.198 3.676l-.918-1.333a353.842 353.842 0 005.174-3.659l.942 1.316zm-10.457 7.263a431.373 431.373 0 01-5.315 3.503l-.876-1.361a423.662 423.662 0 005.294-3.49l.897 1.348zm-10.675 6.925a470.98 470.98 0 01-5.413 3.353l-.839-1.384a478.193 478.193 0 005.395-3.342l.857 1.373zm-10.86 6.632c-.92.546-1.831 1.083-2.731 1.61a.807.807 0 01-1.104-.292.812.812 0 01.29-1.108 439.22 439.22 0 002.723-1.605l.822 1.395z" fill="#FF1616"/><defs><clipPath id="clip0_232_1318"><path fill="#fff" transform="rotate(32 65.656 234.042)" d="M0 0h79.108v42.783H0z"/></clipPath></defs></svg>