<svg width="70" height="96" fill="none" xmlns="http://www.w3.org/2000/svg"><path d="M69.358 90.35c-5.82-10.473-10.277-17.19-19.439-27.664-.742-.91-1.857-2.05-3.218-3.757-1.486-1.708-3.343-3.985-5.82-7.058-1.114-1.594-2.476-3.188-3.714-5.01-.619-.91-1.362-1.821-1.98-2.846a41.112 41.112 0 00-1.982-2.96c-2.476-4.098-5.076-8.766-6.19-13.32-.124-.569-.372-1.138-.372-1.707 0-.57-.123-1.025-.123-1.594 0-1.025.123-2.05.495-3.074.619-1.936 1.857-3.87 3.59-5.465 3.467-3.301 8.79-5.464 13.867-6.261 2.6-.456 5.076-.456 7.305-.228.619 0 1.114.228 1.61.228l1.485.341c.867.342 1.733.683 2.228 1.139 1.239.797 1.734 1.707 1.981 2.846 0 .341 0 .57.124.91 0 .342 0 .684-.124 1.025v.228l-.123.341c0 .228-.124.456-.124.57-.124.455-.124.797-.248 1.252-.743 3.074-1.98 5.35-2.847 6.945-.99 1.593-1.61 2.39-1.61 2.39s-.124.228-.371.456c-.248.341-.62.797-1.115 1.366-.99 1.252-2.724 2.846-5.076 4.781-2.352 1.936-5.447 4.099-9.162 6.262-3.714 2.277-7.924 4.554-12.628 7.059-4.581 2.618-9.658 5.35-14.362 9.107-2.353 1.936-4.705 4.099-6.686 6.717-.99 1.366-1.857 2.733-2.476 4.326-.372.683-.62 1.594-.867 2.277-.247.797-.495 1.594-.619 2.277-.743 3.188-.99 6.49-.124 9.79.743 3.302 2.848 6.604 5.696 8.767 2.847 2.277 6.066 3.416 9.038 4.099 3.095.683 5.943.796 8.542.683 6.562-.342 11.391-1.822 15.105-3.188l2.6-1.025c.743-.341 1.486-.683 2.105-1.024 1.362-.57 2.352-1.139 3.22-1.594 3.466-1.936 6.313-3.87 8.666-5.92 2.476-2.05 4.333-4.213 6.066-6.376 3.343-4.326 5.82-8.993 7.677-14.572-4.581 4.099-8.667 7.059-12.877 10.019-2.104 1.48-4.21 2.96-6.685 4.44-2.353 1.594-4.953 3.073-7.924 4.667-.743.342-1.61.911-2.724 1.367-.495.227-1.114.569-1.857.796-.62.228-1.362.57-2.105.797-3.095 1.139-7.057 2.277-11.886 2.505-1.98 0-3.961 0-5.819-.456-1.857-.455-3.59-1.138-4.828-2.162-1.238-1.025-2.105-2.277-2.6-4.099-.372-1.708-.372-3.757.124-5.92.123-.57.247-1.139.371-1.594.124-.455.248-.91.495-1.366.372-.91.99-1.822 1.61-2.732 1.238-1.822 2.971-3.416 4.952-5.01 3.838-3.073 8.543-5.692 13-8.197 4.581-2.504 8.915-4.895 12.876-7.286 3.962-2.39 7.429-4.781 10.153-7.058s4.828-4.326 6.19-5.92c.62-.797 1.238-1.366 1.486-1.822.371-.455.495-.683.495-.683s.867-1.024 2.105-3.073a33.278 33.278 0 003.838-9.336c.124-.57.248-1.024.371-1.594 0-.227.124-.569.124-.797l.124-.455v-.456c0-.682.124-1.366.124-2.049 0-.683-.124-1.48-.248-2.277-.123-.796-.371-1.594-.619-2.39-.371-.797-.743-1.594-1.238-2.391-.495-.683-.99-1.48-1.733-2.163-.372-.342-.62-.683-.99-.911-.372-.228-.743-.57-1.115-.797-3.095-2.163-6.562-3.074-9.905-3.53-3.466-.455-6.81-.227-10.276.342-3.343.57-6.81 1.48-10.028 2.96-2.972 1.936-6.067 3.757-8.79 6.376-2.725 2.504-4.953 5.692-5.944 9.335-.371.91-.371 1.822-.619 2.732-.124.911-.124 1.822-.247 2.733 0 .91.123 1.821.247 2.732.124.91.372 1.594.495 2.39.248.798.372 1.595.62 2.392.247.683.495 1.48.742 2.163.248.683.496 1.48.867 2.163.371.683.62 1.366.99 2.049.372.683.62 1.366.991 1.935.371.57.743 1.253.99 1.822.743 1.252 1.362 2.39 2.105 3.53.743 1.138 1.486 2.162 2.105 3.3.743 1.025 1.486 2.05 2.105 2.96 1.362 1.936 2.724 3.644 3.962 5.352 2.6 3.187 4.457 5.578 6.066 7.286 1.486 1.821 2.6 2.96 3.343 3.87 9.534 10.588 16.59 15.256 26.99 21.973z" fill="#FF1616"/></svg>