<svg width="60" height="57" fill="none" xmlns="http://www.w3.org/2000/svg"><path fill-rule="evenodd" clip-rule="evenodd" d="M54.096 35.704l-.914.044-.243-.221c-.578 0-1.136.008-1.693 0-.47-.006-.942-.056-1.41-.037-.523.021-1.042-.018-1.57.028-.476.042-.974.224-1.445.09-.548-.157-1.038.148-1.57.094-.492-.05-.993-.008-1.489-.006l.009.179c-1.476.199-2.963.361-4.42 1.017l-.327-.129-.02.301c-.809.291-1.615.639-2.43.904-1.004.327-1.919.884-2.984 1.061-.535.09-1.073.36-1.522.673-.274.192-.387.002-.596-.024l-.08.418-1.983.713-.041-.455c-.338-.043-.662-.351-1.22.087.144-.334.232-.54.34-.795l-.83.07c-.03.146-.056.284-.085.434l-.625.205c-.058-.074-.15-.143-.14-.184.081-.303.184-.6.279-.898-.33-.434-.649-.013-.97.002l-.011-.256-.458-.128.143-1.084c.58-.74 1.318-1.538 1.873-2.448.288-.47.755-.854.902-1.332.182-.595.75-.838.937-1.332.206-.544.693-.867.91-1.342.237-.52.703-.86.92-1.334.519-1.128 1.424-2.038 1.775-3.249.441-.28.456-.947 1.02-1.115.108-.607.449-1.103.757-1.617.435-.727.625-1.582 1.21-2.237.165-.186.187-.498.33-.912l-2.744 1.677-.772-.05-.374.756c-.979.487-1.838 1.377-3.068 1.466.08.54-.49.685-.653 1.036-1.27.476-2.19 1.386-3.371 2.167h-.389c-.467.235-.63.787-1.2.941-.414.112-.82.484-1.087.845-.324.442-.79.733-1.21.888-.524.192-.7.64-1.14.924h-.578c-.68.9-1.608 1.59-2.468 2.398l-.597-.054-.783.857-.066-.533c-.35.467-.803.504-1.331.44-.038-.115-.08-.248-.118-.361l-2.42.078-.45-.728.124-.414-.196-.178-.413.228c-.528-.414-.588-1.005-.586-1.61.29-.449.29-.449.046-1.155l-.125.536-.346-.183.406-.605-.308-.022-.448-2.157.34-.373-.413-.014.179-.407-.355-.323-.022-.51c.317-.043.616-.31.961-.078-.129-.607-.604-.41-1.073-.437l.355-.464c-.154-.521-.197-1.068-.657-1.513-.385-.371-.222-.94-.024-1.478l-.406-.041.324-.532-.307-.21c-.077-.357-.093-.896-.312-1.334-.312-.624.008-1.296-.322-1.93-.29-.556-.404-1.207-.466-1.87-.085-.906-.385-1.79-.608-2.75l-.419.46.2.485-.559.155c-.07.325-.178.665-.206 1.012-.023.29-.28.602.03.883-.373.24-.294.626-.281.977l-.241.01c.04 1.289-.288 2.505-.707 3.707l.085 1.235-.253.277c-.073.61-.137 1.14-.208 1.744l-.679-.153-.23 1.023.723.394-.38 2.477c-.256-.37-.188-.616-.227-.867-.504.144-.214.545-.28.816l-.553.112.343.526-.24.015.51.108-.245.852-.37.041v.347l.809.501-.634 3-.13.005c-.023-.105-.046-.21-.1-.472l-.858 1.372c-.408-.198-.784-.38-1.33-.647L0 34.294c.222-1.338.143-2.623.154-3.89.015-1.753.359-3.456.484-5.189.13-1.803.5-3.59.76-5.386.149-1.023.265-2.05.433-3.07.237-1.43.452-2.868.79-4.275.148-.62.063-1.259.337-1.88.235-.532.195-1.188.27-1.79.191-1.537.428-3.067.445-4.625.01-1.015.155-2.028.252-3.19L4.838 0c.25.213.596.357.619.865L6.09.31c1.051.225 1.853.83 2.616 1.72l-.103.865c-.022.059-.13.35-.262.699l.857.356c.098.496.23.986.282 1.485.045.424.5.814-.036 1.285l.452-.02c-.205.523.496.984.018 1.52l.388.448-.157.277c.65 1.284.783 2.715 1.019 4.146.061.056.193.118.22.211.112.375.357.82.245 1.126-.184.495.375.97-.098 1.414l.56.574-.168.41c.093.094.196.197.353.358l.026 1.31a233.29 233.29 0 01-.647-.2l.23.93c.13.025.261.049.47.086-.043.206-.123.396-.106.578.014.159.138.308.213.459l.492.067-.149.703-.498.309.34.309c-.108.423-.187.718.11 1.132.503.703.695 1.593.996 2.411.046.126-.077.313-.122.47l.21.01c.06.484.18.928.15 1.363-.028.442-.203.874-.343 1.421.115.241.324.11.645-.428l-.057.883-.591.227.763.294.07.367c.145-.012.398.037.46-.05.3-.422.746-.543 1.151-.686.398-.758 1.227-.986 1.81-1.496.64-.562 1.322-1.1 2.057-1.524.704-.407 1.435-.803 2.019-1.335.62-.565 1.357-.926 2.003-1.435.658-.52 1.397-.949 2.14-1.346.715-.382 1.318-.923 2.047-1.299.74-.381 1.477-.833 2.142-1.335.66-.498 1.42-.776 2.093-1.225a31.428 31.428 0 012.069-1.258c.73-.41 1.488-.77 2.228-1.165.71-.378 1.414-.771 2.18-1.19l1.024-.047.032.304c.335.352.613.041.859-.04l1.24.771.022.27c.794.009.896.647.997 1.192.102.552.068 1.128.096 1.732-.623.908-.608 2.203-1.695 2.896l.267.366-1.206 1.85.134.223c-.295.582-.568 1.154-.875 1.707-.121.218-.286.5-.49.564-.519.161-.781.451-.895.98-.053.242-.304.441-.345.757l.6-.655c.056.139.11.227.095.24-.44.402-.642.957-.87 1.47-.192.432-.473.858-.828.975-.461.152-.575.542-1.089.826l.452.053c-.134.786-.234 1.074-.782 1.288-.44.17-.556.54-.752.894l.849-.74-1.022 1.738c1.805-.777 3.542-1.009 5.233-1.427 1.723-.425 2.648-.51 4.115-.402.266.019.542-.131.814-.132.47 0 .943.095 1.412.076.43-.018.858-.201 1.285-.195 1.131.018 2.254.224 3.393.166.111-.005.232.168.362.269.181-.052.388-.177.576-.153.915.121 1.84.221 2.732.448.709.18 1.43.302 2.138.543.698.237 1.244.672 1.868.983.645.322 1.068.965 1.376 1.701-1.048.126-.911 1.269-1.49 1.832l.833-.782.126.13-.505.554c-.153.167-.31.332-.458.502-.167.192-.412.348-.317.664-.341-.121-.236.344-.44.35-.369.008-.035.476-.382.52-.192.024-.383.178-.54.313-.194.167-.353.375-.51.547l-.515-.219.255.466-.302.393-.998.046-.304.37.232.445-.515-.155-.167.183.199.483c-.596.338-1.23.582-1.697 1.119-.212.242-.608.326-.954.499l-.013.162-1.648 1.054.041-.723c-.28.233-.421.428-.567.798-.035.007-.07.017-.106.02-.075.006-.15.008-.24.012.007.074.016.148.02.222.002.036-.003.073-.006.112l-.91.515-.735-.671-.159.063.146.564.557.134-1.172.782-.308-.178c-.099.682-.614.781-1.146.874-.17.03-.34.098-.49.184-.334.194-.655.411-1.048.662a62.663 62.663 0 00-.301-.146l-.54.676c.084-.011-.027-.024-.107.019-.646.347-1.25.77-1.927 1.065-.064.028-.104.106-.164.146-.393.26-.966.015-1.293.442-.29.377-.766.343-1.131.552-.393.226-.807.415-1.215.612-.126.062-.278.077-.39.155-.12.084-.207.217-.355.379l-.564-.052-.518.567c-.658.014-1.324.018-1.791.609-.042.053-.116.115-.173.114-.977-.016-1.664.735-2.569.953-.872.21-1.67.71-2.53.996-1.14.38-2.305.679-3.46 1.006a.683.683 0 01-.338.015c-.985-.245-1.968-.5-2.859-.729l-.975-1.31.171-.887c.582-.29 1.132-.599 1.71-.84.582-.244 1.18-.466 1.791-.617 1.337-.333 2.564-.955 3.863-1.381.768-.252 1.463-.733 2.306-.754 1.158-.746 2.47-1.143 3.719-1.686.54-.236 1.12-.392 1.63-.719.468-.301.983-.528 1.477-.79 1.544-.818 3.09-1.628 4.628-2.457a60.34 60.34 0 002.373-1.35c.785-.472 1.534-1.035 2.323-1.462 1.384-.75 2.502-1.844 3.844-2.637.709-.418 1.277-1.087 1.871-1.68.58-.578 1.111-1.203 1.823-1.982z" fill="#FF1616"/></svg>