<svg width="306" height="30" fill="none" xmlns="http://www.w3.org/2000/svg"><path d="M291.721 10.472c-.988.077-1.38-.017-1.777.067-17.459 3.968-36.064 6.496-54.479 9.294-19.009 2.88-38.018 5.759-57.791 7.648-11.069.93-22.136 1.77-33.371 1.45-3.35-.132-6.894-.355-10.232-.932-6.679-1.065-9.371-3.773-6.73-6.77 1.018-1.235 2.625-2.374 4.624-3.418 3.001-1.656 6.392-3.128 9.588-4.692 1.598-.782 3.196-1.564 4.599-2.438 2.609-1.75 1.857-3.185-1.86-4.391s-8.043-1.706-12.376-1.94c-6.306-.257-12.235.202-18.17.93-13.06 1.617-25.546 3.955-37.067 7.107-4.766 1.277-63.53 15.465-68.295 16.652-1.589.426-3.567.668-5.344.735-.988.076-2.752-.392-2.94-.75-.383-.45.424-1.154.833-1.683.201-.176.795-.258 1.192-.342C9.477 24.864 71.03 9.642 78.972 7.603a246.226 246.226 0 0142.988-7.3c7.312-.532 14.607-.44 21.476.895 3.142.575 6.276 1.417 8.814 2.43 5.856 2.39 6.952 5.792 2.931 8.772-2.011 1.49-4.805 2.791-7.403 4.095-3.001 1.656-6.197 3.22-9.196 4.787-.8.435-1.213 1.143-1.818 1.67 1.949.916 4.32.768 6.486.884 12.026.242 23.879-.5 35.554-1.956 24.14-2.993 48.088-6.167 72.033-9.25 9.302-1.22 18.601-2.35 28.694-3.65-1.374-.284-2.158-.472-3.139-.663-3.733-.582-7.468-1.075-11.198-1.746-1.571-.287-3.139-.663-4.506-1.216-1.563-.554-2.132-1.453-.931-2.15.803-.525 2.389-.862 3.774-1.023 1.385-.16 2.761.035 4.136.231 10.813 1.385 21.628 2.68 32.439 4.154 5.502.783 7.424 2.768 4.604 5.05-1.412 1.23-3.416 2.452-5.805 3.314-8.371 3.37-17.133 6.647-25.894 9.834-1.593.604-3.776 1.11-5.757 1.442-2.375.327-3.934-.406-2.726-1.371 1.612-1.317 3.423-2.72 5.819-3.849 5.392-2.606 10.977-5.03 16.367-7.548 1.399-.695 2.795-1.301 4.193-1.997.007-.267.211-.532.814-.97z" fill="#FF1616"/></svg>