<svg width="336" height="105" fill="none" xmlns="http://www.w3.org/2000/svg"><path d="M80.66 103.593c.264-.019.619-.074.879-.048 12.913 1.054 25.454.578 37.93-.132 5.799-.33 11.52-.759 17.241-1.187.441-.047.883-.094 1.342-.32-1.043-.058-2.081-.161-3.124-.219-22.129-1.517-43.766-4.478-64.722-9.908-1.02-.282-2.14-.439-3.266-.55-12.77-1.63-25.308-3.824-37.187-7.403-6.36-1.944-12.248-4.249-17.292-7.149C2.971 71.027-.874 64.85.841 58.091c1.021-4.156 3.92-7.853 7.666-11.285 2.593-2.369 5.691-4.552 9.04-6.62.56-.352 1.21-.74 1.513-1.163 4.697-6.87 12.588-12.472 22.499-17.285 11.56-5.6 25.079-9.783 39.728-13.039 22.684-4.995 46.882-7.62 72.3-8.45a493.063 493.063 0 0145.108.626c20.844 1.253 41.396 3.7 61.594 7.967 15.232 3.232 29.679 7.337 42.756 12.936 8.218 3.487 15.427 7.462 21.258 12.116 6.233 5.01 10.163 10.337 10.999 16.035.408 2.938-.048 5.79-1.538 8.496-1.911 3.433-4.255 6.823-7.697 9.832-5.064 4.388-11.873 7.879-19.677 10.818-10.164 3.837-21.45 6.656-33.458 8.816-17.167 3.097-34.97 5.542-52.84 7.8a1386.398 1386.398 0 01-59.332 6.294c-16.476 1.399-33.016 2.566-49.914 2.927-9.195.22-18.528.064-27.868-.908l-2.25-.223c-.081-.053-.072-.143-.068-.188zm35.595-12.77c5.469.361 14.758.966 24.142 1.49 3.214.182 6.528.24 9.683.145 9.732-.348 19.236-1.035 28.67-1.91 20.107-1.9 39.52-4.729 57.685-9.085 12.888-3.114 24.878-6.86 35.243-11.854 6.606-3.194 12.382-6.832 16.221-11.206 3.249-3.708 4.867-7.713 3.816-12.12-1.119-4.593-4.9-8.772-10.642-12.557-5.738-3.83-12.685-6.918-20.377-9.538-13.014-4.46-26.975-7.295-41.453-9.32-14.738-2.05-29.408-3.008-44.145-3.293-19.449-.344-38.325.59-56.629 2.805-20.424 2.457-39.592 6.351-56.765 12.164-9.76 3.289-18.527 7.128-25.642 11.947-6.534 4.242-11.114 9.04-12.209 14.819-.946 5.158 1.181 10.17 6.826 14.94 4.194 3.541 9.765 6.403 15.981 8.922 8.742 3.493 18.364 6.033 28.39 8.023 12.252 2.439 24.676 4.033 41.205 5.628zm81.284-80.01c-.009.09.073.143.065.233l4.931.49c10.218.922 20.31 2.24 30.258 4.133 11.41 2.128 22.403 4.94 32.606 8.669 7.925 2.914 15.018 6.29 20.543 10.505 8.126 6.195 10.812 12.62 8.054 19.32-1.818 4.257-5.5 7.922-10.284 11.25-6.188 4.277-13.785 7.78-22.126 10.847-11.146 4.056-23.333 7.15-36.164 9.68-15.501 3.036-31.697 5.142-48.351 6.57-.792.056-1.588.159-2.38.216a3.703 3.703 0 001.553.2c8.581-.191 17.239-.283 25.747-.616 20.702-.845 40.878-2.556 60.235-5.707 14.206-2.304 27.613-5.367 39.578-9.75 7.522-2.74 14.218-5.97 19.666-9.822 4.416-3.139 6.786-6.798 7.276-10.87.708-5.409-2.279-10.55-8.088-15.428-5.481-4.665-12.79-8.514-21.021-11.867-13.609-5.516-28.615-9.269-44.42-12.014-12.712-2.212-25.481-3.841-38.408-4.761-6.416-.5-12.845-.867-19.27-1.278zM331.17 47.526c.087.009.178-.028.178-.028-.069-.187-.051-.367-.125-.51-1.125-3.644-3.662-7.155-7.263-10.501-5.77-5.282-13.371-9.704-22.337-13.582-10.055-4.349-20.986-7.788-32.589-10.614C245.4 6.55 221.15 3.51 196.476 2.104c-12.858-.732-25.509-.9-38.205-.62-25.31.613-49.485 3.015-72.147 7.785-15.256 3.196-29.215 7.426-41.308 13.11-7.51 3.511-13.932 7.493-18.767 12.22-.286.244-.49.54-.78.829a2.42 2.42 0 001.069-.211c11.192-5.41 23.858-9.814 37.747-13.327C105.036 11.508 149.81 7.527 197.789 9.163c17.502.604 34.905 2.194 52.199 4.906 13.335 2.093 26.254 4.869 38.551 8.625 9.5 2.89 18.25 6.293 25.952 10.59 7.204 4.02 12.88 8.477 16.04 13.635.324.259.484.41.639.607zm-315.254-3.2c-.754.56-1.313.911-1.79 1.317-5.115 4.02-9.122 8.332-10.237 13.43-1.114 5.096 1.285 9.998 7.649 14.57 4.406 3.153 9.93 5.603 16.1 7.71 8.112 2.797 16.83 4.748 25.767 6.269 1.462.235 2.837.462 4.3.698-30.97-11.087-46.339-25.336-41.79-43.994zm68.237 48.656c-.004.044-.1.126-.104.17.342.08.766.212 1.107.291 7.28 1.492 14.585 2.715 21.995 3.767 13.184 1.852 26.508 3.173 39.808 3.859 1.388.092 2.786.095 4.11-.045 20.722-1.93 41.22-4.243 61.48-6.807.441-.046.891-.183 1.333-.23-.947-.139-1.822-.135-2.7-.086-15.89.778-31.823 1.1-48.048.848-8.723-.14-17.442-.326-26.109-.145a468.626 468.626 0 01-43.938-.963 197.986 197.986 0 00-8.934-.66zM53.23 27.424c.005-.044-.077-.098-.073-.143-1.715.555-3.43 1.11-5.057 1.672-9.315 3.197-17.977 6.866-25.562 11.14-.741.424-1.495.983-1.813 1.54-2.22 3.9-3.232 7.966-2.519 12.248 1.387 8.968 8.288 16.943 20.614 23.962 8.02 4.6 17.463 8.072 27.655 11.03 2.97.883 6.063 1.417 9.264 1.734 13.415 1.286 26.888 1.988 40.232 2.225 2.007.018 4.015.036 6.027.01-21.029-2.041-24.225-2.404-38.677-4.698-9.46-1.527-18.61-3.522-27.432-6.208-8.99-2.748-17.225-6.056-23.78-10.464-6.718-4.516-10.51-9.466-11.113-14.869-.523-4.444 1.19-8.53 4.453-12.373C29.7 39.218 36.13 35.147 43.65 31.546c3.197-1.404 6.384-2.718 9.58-4.122z" fill="#FF1616"/></svg>