<svg width="301" height="96" fill="none" xmlns="http://www.w3.org/2000/svg"><path d="M115.644 65.968c12.664-10.838 16.099-20.205 16.725-29.127.378-4.997-.365-9.6-3.328-13.362-1.225-1.603-2.672-3.052-5.052-3.993-1.501-.534-3.101-.965-5.146-1.087-3.8-.233-8.307 1.287-12.223 3.904-2.463 1.642-4.281 3.467-5.71 5.197-2.46 3.043-3.976 5.955-4.959 8.778-2.65 7.453-1.893 13.835.764 19.634a33.955 33.955 0 007.831 10.441c.234.224.324.442.58.72-3.106 2.16-6.702 3.817-10.465 5.416-15.617 6.754-31.426 11.993-47.26 15.776-5.197 1.228-10.316 2.297-15.38 3.152-9.817 1.775-18.648 2.128-26.182 1.123-1.345-.152-2.69-.304-4.156-.407-.145-.005-.389.095-1 .344.401.282.635.506.99.68 6.616 2.59 15.072 3.409 25.513 2.463 13.03-1.237 26.743-4.283 40.787-8.61 11.513-3.55 22.803-7.647 33.79-12.83 2.398-1.106 4.85-2.425 7.447-3.74a14.8 14.8 0 011.112.63c5.329 3.625 11.202 6.837 18.672 9.078 6.014 1.816 12.649 3.06 20.571 3.27 4.31.089 8.92-.135 13.862-.94 12.672-2.111 22.959-7.264 30.008-15.11l1.397-1.462c.734.401 1.279.688 1.969.98 4.782 2.638 9.909 5.07 15.945 6.941 5.203 1.573 10.949 2.734 17.859 2.91 3.322.11 6.799-.098 10.675-.723 9.328-1.575 17.397-5.186 24.184-10.886 1.287-1.035 2.285-2.08 3.649-3.273.734.402 1.279.69 1.846 1.031a77.93 77.93 0 0017.536 7.694c1.645.54 3.512.924 5.479 1.205.934.193 2.289.022 3.544-.044 1.089-.125 2.187-.573 2.863-1.359.676-.785.131-1.073-.78-1.211a47.472 47.472 0 01-5.213-1.25c-8.137-2.48-14.921-5.83-20.895-9.637-.567-.342-1.012-.734-.359-1.574 5.882-8.263 7.711-15.636 7.818-22.69.246-9.85-2.483-18.613-8.143-26.181-1.916-2.596-4.276-4.883-8.057-6.463a17.946 17.946 0 00-4.802-1.29c-4.489-.527-9.54 1.406-13.221 4.947-2.239 2.188-3.535 4.246-4.397 6.318-1.891 4.086-2.35 7.841-2.175 11.402.236 6.85 2.671 12.802 6.471 18.262 4.58 6.67 10.702 12.584 17.979 17.835.823.62 1.069 1.221-.295 2.415-1.663 1.507-3.16 3.073-4.99 4.52-4.103 3.204-8.943 5.306-14.351 6.365-3.687.74-6.897.902-9.93.802-5.299-.069-9.756-.863-14.013-1.867-8.892-2.234-16.109-5.599-22.539-9.475-.567-.342-.846-.675-.436-1.415 3.462-7.212 3.715-13.56 2.703-19.52-1.069-6.445-3.603-12.293-8.191-17.24-1.77-1.89-3.785-3.681-6.709-4.91a14.452 14.452 0 00-4.302-1.112c-4.011-.403-8.629 1.544-10.944 4.592-1.108 1.472-1.805 2.903-2.235 4.29-1.136 3.84-.618 7.197.144 10.455 2.777 10.273 10.348 18.336 20.272 25.184.378.228.635.506 1.135.684.712.347.668.938.115 1.674-1.308 1.68-2.448 3.42-4.189 5.086-3.936 3.963-9.473 6.796-16.025 8.194-3.398.75-6.808 1.121-9.996 1.338-5.554.354-10.309-.127-14.744-.867-9.324-1.549-16.673-4.54-23.014-8.198-2.157-1.096-4.16-2.509-6.429-3.877zm153.399-10.903c-.501-.178-.667-.237-.857-.351-.355-.174-.611-.452-.967-.625-7.444-5.311-13.489-11.384-17.503-18.412-2.944-5.108-4.911-10.614-4.413-17.062.238-2.901.621-5.797 2.414-9.078.841-1.426 1.949-2.898 3.345-4.36 1.297-1.357 3.151-2.05 4.852-1.724 1.533.266 2.99.692 4.079 1.267 3.915 1.908 6.187 4.676 8.115 7.65 4.102 6.546 6.107 13.885 6.279 21.972.079 5.766-.742 11.772-4.016 18.397-.454.632-.742 1.322-1.328 2.326zm-157.495 7.157c-.634-.505-1.057-.843-1.336-1.175-1.114-1.33-2.327-2.555-3.319-3.935-3.599-4.968-5.466-10.579-4.624-17.23.448-3.433 1.574-6.951 4.132-10.799.986-1.421 2.26-2.834 3.679-4.24 1.963-1.821 3.639-2.25 5.696-1.751.789.188 1.478.48 1.924.872 1.124 1.007 2.392 2.019 3.173 3.23 2.797 4.402 3.231 9.642 2.176 15.425-.956 4.978-3.245 10.181-7.932 15.79-.953 1.153-2.172 2.352-3.569 3.813zm64.76-40.566c.244-.1.611-.25.877-.294.812.242 1.845.33 2.535.622 1.279.69 2.702 1.383 3.759 2.226 5.075 4.047 7.752 9.2 9.352 14.856 1.522 5.114 2.067 10.627.835 16.673-.087.482-.297 1.014-.507 1.546-.912-.138-1.579-.376-1.879-.763-2.783-2.624-5.91-5.045-8.327-7.819-4.587-4.946-7.732-10.546-8.534-17.037-.316-2.165.101-4.629.54-7.039-.068-.864.763-1.967 1.349-2.971z" fill="#FF1616"/></svg>