<svg width="333" height="21" fill="none" xmlns="http://www.w3.org/2000/svg"><path d="M276.969 2.463c-2.72.131-5.274.208-8.201.295l-1.535.046c-36.052 1.13-72.002 2.27-107.952 3.411-35.951 1.14-71.903 2.281-107.956 3.41-1.864.057-3.744.12-5.634.181-5.397.177-10.881.357-16.338.43-3.366.034-6.732.067-10.05-.094-5.41-.19-9.043-.788-9.624-1.856-.4-.947 2.062-1.581 6.977-1.948 2.776-.198 5.552-.397 8.509-.475 2.82-.094 5.62-.2 8.421-.307 5.601-.213 11.202-.426 16.964-.533l28.998-.617h.012c44.851-.958 89.517-1.912 134.428-2.703 11.897-.154 23.865-.143 35.783-.132 4.53.005 9.053.009 13.563.004 4.412-.02 9.185.2 13.958.421-.228.076-.275.271-.323.467zm55.708 10.005c-.841.008-1.74.036-2.638.063-.899.027-1.797.054-2.639.063-85.837 1.545-170.634 4.131-255.271 6.713h-.025c-11.784.36-23.564.72-35.343 1.076-2.184.063-4.393.134-6.602.204-4.418.142-8.836.284-13.05.359-.592.006-1.19.014-1.79.022-2.823.04-5.713.079-8.26-.117-2.863-.313-6.495-.91-6.99-1.467-.495-.556 1.786-1.31 3.791-1.794 1.473-.338 3.912-.502 6.285-.66.49-.034.978-.066 1.454-.1 5.733-.277 11.466-.554 17.38-.711 77.972-2.22 156.667-3.96 235.896-4.436 13.445-.085 26.951-.027 40.616.031 6.627.028 13.293.057 20.007.07 1.819-.003 3.436.063 5.052.128.808.032 1.616.065 2.45.09-.334.11-.327.204-.317.323.003.043.007.09-.006.143z" fill="#FF1616"/></svg>