<svg width="118" height="108" fill="none" xmlns="http://www.w3.org/2000/svg"><path d="M41.607 15.09c1.194 4.155-.297 7.075-1.501 10.014-.592 1.451-1.345 2.758-.692 4.45.334.813.141 1.76-.932 2.065-1.124.348-1.728-.303-2.106-1.29-.616-1.67-.676-3.235.118-4.986 1.38-2.984 3.346-5.87 1.928-9.565-1.165-3.078-5.14-5.223-8.22-4.128-1.453.525-2.464 1.557-2.623 3.239-.2 2.002-.745 3.999-.185 6.055.142.552.175 1.163-.446 1.414-.59.244-1.04-.169-1.422-.567-.257-.274-.617-.585-.707-.934-1.035-3.297-1.046-6.608.832-9.471 1.813-2.754 4.514-3.629 7.897-2.82 5.273 1.258 6.991 2.616 8.03 6.532l.03-.008zm-3.046 18.893c1.329-.401 2.575.087 2.75 1.373.228 1.49-.458 3.06-2.05 3.527-1.788.549-2.266-1.187-2.645-2.298-.47-1.46.528-2.303 1.945-2.602zm75.142 30.589c1.133 3.2-1.038 11.662-3.655 13.947-1.212 1.058-2.733 1.462-4.377 1.623-5.281.582-9.772-1.276-13.869-4.145-2.962-2.072-5.94-3.755-9.79-2.615-1.189.346-2.098-.022-2.378-1.2-.326-1.384.997-1.459 1.809-1.696 4.513-1.258 8.295.254 11.85 2.876 3.476 2.587 7.377 4.247 11.988 3.85 1.902-.161 3.095-.925 3.857-2.585.85-1.853 1.372-3.808 1.788-5.789.904-4.372-2.675-6.888-5.756-7.988-1.033-.354-2.119-.591-3.194-.801-.557-.114-1.503.365-1.498-.566-.006-.959 1-1.364 1.826-1.478 2.371-.367 4.574.193 6.579 1.34 2.132 1.227 3.804 2.945 4.837 5.189l-.017.038zM70.638 76.674c.108-1.001-.87-2.497.983-2.96 1.294-.32 2.946-.805 3.535 1.027.491 1.484-.11 2.796-1.674 3.344-1.27.472-2.272-.054-2.883-1.43l.039.019zm27.59-38.594c-1.855 3.645-5.178 4.54-8.648 5.115-1.534.262-3.106.315-4.662.343-2.835.027-5.148.994-6.712 3.527-.307.445-.723.889-1.203 1.107-.68.298-1.487.512-2.043-.378-.475-.798-.533-1.456.131-2.312 3.282-4.016 7.58-5.263 12.453-5.062 1.596.072 3.114-.273 4.593-.827 3.143-1.163 5.919-5.452 5.653-8.726-.402-4.933-4.516-7.454-9.638-5.86-.655.206-1.304.564-1.984.754-.62.158-1.397.646-1.803-.25-.373-.837.285-1.261.826-1.728 2.742-2.384 8.04-2.8 10.941-.855 3.888 2.585 5.581 7.236 4.121 11.369-.496 1.408-1.008 2.84-2.084 3.816l.06-.033zM66.984 57.661c-1.786-.857-.801-1.967-.256-2.758.597-.865 1.506-1.918 2.689-.928 1.05.864 1.846 1.99.857 3.424-1.024 1.484-2.24 1.126-3.29.262zm-9.364 5.602c-1.24-4.455-4.423-7.246-7.605-9.876-2.211-1.879-5.016-2.791-7.82-3.113-4.585-.537-9.115-1.02-13.7-1.235-5.717-.215-11.434.483-17.097 1.342-3.29.483-5.987 2.254-8.037 5.1-.647.912-.917 2.146-1.294 3.273C1.58 60.257.934 61.76.772 63.317c-.377 3.596-.431 7.246-.7 10.842-.216 3.274.053 6.44.862 9.554.54 2.2 1.403 4.348 2.104 6.494v.108c1.132 2.254 3.02 3.65 4.8 5.153.863.751 2.05 1.02 3.236.751 1.564-.376 3.128-.644 4.962-1.02a759.438 759.438 0 01-3.937 7.246c-.162.322-.432.644-.378.966.054 1.074.216 2.147.378 3.167.108.966.593 1.557 1.51 1.396.97-.161 1.942-.483 2.859-.698 3.128-.644 5.77-2.415 8.09-4.616 1.672-1.61 3.02-3.596 3.667-6.119 2.266.161 4.369.483 6.526.483 3.506 0 7.012-.215 10.464-1.127 1.941-.537 4.045-.43 6.04-.913 1.08-.268 2.212-.912 3.02-1.717 1.457-1.503 2.644-3.274 3.29-5.421.594-1.825 1.295-3.65 1.511-5.582.593-5.046-.377-10.091-.701-15.136a18.665 18.665 0 00-.755-3.919v.054zM8.215 93.803c-.539-.912-1.618-1.02-1.456-2.307.594.268 1.133.536 1.78.805-.054.375-.162.751-.324 1.449v.054zm1.888.86c-.755-.054-.863-.43-.593-2.416.647-.107 1.24-.161 1.78-.268 0 1.878-.378 2.737-1.187 2.683zm1.996-.215c.108-.86.162-1.718.27-2.63.647-.108 1.186-.215 1.78-.322.107 2.147-.162 2.63-1.996 2.952h-.054zm3.236-.752c0-1.538.431-2.236 1.294-2.093 0 0 .162.215.216.322-.54.59-1.025 1.18-1.564 1.771h.054zm-.162 11.97c-.162.912-.863.751-1.51.751-.216-.751-.378-1.503-.593-2.308a48.375 48.375 0 002.373-1.449c-.108 1.181-.108 2.093-.27 3.006zm2.427-.483c-.108.322-.755.483-1.348.805v-1.825c0-1.396.665-2.272 1.995-2.63-.215 1.234-.323 2.469-.647 3.65zm3.236-3.167c0 1.556-.647 2.415-2.103 2.737.27-1.342.377-2.684.755-3.864.216-.591 1.025-.859 1.672-1.45-.162 1.02-.378 1.825-.378 2.577h.054zm2.373-.376c-.107.483-.647.859-1.186 1.503 0-2.684-.27-5.1 1.887-6.28-.215 1.45-.377 3.167-.7 4.831v-.054zm1.618-1.556c.108-1.825.162-3.436.378-5.046.108-.698.324-1.61 1.456-1.771-.917 2.254-.054 4.83-1.834 6.817zm4.962-5.153c-.431 0-.755 0-1.132-.054-.378 0-.755-.054-1.187-.107v-1.396c.81-.107 1.672-.215 2.643-.322-.108.752-.216 1.288-.324 1.932v-.053zm1.349.053V93.16h1.618c-.162 1.986-.216 2.04-1.618 1.825zm3.83-.644c-.055.269-.109.59-.217.913h-1.186c0-.644.054-1.235.108-1.933h1.456c-.054.376-.108.698-.216 1.02h.054zm1.671 1.074s-.27-.108-.377-.161c.108-.59.161-1.181.27-1.825.269 0 .485.054.862.107-.323.752-.54 1.288-.809 1.879h.054zm1.726-.161v-1.718h1.402c-.377.698-.108 1.879-1.402 1.718zm2.859-.054s-.216-.16-.378-.215c.108-.59 0-1.341.755-1.449.108.054.216.161.27.215-.216.483-.486.966-.701 1.45h.054zm1.941-.59v-1.235c.486-.107.971-.215 1.564-.322 0 1.235-.323 1.879-1.564 1.557zm2.697-.215v-1.503c.701-.107 1.402-.268 2.103-.376 0 1.074-.7 1.7-2.103 1.879zm4.638-.698c-.27.054-.593.161-.916.215-.432-1.503-.216-2.04 1.186-2.898-.108.912-.162 1.77-.27 2.683zm1.565-.912c.323-1.503-.594-3.113 1.51-3.918-.917 1.234.431 3.005-1.51 3.918zm2.48-2.523c.378-1.342-.539-2.576.81-3.596-.054 1.288.377 2.469-.81 3.596zm1.672-11.11c-.539 1.61-.916 3.274-1.402 4.884a4.228 4.228 0 01-.863 1.61c-1.887 2.254-3.883 4.455-6.688 5.207-3.667.912-7.389 1.073-11.11.751-2.805-.215-5.717 0-8.522-.161-2.05-.161-3.128.751-3.991 2.684a9.218 9.218 0 01-2.589 3.274c-1.78 1.395-3.721 2.415-5.61 3.596-.107-.107-.161-.215-.269-.322.701-1.557 1.456-3.113 2.158-4.67a68.19 68.19 0 001.941-4.562c.378-1.02 0-1.771-1.079-1.718-2.48.108-4.908.215-7.335.537-2.373.376-5.124-.912-6.58-2.952-1.995-2.845-2.265-6.119-2.48-9.447a65.937 65.937 0 010-7.997c.161-2.845.539-5.636 1.024-8.427.27-1.503.809-2.898 1.402-4.294.486-1.18 1.403-1.986 2.427-2.791 3.075-2.576 6.742-2.63 10.248-2.952 4.584-.483 9.223-.698 13.861-.698 3.02 0 5.987.537 9.007.805 3.29.322 6.58 1.02 9.277 3.113 3.83 3.006 7.281 6.495 7.713 12.13.27 4.134.809 8.32-.593 12.346l.053.053zm11.427-59.284c-.835 2.14-2.67 3.853-4.506 5.565-1.174 1.112-2.518 2.032-2.672 3.92-.06.818-.754 1.606-1.853 1.297-1.166-.311-1.428-1.163-1.146-2.203.546-1.92 1.69-3.488 3.193-4.833 2.468-2.194 4.725-4.567 5.603-7.941.623-2.32-1.016-8.079-2.913-9.388-2.134-1.502-5.411-.416-6.772 2.262-.48.9-.881 1.843-1.202 2.829-.174.519-.372.89-.911.876-.54-.013-.771-.475-.868-.934-.098-.392-.17-.77-.174-1.145-.061-3.022 2.027-5.654 5.789-7.265 1.949-.838 5.366.052 6.996 1.797 3.325 3.559 4.051 10.261 1.422 15.19l.014-.027zm-9.916 22.678c-1.324-.462-1.573-1.273-.798-2.663.649-1.152 1.448-1.817 2.575-1.05 1.009.669 1.969 1.686 1.232 3.13-.694 1.366-1.773 1.339-3.009.583z" fill="#FF1616"/></svg>