<svg width="42" height="38" fill="none" xmlns="http://www.w3.org/2000/svg"><path d="M.3 36.67a.093.093 0 01.03-.03h1.965a.093.093 0 01.03.03c.026.037.05.1.05.18 0 .08-.024.144-.05.18a.082.082 0 01-.03.03H.33a.082.082 0 01-.03-.03.315.315 0 01-.05-.18.32.32 0 01.05-.18zm1.993-.03h.001-.001zm0 .42h.001-.001zm-1.96 0H.33h.001zm-.002-.42h.001-.001zm3.249.03a.1.1 0 01.032-.03H41.67a.093.093 0 01.03.03c.026.037.05.1.05.18 0 .08-.024.144-.05.18a.082.082 0 01-.03.03H3.612a.08.08 0 01-.031-.03.315.315 0 01-.05-.18.32.32 0 01.05-.18zm38.088-.03h.001-.001zm0 .42h.001-.001zm-38.055 0h-.001.001zm-.001-.42h.001-.001z" fill="#FF1616" stroke="#FF1616" stroke-width=".5"/><mask id="a" fill="#fff"><path d="M38.723 34.094h1.636l.952-2.855a1.312 1.312 0 00-.66-1.59l-.299-.149-.438-2.088a3.28 3.28 0 00-2.649-2.559l-5.355-.93-7.629-6.163a3.283 3.283 0 00-2.062-.729H8.981a3.283 3.283 0 00-2.663 1.364L3.281 22.61H1.16a.656.656 0 00-.562.993l1.372 2.288v3.61c-.845 0-1.474.778-1.297 1.604l.64 2.989h1.641"/></mask><path d="M38.723 33.594a.5.5 0 000 1v-1zm1.636.5v.5h.36l.115-.342-.475-.158zm.952-2.855l.474.158-.474-.158zm-.66-1.59l-.224.447.223-.447zm-.299-.149l-.49.103.05.237.217.108.223-.448zm-.438-2.088l-.489.103.49-.103zm-2.649-2.559l-.086.493.086-.493zm-5.355-.93l-.314.388.1.081.128.023.086-.493zm-7.629-6.163l.314-.389-.314.389zm-17.963.634l-.405-.292.405.293zM3.281 22.61v.5h.256l.15-.208-.406-.292zm-2.684.993l.428-.257-.428.257zm1.372 2.288h.5v-.139l-.071-.118-.43.257zm0 3.61v.5h.5v-.5h-.5zM.672 31.104L1.161 31l-.489.105zm.64 2.989l-.488.105.084.395h.404v-.5zm1.641.5a.5.5 0 000-1v1zm35.77 0h1.636v-1h-1.636v1zm2.11-.342l.952-2.855-.948-.316-.952 2.855.949.316zm.952-2.855a1.812 1.812 0 00-.912-2.196l-.445.895c.362.18.537.6.409.985l.948.316zm-.912-2.196l-.298-.148-.446.895.298.148.446-.895zm-.031.197l-.438-2.088-.979.205.438 2.088.979-.205zm-.438-2.088a3.78 3.78 0 00-3.053-2.95l-.171.986a2.78 2.78 0 012.245 2.169l.979-.206zm-3.053-2.95l-5.355-.93-.171.985 5.354.93.172-.984zm-5.127-.827l-7.629-6.162-.628.778 7.629 6.162.628-.778zm-7.629-6.162a3.783 3.783 0 00-2.376-.84v1c.637 0 1.253.219 1.748.618l.628-.778zm-2.376-.84H8.981v1h13.238v-1zm-13.238 0a3.783 3.783 0 00-3.068 1.571l.811.585a2.783 2.783 0 012.257-1.155v-1zm-3.068 1.571l-3.037 4.215.81.585 3.038-4.215-.811-.585zM3.28 22.11H1.16v1h2.12v-1zm-2.122 0c-.899 0-1.454.98-.991 1.75l.857-.514a.156.156 0 01.134-.236v-1zm-.991 1.75l1.372 2.288.858-.514-1.373-2.288-.857.514zm1.3 2.03v3.61h1v-3.61h-1zm.5 3.11a1.826 1.826 0 00-1.785 2.21L1.16 31a.826.826 0 01.808-1v-1zM.184 31.21l.64 2.989.978-.21L1.161 31l-.978.21zm1.13 3.384h1.64v-1h-1.64v1z" fill="#FF1616" mask="url(#a)"/><path d="M40.685 29.578h0l-.156-.077a.25.25 0 01-.133-.173l-.405-1.931h0a3.343 3.343 0 00-2.712-2.62s0 0 0 0l-5.271-.917a.25.25 0 01-.115-.052L24.332 17.7s0 0 0 0a3.37 3.37 0 00-2.111-.746H8.98a3.369 3.369 0 00-2.726 1.395s0 0 0 0l-2.939 4.08a.25.25 0 01-.203.104H1.16a.725.725 0 00-.64.372l40.165 6.674zm0 0c.616.307.918 1.032.7 1.685l-.95 2.855s0 0 0 0a.08.08 0 01-.076.054h-1.968a.078.078 0 010-.156h1.732a.25.25 0 00.237-.171l.877-2.631a1.238 1.238 0 00-.621-1.495s0 0 0 0l-.298-.149h0a.077.077 0 01-.042-.053h0l-.438-2.088a3.188 3.188 0 00-2.587-2.498h0l-5.353-.93s0 0 0 0a.086.086 0 01-.038-.018l-7.628-6.162 16.453 11.757zM.529 23.644h0l1.326 2.21a.25.25 0 01.036.128v3.223a.25.25 0 01-.201.245 1.397 1.397 0 00-.813.494h0c-.268.332-.37.76-.28 1.177h0l.64 2.99h0a.077.077 0 00.076.061H3.28a.078.078 0 000-.156H1.578a.25.25 0 01-.245-.198l-.585-2.73h0l.244-.053-.463-7.391zm0 0a.723.723 0 01-.009-.74l.01.74z" fill="#FF1616" stroke="#FF1616" stroke-width=".5" stroke-linejoin="round"/><path d="M14.737 33.718c.016-.022.027-.029.03-.03H27.56c.004.001.015.008.031.03.026.036.05.098.05.18 0 .08-.024.142-.05.179-.016.021-.027.028-.03.03H14.767a.093.093 0 01-.03-.03.315.315 0 01-.05-.18c0-.08.023-.143.05-.18zm12.821-.03h.002-.002zm0 .419h.002-.002zm-12.788 0h-.002.002zm-.002-.42h.002-.002z" fill="#FF1616" stroke="#FF1616" stroke-width=".5"/><path d="M36.828 32.453a4.016 4.016 0 11-8.031 0 4.016 4.016 0 018.031 0z" stroke="#FF1616" stroke-width=".5"/><path d="M28.469 32.453a4.35 4.35 0 014.343-4.343 4.35 4.35 0 014.344 4.343 4.35 4.35 0 01-4.343 4.344 4.35 4.35 0 01-4.344-4.344zm.156 0a4.191 4.191 0 004.188 4.188A4.191 4.191 0 0037 32.453a4.191 4.191 0 00-4.188-4.187 4.191 4.191 0 00-4.187 4.187z" fill="#FF1616" stroke="#FF1616" stroke-width=".5"/><path d="M12.875 32.453a4.016 4.016 0 11-8.031 0 4.016 4.016 0 018.031 0z" stroke="#FF1616" stroke-width=".5"/><path d="M4.516 32.453a4.349 4.349 0 014.343-4.343 4.349 4.349 0 014.344 4.343 4.349 4.349 0 01-4.344 4.344 4.349 4.349 0 01-4.343-4.344zm.156 0a4.191 4.191 0 004.187 4.188 4.191 4.191 0 004.188-4.188 4.191 4.191 0 00-4.188-4.187 4.191 4.191 0 00-4.187 4.187z" fill="#FF1616" stroke="#FF1616" stroke-width=".5"/><path d="M31.203 23.672H10.898a1.39 1.39 0 01-1.302-1.879h0l.738-1.969a1.39 1.39 0 011.302-.902h13.685l5.881 4.75z" stroke="#FF1616" stroke-width=".5"/><path d="M10.173 19.764h0a1.569 1.569 0 011.464-1.014h13.746l.069.056 5.687 4.593.55.445H10.898c-.519 0-.989-.246-1.284-.673a1.545 1.545 0 01-.179-1.438m.738-1.969l-.738 1.969m.738-1.969l-.738 1.969m.738-1.969l-.738 1.969M31.96 23.86h0a.08.08 0 01.025.087.08.08 0 01-.074.052H10.898a1.722 1.722 0 01-1.413-.739 1.722 1.722 0 01-.196-1.583s0 0 0 0l.738-1.969h0a1.727 1.727 0 011.61-1.115H25.41c.017 0 .035.006.048.017h0l6.5 5.25z" fill="#FF1616" stroke="#FF1616" stroke-width=".5"/><path d="M31.385 24.907c-.253 0-.46.146-.46.328v1.936c0 .18.207.328.46.328.254 0 .46-.147.46-.328v-1.936c0-.181-.206-.328-.46-.328zm-13.207 0c-.254 0-.46.146-.46.328v7.547c0 .18.206.328.46.328s.46-.147.46-.328v-7.547c0-.181-.206-.328-.46-.328zm0-6.563c-.254 0-.46.147-.46.328v5.25c0 .181.206.328.46.328s.46-.147.46-.328v-5.25c0-.181-.206-.328-.46-.328zm-12.19 5.578H4.676a.986.986 0 00-.985.985v1.312c0 .543.442.984.985.984h1.312a.986.986 0 00.985-.984v-1.313a.986.986 0 00-.985-.984zm.22 2.297c0 .181-.039.268-.22.268H4.676c-.181 0-.252-.087-.252-.268v-1.313c0-.18.07-.253.252-.253h1.312c.181 0 .22.072.22.254v1.312z" fill="#FF1616"/><path d="M39.67 27.464l.375 1.786h-1.357l-.768-1.537h0a.406.406 0 01.363-.588h1.292c.039.111.071.224.095.338 0 0 0 0 0 0z" stroke="#FF1616" stroke-width=".5"/><path d="M37.626 27.86h0a.728.728 0 01.033-.714.728.728 0 01.624-.348h1.466c.032 0 .06.02.073.05l.232-.093-.232.092c.078.197.132.376.17.55 0 0 0 0 0 0l.438 2.088h0a.075.075 0 01-.015.064l-.001.001a.079.079 0 01-.06.03h-1.82a.079.079 0 01-.07-.044s0 0 0 0l-.838-1.675zm.885 1.424l.07.138h1.674l-.063-.301-.355-1.692s0 0 0 0c-.02-.1-.048-.2-.082-.304l-.056-.172H38.28a.577.577 0 00-.517.836h0v.001l.747 1.494zm1.671-13.927h0a.15.15 0 01.212.212s0 0 0 0l-8.387 8.387s0 0 0 0a.152.152 0 01-.213 0 .15.15 0 010-.212l8.388-8.387z" fill="#FF1616" stroke="#FF1616" stroke-width=".5"/><path d="M24.969 1.531h12.468a1.39 1.39 0 011.391 1.391v8.531a1.39 1.39 0 01-1.39 1.391h-12.47a1.39 1.39 0 01-1.39-1.39V2.921c0-.768.623-1.39 1.39-1.39z" stroke="#FF1616" stroke-width=".5"/><path d="M24.969 1.203h12.468c.948 0 1.72.772 1.72 1.72v8.53c0 .948-.772 1.72-1.72 1.72H24.97a1.721 1.721 0 01-1.719-1.72v-8.53c0-.948.771-1.72 1.719-1.72zm12.468 11.813c.862 0 1.563-.7 1.563-1.563v-8.53c0-.863-.7-1.563-1.563-1.563H24.97c-.862 0-1.563.7-1.563 1.562v8.531c0 .862.7 1.563 1.563 1.563h12.468zM15.04 10.013l.06.166h3.133a.155.155 0 010 .31H14.99a.155.155 0 01-.146-.103h0l-1.614-4.52-.255-.712-.22.723-2.48 8.15s0 0 0 0a.155.155 0 01-.138.11h0-.001 0-.001 0-.001 0-.001 0-.001 0-.001 0-.001 0-.001 0-.001 0-.001 0a.156.156 0 01-.144-.098l-.233.093.233-.093-2.146-5.364-.177-.441-.263.395-1.194 1.79v.001a.154.154 0 01-.13.07H2.832a.155.155 0 010-.311h3.159l.074-.112 1.5-2.252h0a.15.15 0 01.144-.068h.001a.158.158 0 01.13.097s0 0 0 0l2.003 5.009.265.66.207-.68 2.5-8.219s0 0 0 0a.156.156 0 01.139-.11c.083.006.138.052.156.103h0l1.93 5.406z" fill="#FF1616" stroke="#FF1616" stroke-width=".5"/><path d="M35.203 4.348h0a.734.734 0 01.001 1.038l-4.64 4.64a.731.731 0 01-1.039 0h0l-2.32-2.32h0a.734.734 0 111.038-1.038l1.624 1.625.177.176.177-.176 3.944-3.944a.734.734 0 011.038 0z" stroke="#FF1616" stroke-width=".5"/><path d="M35.435 4.116h0c.201.201.311.467.311.751 0 .285-.11.55-.31.751h-.001l-4.64 4.64a1.054 1.054 0 01-.75.312c-.285 0-.55-.11-.752-.311l-2.32-2.32v-.001a1.046 1.046 0 01-.312-.75c0-.285.11-.55.311-.752.399-.399 1.104-.399 1.503 0l1.392 1.393.177.176.177-.177 3.712-3.712s0 0 0 0a1.064 1.064 0 011.502 0zm-.11 1.392h0a.906.906 0 000-1.282h0a.907.907 0 00-1.282 0h0L30.1 8.17s0 0 0 0c-.03.03-.08.03-.11 0h0l-1.625-1.625h0a.907.907 0 00-1.282 1.281h0l2.321 2.321h0a.921.921 0 001.282 0h0l4.64-4.64z" fill="#FF1616" stroke="#FF1616" stroke-width=".5"/></svg>