<svg width="42" height="42" fill="none" xmlns="http://www.w3.org/2000/svg"><path d="M9.8 12.6a3.5 3.5 0 100-7 3.5 3.5 0 000 7zm5.947 6.107A6.994 6.994 0 009.8 15.4a6.995 6.995 0 00-5.946 3.306M31.5 32.9a3.5 3.5 0 100-7 3.5 3.5 0 000 7zm5.947 6.106A6.995 6.995 0 0031.5 35.7a6.995 6.995 0 00-5.946 3.306M35 14v1.4a1.4 1.4 0 01-1.4 1.4h-8.137L20.3 19.6v-2.8h-2.8" stroke="#FF1616" stroke-miterlimit="10"/><path d="M3.5 14.7V4.2a1.4 1.4 0 011.4-1.4h28.7A1.4 1.4 0 0135 4.2v8.4M6.3 34.3v1.4a1.4 1.4 0 001.4 1.4h8.137L21 39.71V37.1h2.8m14-2.1V24.5a1.4 1.4 0 00-1.4-1.4H7.7a1.4 1.4 0 00-1.4 1.4v8.4" stroke="#FF1616" stroke-miterlimit="10"/><path d="M18.9 29.4h-1.4v1.4h1.4v-1.4zm3.5 0H21v1.4h1.4v-1.4zm-7 0H14v1.4h1.4v-1.4z" fill="#FF1616"/><path d="M18.9 7.7h7m-7 4.2h12.6m6.3-9.8v7m0 1.4v2.1" stroke="#FF1616" stroke-miterlimit="10"/></svg>