<svg width="37" height="41" fill="none" xmlns="http://www.w3.org/2000/svg"><path d="M27.8 39.6a8.4 8.4 0 100-16.8 8.4 8.4 0 000 16.8z" stroke="#FF1616" stroke-miterlimit="10"/><path d="M25 33.3c0 1.16 1.254 2.1 2.8 2.1 1.546 0 2.8-.94 2.8-2.1 0-1.16-1.254-2.1-2.8-2.1-1.546 0-2.8-.94-2.8-2.1 0-1.16 1.254-2.1 2.8-2.1 1.546 0 2.8.94 2.8 2.1M27.8 27v-2.1m0 12.6v-2.1m-8.4 2.1H5.326a2.1 2.1 0 01-2.054-1.663L.528 22.931a1.267 1.267 0 011.239-1.53H11m1.4-.001h3.408a1.4 1.4 0 001.2-.68l1.286-2.14a1.4 1.4 0 011.2-.68h14.737a1.27 1.27 0 011.243 1.528l-.699 3.372m-4.875-7V1.1H11.7L5.4 7.4v11.9" stroke="#FF1616" stroke-miterlimit="10"/><path d="M11.7 1.1v6.3H5.405m9.095 0h5.6m1.4 0h2.8m-16.1 7h6.3m-6.3-3.5h18.9m-11.2 3.5h1.4" stroke="#FF1616" stroke-miterlimit="10"/></svg>