<svg width="40" height="42" fill="none" xmlns="http://www.w3.org/2000/svg"><path d="M16.5 10.5v3.85a5.25 5.25 0 1010.5 0V8.466A4.266 4.266 0 0022.736 4.2H22.1c-3.5 0-4.9-2.8-4.9-2.8s-2.1 1.4-2.1 3.5 1.4 4.2 4.9 4.2m-3.5 2.1V8.026" stroke="#FF1616" stroke-miterlimit="10"/><path d="M34 42V31.593a7.187 7.187 0 00-3.779-6.328l-5.32-2.865-1.065-3.23M29.1 33.6V42" stroke="#FF1616" stroke-miterlimit="10"/><path d="M24.9 22.4l-3.15 2.1L24.2 28l4.2-3.715" stroke="#FF1616" stroke-miterlimit="10"/><path d="M19.665 19.17l-1.064 3.23 3.15 2.1L19.3 28l-4.2-3.715" stroke="#FF1616" stroke-miterlimit="10"/><path d="M18.6 22.4l-3.5 1.885-7.02-1.493 4.575-6.938a2.1 2.1 0 00-3.436-2.414l-6.93 9.242a2.44 2.44 0 00-.488 1.468c0 .893.294 1.687 1.342 2.17l8.218 3.782a5.222 5.222 0 013.04 4.744V42" stroke="#FF1616" stroke-miterlimit="10"/><path d="M10.928 12.6l-.617-1.233a1.052 1.052 0 01.459-1.405l1.476-.75a1.03 1.03 0 011.39.464l3.103 6.244m.733 1.474l.318.64c.257.515.05 1.145-.46 1.404l-1.476.75a1.03 1.03 0 01-1.389-.464l-1.874-3.77M34.7 12.6v3.5m0 2.8v3.5m4.9-4.9h-3.5m-2.8 0h-3.5M4.6 2.1v2.8m0 2.8v2.8m4.2-4.2H6m-2.8 0H.4" stroke="#FF1616" stroke-miterlimit="10"/></svg>