<svg width="42" height="42" fill="none" xmlns="http://www.w3.org/2000/svg"><g clip-path="url(#clip0_248_1505)"><path d="M10.272 31.294l-1.118 2.734A.703.703 0 009.8 35c.045 0 .09-.004.131-.012l29.4-5.6a.698.698 0 00.307-1.233l-3.502-2.802a.696.696 0 00-.573-.14l-11.849 2.37" stroke="#FF1616" stroke-miterlimit="10"/><path d="M9.121 34.47l.7 2.8a.7.7 0 00.81.517l29.401-5.6a.7.7 0 00.547-.857l-.7-2.8" stroke="#FF1616" stroke-miterlimit="10"/><path d="M1.63 35.296C3.873 37.203 8.117 41.3 14.7 41.3c1.867 0 5.6-.383 5.6-2.1 0-1.466-1.185-2.27-2.1-2.854m-3.445.656l1.748 1.962" stroke="#FF1616" stroke-miterlimit="10"/><path d="M20.046 39.974c2.008-.29 3.754-1.01 3.754-2.174 0-1.433-1.758-2.186-1.758-2.186m-6.761-6.712l-2.153 5.477m16.835-17.543l.42 1.31m-.88-2.746l-.442-1.378.798-1.584a1.75 1.75 0 10-3.242-.645" stroke="#FF1616" stroke-miterlimit="10"/><path d="M35.7 13.3a7 7 0 10-7 7l3.5 2.1.7-3.51a6.98 6.98 0 002.8-5.59zm-8.612-9.368a7 7 0 00-11.72 1.48m19.485 30.612l-8.842 1.685m14.457-2.754l-3.89.74M2.263 26.839C6.244 25.045 10.5 23.8 12.6 23.8c2.1 0 5.478.017 7 .7 1.56.7 4.2 2.217 4.2 3.5 0 .988-.984 1.4-2.1 1.4-3.39 0-3.062-1.4-5.6-1.4-2.797 3.61-7.772 3.525-8.345 3.503" stroke="#FF1616" stroke-miterlimit="10"/><path d="M21 7.7H9.8a1.4 1.4 0 00-1.4 1.4v7a1.4 1.4 0 001.4 1.4h3.5l4.2 2.8v-2.8h2.8" stroke="#FF1616" stroke-miterlimit="10"/><path d="M16.1 11.9h-1.4v1.4h1.4v-1.4zm-2.8 0h-1.4v1.4h1.4v-1.4zm5.6 0h-1.4v1.4h1.4v-1.4z" fill="#FF1616"/></g><defs><clipPath id="clip0_248_1505"><path fill="#fff" d="M0 0h42v42H0z"/></clipPath></defs></svg>