<svg width="34" height="40" fill="none" xmlns="http://www.w3.org/2000/svg"><path d="M22.6 21.1v2.1m-2.1 4.2a1.4 1.4 0 001.4 1.4h1.4a1.4 1.4 0 000-2.8h-1.4a1.4 1.4 0 010-2.8h1.4a1.4 1.4 0 011.4 1.4m-2.1 6.3v-2.1m7.7 4.9v5.6H15.6m-.076-26.6h14.777v16.8m-.001 1.4v1.4" stroke="#FF1616" stroke-miterlimit="10"/><path d="M17.7 28.1V33a2.8 2.8 0 012.8 2.8h4.2a2.8 2.8 0 012.8-2.8V19a2.8 2.8 0 01-2.8-2.8h-4.2a2.8 2.8 0 01-2.8 2.8v4.9m0 1.4v1.4m15.4-6.3v1.4m0 1.4v7.7M.9 21.1V26m0 1.4v1.4M2.3.1v5.6m0 1.4v1.4" stroke="#FF1616" stroke-miterlimit="10"/></svg>