<?xml version="1.0" encoding="utf-8"?><svg xmlns="http://www.w3.org/2000/svg" xmlns:xlink="http://www.w3.org/1999/xlink"><symbol viewBox="0 0 18 54" id="arrow-bot" xmlns="http://www.w3.org/2000/svg"><path d="M9 1v52m0 0l-8-7.429M9 53l8-7.429" stroke-width="2" stroke-linecap="round" stroke-linejoin="round"/></symbol><symbol viewBox="0 0 24 18" id="arrow-left" xmlns="http://www.w3.org/2000/svg"><path d="M23 9H1m0 0l7.428-8M1 9l7.428 8" stroke-width="2" stroke-linecap="round" stroke-linejoin="round"/></symbol><symbol viewBox="0 0 26 11" id="arrow-mini-rigth" xmlns="http://www.w3.org/2000/svg"><path d="M1 5.5h24m0 0L20 1m5 4.5L20 10" stroke-linecap="round" stroke-linejoin="round"/></symbol><symbol viewBox="0 0 26 11" id="arrow-mini-rigth-white" xmlns="http://www.w3.org/2000/svg"><path d="M1 5.5h24m0 0L20 1m5 4.5L20 10" stroke-linecap="round" stroke-linejoin="round"/></symbol><symbol viewBox="0 0 43 26" id="arrow-price" xmlns="http://www.w3.org/2000/svg"><path d="M23.139 24.668l18.69-18.69a2.28 2.28 0 00.671-1.626 2.28 2.28 0 00-.671-1.624L40.453 1.35a2.3 2.3 0 00-3.25 0L21.51 17.046 5.796 1.334A2.282 2.282 0 004.172.663c-.616 0-1.192.239-1.625.67L1.17 2.71A2.281 2.281 0 00.5 4.335c0 .615.238 1.192.671 1.625l18.707 18.708a2.284 2.284 0 001.63.67 2.283 2.283 0 001.63-.67z"/></symbol><symbol viewBox="0 0 54 18" id="arrow-rigth" xmlns="http://www.w3.org/2000/svg"><path d="M1 9h52m0 0l-7.429-8M53 9l-7.429 8" stroke-width="2" stroke-linecap="round" stroke-linejoin="round"/></symbol><symbol viewBox="0 0 18 54" id="arrow-top" xmlns="http://www.w3.org/2000/svg"><path d="M9 53V1m0 0L1 8.429M9 1l8 7.429" stroke-width="2" stroke-linecap="round" stroke-linejoin="round"/></symbol><symbol viewBox="0 0 48 54" id="gift" xmlns="http://www.w3.org/2000/svg"><path d="M5.92 25.987a1.063 1.063 0 00-1.045 1.076v22.312a4.262 4.262 0 004.25 4.25h29.75a4.262 4.262 0 004.25-4.25V27.063a1.062 1.062 0 10-2.125 0v22.312a2.097 2.097 0 01-2.125 2.125H9.125A2.098 2.098 0 017 49.375V27.063a1.063 1.063 0 00-1.08-1.076z"/><path d="M4.875 11.125a4.262 4.262 0 00-4.25 4.25v8.5a4.262 4.262 0 004.25 4.25h15.938a1.063 1.063 0 000-2.125H4.874a2.098 2.098 0 01-2.125-2.125v-8.5c0-1.196.93-2.125 2.125-2.125h38.25c1.196 0 2.125.929 2.125 2.125v8.5A2.096 2.096 0 0143.125 26H27.187a1.062 1.062 0 000 2.125h15.938a4.262 4.262 0 004.25-4.25v-8.5a4.262 4.262 0 00-4.25-4.25H4.875z"/><path d="M18.688.5a6.386 6.386 0 00-6.375 6.375 6.386 6.386 0 006.374 6.375H24a1.063 1.063 0 001.063-1.063V6.875A6.384 6.384 0 0018.688.5zm0 2.125a4.217 4.217 0 014.25 4.25v4.25h-4.25a4.218 4.218 0 01-4.25-4.25 4.218 4.218 0 014.25-4.25z"/><path d="M29.313.5a6.386 6.386 0 00-6.375 6.375v5.313A1.062 1.062 0 0024 13.25h5.313a6.384 6.384 0 006.375-6.375A6.384 6.384 0 0029.311.5zm0 2.125a4.217 4.217 0 014.25 4.25 4.217 4.217 0 01-4.25 4.25h-4.25v-4.25a4.218 4.218 0 014.25-4.25z"/><path d="M20.813 11.125a1.062 1.062 0 00-1.063 1.063v40.374a1.062 1.062 0 001.063 1.063h6.375a1.063 1.063 0 001.062-1.063V12.188a1.062 1.062 0 00-1.063-1.063h-6.375zm1.062 2.125h4.25V51.5h-4.25V13.25z"/><path fill-rule="evenodd" clip-rule="evenodd" d="M10.17 25.987a1.063 1.063 0 00-1.045 1.076v14.862a1.063 1.063 0 002.125 0V27.063a1.061 1.061 0 00-1.08-1.076zm0 19.108a1.063 1.063 0 00-1.045 1.08V48.3a1.063 1.063 0 002.125 0v-2.125a1.063 1.063 0 00-1.08-1.08z"/><path d="M6.921 15.384a2.21 2.21 0 00-1.311.406 1.715 1.715 0 00-.731 1.36v3.139a1.062 1.062 0 102.125 0v-2.78h3.092a1.062 1.062 0 000-2.125H6.92z"/></symbol><symbol viewBox="0 0 226 86" id="help-arrow" xmlns="http://www.w3.org/2000/svg"><path d="M103.214 45.893c-.833.14-1.335.406-1.888.346-20.406 1.649-40.962 1.86-62.086-1.515-9.567-1.534-18.845-4.183-27.951-7.225-2.374-.76-4.97-1.452-7.4-2.08-.884-.187-1.991-.306-2.824-.167-.444.135-1.06.664-1.065 1.122-.005.457.708 1.038 1.205 1.229 22.236 7.938 45 13.322 68.323 13.408 11.966.007 23.824-.18 35.526-1.347 1.221-.144 2.995-.227 3.931.286 12.168 6.67 25.484 9.8 38.872 11.425 20.69 2.596 41.334 4.409 62.03 6.547 1.272.183 2.766.299 4.364 1.066-11.47 5.085-23.048 9.974-34.741 15.127 1.366 1.75 2.803 1.996 4.412 1.849 1.83-.215 3.826-.366 5.605-.907 9.676-3.171 19.351-6.343 28.918-9.709 2.058-.74 3.899-1.87 5.575-3.063 3.185-2.45 2.446-5.645-1.629-7.824a849.405 849.405 0 00-24.129-12.036c-2.369-1.217-4.2-1.002-5.156.315-.735 1.25-.088 2.876 2.223 4.224 4.019 2.311 8.15 4.36 12.665 6.861-.998.076-1.443.211-1.996.152-20.634-2.728-41.324-5.324-62.009-8.377-6.195-.85-12.489-2.812-18.565-4.382-2.43-.629-4.799-1.846-7.777-2.991a45.663 45.663 0 013.392-1.146c7.333-1.775 14.397-4.265 20.587-7.858 5.466-3.258 9.722-7.288 11.945-12.865.631-1.902 1.319-3.934 1.454-6.027.713-9.22-6.677-17.116-18.229-19.415-14.314-3.053-35.304 1.28-41.794 16.703-3.755 8.664-1.47 17.2 5.585 25.426.765.907 1.696 1.877 2.627 2.848zm45.781-21.448c-2.327 4.924-5.802 8.489-10.431 11.15-7.141 4.452-15.591 7.023-24.31 8.877-1.944.477-3.434-.095-5.083-1.189-8.409-5.99-11.946-16.54-8.259-24.157 5.047-10.311 20.965-16.749 35.005-13.953 9.453 1.797 14.758 7.82 13.952 15.473-.238 1.44-.698 2.947-.874 3.799z"/></symbol><symbol viewBox="0 0 517 207" id="help-bg" xmlns="http://www.w3.org/2000/svg"><path d="M24.197 145.309c-.213-.389-.213-.681-.427-.973-14.71-20.536-10.233-40.585 8.102-60.147C45.73 69.493 66.41 57.036 92.206 46.33c46.051-19.367 100.203-31.532 162.029-36.01 45.198-3.308 89.969-2.335 133.888 4.088 25.37 3.699 48.608 9.052 68.862 16.935 20.68 7.98 35.604 17.713 43.918 29.587 1.066 1.362 2.346 2.725 3.625 4.087 11.299 12.263 14.71 25.012 11.086 38.151-4.904 17.519-20.254 32.993-44.345 46.716-1.919 1.168-4.051 2.336-5.756 3.601-36.883 25.888-88.263 42.628-153.715 49.733-76.75 8.273-149.237 3.017-216.394-16.156-28.355-8.078-52.446-18.394-69.928-31.63-30.274-22.872-33.045-46.619-11.086-71.145 13.857-15.572 35.177-28.71 61.614-40.292C118.216 25.6 168.317 13.239 224.174 5.94c30.7-3.99 61.613-6.034 93.166-5.937 19.401 0 38.802.779 57.563 3.601 10.021 1.46 19.401 3.504 27.29 6.618 2.771 1.071 5.116 2.336 7.461 3.504 1.28.681 2.346 1.557.427 2.725-.853-.195-1.919-.292-2.559-.584-10.873-6.326-26.009-9.343-42.426-11.387-18.761-2.238-37.949-2.725-57.349-2.238-79.096 2.044-149.664 14.501-211.065 37.47-30.487 11.484-54.79 25.304-71.42 41.752C12.684 94.019 6.715 107.06 9.06 120.783c1.28 8.175 5.97 15.961 13.218 23.358.213.292.64.584 1.066.779 0 .194.426.194.853.389zm482.676-39.611c-2.558 1.557-2.985 3.309-2.132 5.061-.426.292-1.279.486-1.492.778-.853 1.265-1.28 2.628-1.919 3.991.213 0 .426 0 .639.097.853-1.655 1.706-3.212 2.772-4.866.639-1.655 1.279-3.407 2.132-5.061 0-.973.213-1.849.426-2.725h-1.066c.213.973.427 1.849.64 2.725zM311.372 16.062c-42.639.097-80.801 3.893-117.258 10.997-35.177 6.813-66.304 16.254-92.101 29.198-17.908 9.051-31.979 19.173-40.507 30.755-7.248 9.83-9.807 19.854-6.183 30.17 3.838 11.095 15.137 20.536 32.193 28.614 30.487 14.404 64.385 26.861 101.695 37.372 18.334 5.061 37.309 9.441 57.776 12.263 4.69.584 9.167 1.071 14.071.876 28.355-1.071 55.857-3.893 82.507-8.565 43.278-7.591 81.227-18.881 112.567-34.647 2.772-1.363 5.117-2.92 7.249-4.477 8.528-6.618 15.35-13.528 20.893-20.73 13.218-17.227 19.188-34.842 14.924-53.042-1.279-5.937-4.904-11.387-11.939-16.448-13.858-10.122-31.553-18.492-53.299-25.207-37.949-11.874-80.162-17.13-122.588-17.13zm-102.547 3.796c0-.098-.214-.292-.214-.39-1.705.195-3.411.487-5.116.681-19.401 3.115-37.736 7.008-55.431 11.874-38.589 10.706-70.781 24.331-94.446 41.85-18.122 13.43-28.995 27.932-29.848 43.796-1.066 18.394 10.873 34.647 38.162 48.37 14.072 7.007 30.914 12.458 49.249 16.837 35.39 8.467 73.126 12.555 112.781 13.528 4.264.098 8.314 0 12.578 0-.853-.486-1.919-.681-2.985-.876-8.741-1.557-17.695-2.919-26.01-4.671-51.806-11.29-95.511-27.446-134.313-46.619-6.396-3.114-11.086-6.812-15.35-10.705-13.645-12.945-15.35-26.473-8.528-40.293 7.462-15.28 23.878-28.418 46.69-39.903 28.781-14.696 64.172-24.915 104.253-32.02 2.985-.486 5.756-.973 8.528-1.46zm215.754 152.02c-.213-.194-.639-.389-.853-.583-42.426 14.501-89.755 23.747-142.201 27.153-52.234 3.406-103.187 1.168-152.862-7.299 10.233 2.628 20.893 4.574 31.979 6.326 41.574 6.423 84.213 7.786 127.705 4.866 42.213-2.822 80.375-9.927 114.273-21.898 7.462-2.725 14.497-5.742 21.959-8.565zm83.36-72.117c-.213 0-.213 0 0 0-.213.389-.213.681-.213 1.071h.213v-1.071z"/></symbol><symbol viewBox="0 0 48 38" id="help-hands" xmlns="http://www.w3.org/2000/svg"><path d="M36.6 14.385H25.2v4.038c0 2.863-2.423 5.192-5.4 5.192-2.978 0-5.4-2.329-5.4-5.192v-8.77l-4.868 2.813c-1.447.83-2.332 2.337-2.332 3.952v3.411l-6 3.332c-1.148.635-1.545 2.048-.878 3.151l6 9.996c.66 1.103 2.13 1.478 3.278.843l7.755-4.305H27.6c2.647 0 4.8-2.07 4.8-4.615h1.2c1.327 0 2.4-1.032 2.4-2.308v-4.615h.6c.997 0 1.8-.772 1.8-1.731v-3.462c0-.959-.803-1.73-1.8-1.73zm11.077-2.697l-6-9.996C41.017.59 39.547.214 38.4.85l-7.755 4.305H22.98c-.9 0-1.778.245-2.543.7L17.925 7.36A2.273 2.273 0 0016.8 9.315v9.108c0 1.594 1.342 2.885 3 2.885 1.657 0 3-1.291 3-2.885v-6.346h13.8c2.317 0 4.2 1.81 4.2 4.038v2.056l6-3.332c1.147-.642 1.537-2.048.877-3.152z"/></symbol><symbol viewBox="0 0 32 32" id="icon-map" xmlns="http://www.w3.org/2000/svg"><path d="M7 29h18M16 17a4 4 0 100-8 4 4 0 000 8z" stroke-width="2" stroke-linecap="round" stroke-linejoin="round"/><path d="M26 13c0 9-10 16-10 16S6 22 6 13a10 10 0 1120 0v0z" stroke-width="2" stroke-linecap="round" stroke-linejoin="round"/></symbol><symbol viewBox="0 0 33 29" id="icon-phone" xmlns="http://www.w3.org/2000/svg"><path d="M10.115 14.637c1.345 2.406 3.59 4.348 6.37 5.507a1.483 1.483 0 001.29-.085l4.084-2.364a1.47 1.47 0 011.241-.1l7.645 2.846c.261.094.48.26.621.473.142.212.2.459.163.702-.242 1.639-1.165 3.145-2.596 4.237s-3.273 1.694-5.179 1.694c-5.892 0-11.542-2.028-15.708-5.639C3.88 18.298 1.54 13.401 1.54 8.295c0-1.652.695-3.248 1.955-4.488 1.26-1.24 2.997-2.04 4.889-2.25.28-.032.565.018.81.14.245.123.437.313.545.539l3.284 6.64a1 1 0 01-.099 1.061l-2.727 3.596a1.004 1.004 0 00-.082 1.104v0z" stroke-width="2" stroke-linecap="round" stroke-linejoin="round"/></symbol><symbol viewBox="0 0 64 64" id="icon-phone-2" xmlns="http://www.w3.org/2000/svg"><path d="M36.853 19.625c2.195.512 4.196 1.517 5.803 2.914 1.606 1.397 2.762 3.137 3.351 5.045M35.51 23.97c1.32.305 2.524.908 3.49 1.747.965.84 1.659 1.887 2.01 3.035M26.117 31.637c1.345 2.406 3.59 4.347 6.37 5.507a1.483 1.483 0 001.29-.085l4.084-2.364a1.47 1.47 0 011.241-.1l7.645 2.846c.261.094.48.26.621.472.142.213.199.46.163.703-.242 1.639-1.165 3.145-2.596 4.237s-3.273 1.694-5.18 1.694c-5.89 0-11.541-2.028-15.707-5.639-4.166-3.61-6.506-8.507-6.506-13.613 0-1.653.695-3.248 1.955-4.488 1.26-1.24 2.997-2.04 4.889-2.25.28-.032.565.018.81.14.245.123.436.313.545.539l3.283 6.64a.999.999 0 01-.098 1.061L26.2 30.533a1.004 1.004 0 00-.082 1.104v0z" stroke-width="2" stroke-linecap="round" stroke-linejoin="round"/></symbol><symbol viewBox="0 0 33 29" id="icon-phone-trans" xmlns="http://www.w3.org/2000/svg"><path d="M10.114 14.637c1.345 2.406 3.59 4.348 6.37 5.507a1.483 1.483 0 001.291-.085l4.084-2.364a1.47 1.47 0 011.241-.1l7.644 2.846c.262.094.48.26.622.473.141.212.199.459.163.702-.243 1.639-1.166 3.145-2.597 4.237-1.43 1.092-3.272 1.694-5.178 1.694-5.892 0-11.543-2.028-15.708-5.639-4.166-3.61-6.507-8.507-6.507-13.613 0-1.652.696-3.248 1.955-4.488 1.26-1.24 2.998-2.04 4.89-2.25.28-.032.564.018.81.14.244.123.436.313.545.539l3.283 6.64a1 1 0 01-.098 1.061l-2.728 3.596a1.004 1.004 0 00-.082 1.104v0z" stroke-width="2" stroke-linecap="round" stroke-linejoin="round"/></symbol><symbol viewBox="0 0 65 65" id="icon-play" xmlns="http://www.w3.org/2000/svg"><g opacity=".9"><circle cx="32.148" cy="32.143" r="28" stroke-width="8"/><path d="M45.16 32.472a.5.5 0 010 .866L24.873 45.05a.5.5 0 01-.75-.433V21.193a.5.5 0 01.75-.433l20.285 11.712z" stroke-width="3"/></g></symbol><symbol viewBox="0 0 36 30" id="icon-telegram" xmlns="http://www.w3.org/2000/svg"><path d="M35.4 2.704L30.118 27.61c-.398 1.757-1.437 2.195-2.913 1.367l-8.048-5.93-3.883 3.735c-.43.43-.788.79-1.617.79l.579-8.196L29.149 5.9c.65-.578-.14-.899-1.007-.32L9.704 17.19l-7.937-2.485c-1.726-.539-1.758-1.726.36-2.555L33.173.189c1.438-.54 2.695.32 2.227 2.516v-.001z"/></symbol><symbol viewBox="0 0 32 32" id="icon-time" xmlns="http://www.w3.org/2000/svg"><path d="M16 28c6.627 0 12-5.373 12-12S22.627 4 16 4 4 9.373 4 16s5.373 12 12 12z" stroke-width="2" stroke-miterlimit="10"/><path d="M16 9v7h7" stroke-width="2" stroke-linecap="round" stroke-linejoin="round"/></symbol><symbol viewBox="0 0 38 40" id="icon-viber" xmlns="http://www.w3.org/2000/svg"><path d="M17.997.006c-3.21.039-10.11.566-13.97 4.107C1.154 6.958.152 11.165.034 16.366-.062 21.548-.18 31.28 9.201 33.93v4.036s-.058 1.615 1.009 1.946c1.315.417 2.064-.826 3.314-2.16l2.331-2.637c6.419.534 11.335-.696 11.901-.879 1.303-.416 8.639-1.354 9.838-11.087 1.23-10.053-.599-16.387-3.9-19.252h-.02c-.996-.917-5-3.835-13.945-3.867 0 0-.664-.045-1.732-.026zm.11 2.826c.912-.006 1.466.033 1.466.033 7.57.02 11.184 2.298 12.037 3.066 2.78 2.382 4.212 8.092 3.164 16.485-.996 8.137-6.947 8.652-8.048 9.004-.468.15-4.799 1.217-10.253.866 0 0-4.063 4.902-5.333 6.165-.201.221-.436.286-.586.254-.215-.053-.28-.32-.268-.684l.039-6.699c-7.956-2.2-7.487-10.501-7.402-14.837.097-4.337.91-7.884 3.333-10.287 3.262-2.948 9.122-3.346 11.849-3.366h.003zm.6 4.335a.496.496 0 00-.5.495c0 .28.227.501.5.501a9.391 9.391 0 016.72 2.65c1.816 1.764 2.7 4.134 2.734 7.233 0 .274.221.501.502.501v-.02a.5.5 0 00.5-.495 10.767 10.767 0 00-3.02-7.936c-1.98-1.934-4.487-2.93-7.436-2.93v.001zM12.12 8.313a1.565 1.565 0 00-1.023.202h-.026a7.845 7.845 0 00-1.907 1.568c-.457.528-.704 1.062-.77 1.575-.038.307-.012.613.08.905l.032.02a22.533 22.533 0 002.005 4.33 25.472 25.472 0 003.867 5.287l.045.065.072.052.045.053.052.045a25.836 25.836 0 005.3 3.886c2.2 1.197 3.535 1.764 4.337 1.999v.012c.234.071.448.104.663.104a3.064 3.064 0 001.837-.788 7.58 7.58 0 001.55-1.913v-.013c.383-.722.253-1.406-.3-1.869a23.08 23.08 0 00-3.582-2.57c-.852-.463-1.719-.183-2.07.285l-.748.944c-.384.469-1.082.404-1.082.404l-.02.012c-5.201-1.328-6.588-6.595-6.588-6.595s-.066-.716.416-1.08l.937-.756c.449-.365.762-1.23.28-2.084a22.495 22.495 0 00-2.565-3.58 1.425 1.425 0 00-.84-.502l.003.002zm7.454 1.485c-.664 0-.664 1.003.006 1.003a6.283 6.283 0 014.413 1.914 5.827 5.827 0 011.498 4.283.504.504 0 00.501.495l.02.027a.505.505 0 00.502-.502c.044-1.986-.573-3.652-1.784-4.987-1.218-1.335-2.916-2.084-5.085-2.233h-.071zm.82 2.695c-.683-.02-.71 1.003-.032 1.023 1.648.085 2.448.917 2.553 2.63a.497.497 0 00.495.489h.02a.504.504 0 00.481-.534c-.117-2.233-1.335-3.49-3.496-3.606h-.02v-.002z"/></symbol><symbol viewBox="0 0 40 40" id="icon-whats" xmlns="http://www.w3.org/2000/svg"><path d="M29.16 23.971c-.501-.253-2.942-1.445-3.399-1.615-.456-.162-.787-.247-1.12.254-.325.489-1.282 1.608-1.575 1.934-.292.326-.58.351-1.073.13-.502-.254-2.103-.775-4.004-2.48-1.485-1.322-2.474-2.949-2.768-3.45-.292-.495-.032-.775.215-1.023.228-.227.502-.572.755-.872.242-.3.319-.502.495-.826.163-.352.079-.625-.045-.873-.123-.248-1.12-2.701-1.536-3.679-.398-.97-.814-.846-1.12-.846-.286-.026-.619-.026-.95-.026-.331 0-.873.123-1.329.598-.456.502-1.745 1.7-1.745 4.122 0 2.428 1.784 4.778 2.031 5.13.254.325 3.51 5.325 8.503 7.473 1.191.502 2.116.802 2.839 1.05 1.191.377 2.279.324 3.137.2.95-.156 2.943-1.204 3.36-2.376.424-1.178.424-2.155.3-2.376-.123-.228-.448-.351-.95-.573l-.021.124zM20.104 36.25h-.026c-2.957 0-5.88-.801-8.432-2.299l-.599-.357-6.25 1.627 1.68-6.081-.403-.625a16.458 16.458 0 01-2.526-8.762c0-9.075 7.428-16.478 16.568-16.478 4.428 0 8.582 1.725 11.707 4.85a16.322 16.322 0 014.85 11.654C36.66 28.848 29.236 36.25 20.11 36.25h-.006zM34.199 5.749C30.396 2.076 25.396 0 20.078 0 9.107 0 .175 8.894.168 19.824c0 3.49.912 6.895 2.657 9.909L0 40l10.56-2.754a20.163 20.163 0 009.519 2.415h.006c10.976 0 19.909-8.894 19.915-19.831a19.641 19.641 0 00-5.826-14.017l.025-.064z"/></symbol><symbol viewBox="0 0 12 10" id="list-check" xmlns="http://www.w3.org/2000/svg"><path d="M1 5.5L4.043 9 11 1" stroke-linecap="round" stroke-linejoin="round"/></symbol><symbol viewBox="0 0 179 55" id="logo" xmlns="http://www.w3.org/2000/svg"><path d="M76.117 17.744c-1.365.317-20.653-.477-22.398-.51-7.5-.14-15.004-.257-22.498-.492-3.882-.12-7.765.297-11.632.593-3.54.272-7.636.026-10.93 1.415-2.055.866-5.828 6.335-8.33 3.384-1.07-1.262.797-3.177.972-4.247.038-.228-.496-.34-.495-.47.008-1.14-.085-2.352-.085-3.506 7.784 2.542 17.252 1.935 25.287.211C35.303 12.127 42.64 5.366 51.95 3.071 60.584.936 69.86.85 78.713.602 83.808.462 88.91.486 94.004.558c.568.007 11.598.114 10.635 1.999-.305.595-4.851-.018-6.515-.202-2.139-.237-6.179-.247-9.345-.237-5.906.017-12.66-.668-18.383 1.015-2.815.826-5.333 2.21-7.896 3.782-1.465.898-5.918 3.257-6.475 4.744-.785 2.1 3.021 2.53 4.456 2.812M89.252 32.158h-8.5v21.428c0 .555-.36.913-.926.914h-4.675a.874.874 0 01-.598-.255.854.854 0 01-.251-.592v-26.44a.848.848 0 01.252-.588.868.868 0 01.596-.25h19.709a.846.846 0 01.584.24.825.825 0 01.249.575v26.475a.837.837 0 01-.254.592.858.858 0 01-.603.243H90.12a.852.852 0 01-.62-.242.833.833 0 01-.25-.611v-21.49h.002zM34.628 42.97v10.609c0 .534-.369.904-.903.904h-4.734c-.44 0-.846-.393-.846-.817V27.183c0-.403.407-.799.82-.8h4.806c.225.004.44.092.6.248.16.155.251.366.256.587v10.789l.08.058c.14-.127.311-.232.412-.384 1.94-2.906 3.877-5.815 5.808-8.728.513-.772 1.03-1.542 1.535-2.32a.475.475 0 01.461-.252c1.952.009 3.904.017 5.856-.006.362-.004.407.23.517.433.111.203.256.364.063.635-2.603 3.665-5.188 7.345-7.808 11.001-.25.35-.695.568-1.054.84-.19.142-.389.276-.63.445.447.306.877.581 1.285.885.222.159.419.348.584.564 2.93 4.048 5.857 8.098 8.78 12.15.185.254.187.443.035.697-.152.253-.24.48-.647.475-2.06-.03-4.12-.02-6.18-.007-.273 0-.434-.083-.587-.303-2.549-3.63-5.111-7.253-7.654-10.888-.215-.314-.437-.447-.855-.332zM105.3 32.147c-.007.136-.014.229-.015.322v4.925h8.663c.554 0 .877.34.878.917v4.015a.854.854 0 01-.241.591.812.812 0 01-.578.247H105.3v5.555h9.785c.513 0 .87.369.871.898v4.05c0 .432-.382.833-.797.833h-15.28c-.42 0-.81-.393-.81-.819v-26.51c0-.404.39-.796.79-.796h15.108c.21.007.41.096.558.25a.85.85 0 01.236.575v4.122c0 .43-.379.822-.795.822H105.3v.003zM18.28 42.795H8.674c-.517 0-.893-.35-.893-.83V38.51c0-.48.378-.833.894-.833h9.622c-.144-.552-.24-1.073-.41-1.573-.844-2.462-2.79-3.914-5.506-4.126-2.307-.18-4.509.197-6.593 1.162-.337.157-.962-.112-1.055-.46-.373-1.4-.74-2.804-1.116-4.203-.055-.201 0-.298.199-.392 2.272-1.067 4.691-1.573 7.204-1.69 2.052-.095 4.072.126 6.022.763 3.126 1.02 5.176 3.105 6.421 5.963.808 1.854 1.152 3.799 1.255 5.79.133 2.483.031 4.95-.777 7.336-1.467 4.331-4.533 7.01-9.26 7.886-3.532.653-7.01.445-10.406-.73-.258-.09-.504-.205-.758-.31a1.094 1.094 0 01-.14-.087c.305-.958.609-1.915.912-2.873.183-.577.365-1.155.552-1.731.104-.324.687-.585 1.015-.458 2.083.81 4.341 1.13 6.582.931 2.725-.222 4.807-1.92 5.553-4.548.122-.428.195-.867.288-1.3a1.299 1.299 0 00.001-.233zM120.46 27.082c.79-.127 1.56-.304 2.337-.366 1.859-.15 3.721-.324 5.583-.34 1.956-.017 3.918.14 5.775.87 3.256 1.274 5.081 3.683 5.381 7.27.148 1.753.057 3.486-.606 5.13-1.131 2.799-3.226 4.47-6.024 5.28-1.989.575-4.021.588-6.062.468l-.247-.014c-.007.152-.02.298-.02.444v7.783c0 .552-.342.892-.884.893h-4.442a.793.793 0 01-.554-.24.835.835 0 01-.238-.566V27.082h.001zm6.137 4.95v7.743a.994.994 0 00.179.031c1.045-.025 2.096.02 3.13-.097 1.222-.14 2.311-.65 2.87-1.864.25-.544.371-1.177.431-1.781.21-2.116-.911-3.594-2.938-3.982-1.211-.232-2.42-.182-3.672-.05z"/><path d="M94.566 4.515c2.625-.561 9.728-1.435 13.102.87 3.798 2.591 6.893 7.098 11.033 9.12 3.453 1.685 9.125 1.288 12.918 1.409 4.922.156 9.677.179 14.529.38 8.95.37 17.98.622 26.752 2.597 1.838.414 5.061.789 5.891 2.794.84 2.036-1.064 4.503-1.933 6.202-2.24 4.375-4.464 8.757-6.738 13.113-.359-4.419 2.87-9.297 4.059-13.444 1.557-5.412-3.709-5.649-7.913-6.508-9.313-1.903-18.94-1.747-28.397-1.919-4.437-.08-8.259-.07-12.696-.156-1.979-.039-4.853.005-6.796-.357-2.145-.4-3.094-1.528-4.68-3.015-3.22-3.02-6.417-6.09-9.721-9.015-1.652-1.461-2.559-1.558-4.81-1.78-.455-.048-4.6-.29-4.6-.29zM70.613 27.584l-.817 3.584c-.048.21-.139.42-.14.631 0 .502-.344.667-.714.814a.311.311 0 01-.216.005c-1.162-.51-2.394-.611-3.636-.669-.978-.045-1.945-.021-2.88.308-1.757.62-2.899 1.875-3.514 3.638-.622 1.779-.726 3.626-.625 5.495.075 1.398.311 2.762.921 4.03 1.077 2.237 2.876 3.353 5.288 3.463 1.643.074 3.227-.185 4.686-1.022.257-.147.869.145.94.441.335 1.346.657 2.695 1 4.037.05.205 0 .303-.155.419-1.086.799-2.321 1.2-3.621 1.43-2.12.375-4.24.455-6.36 0-4.162-.88-6.749-3.536-8.106-7.557-.742-2.195-.915-4.473-.872-6.774.042-2.072.302-4.11 1.073-6.048 1.13-2.834 2.943-5.038 5.714-6.317 1.788-.824 3.684-1.146 5.642-1.115 1.958.03 3.897.264 5.757.951.203.073.397.159.635.256z"/><path d="M148.77 32.144h-7.205a.863.863 0 01-.585-.242.836.836 0 01-.256-.572v-4.157a.828.828 0 01.249-.556.858.858 0 01.567-.242h20.888c.423 0 .811.384.811.803v4.123a.831.831 0 01-.246.594.86.86 0 01-.6.25h-7.163v21.393c0 .64-.333.962-.985.962h-4.581c-.526 0-.894-.355-.894-.869V32.144z"/></symbol><symbol viewBox="0 0 24 24" id="smile" xmlns="http://www.w3.org/2000/svg"><path d="M18.31 14.23a.748.748 0 00-.99.38c-.015.033-1.55 3.38-5.377 3.425h-.07c-3.602 0-5.155-3.29-5.22-3.431a.751.751 0 00-1.366.62c.08.178 2.001 4.311 6.583 4.311h.09c4.778-.057 6.653-4.14 6.73-4.315a.749.749 0 00-.38-.99zM12 0C5.372 0 0 5.372 0 12s5.372 12 12 12 12-5.372 12-12S18.628 0 12 0zm0 22.5C6.21 22.5 1.5 17.79 1.5 12S6.21 1.5 12 1.5 22.5 6.21 22.5 12 17.79 22.5 12 22.5zM8.238 11.246a1.496 1.496 0 100-2.993 1.496 1.496 0 000 2.993zm7.5 0a1.496 1.496 0 100-2.992 1.496 1.496 0 000 2.992z"/></symbol><symbol viewBox="0 0 24 24" id="smile-white" xmlns="http://www.w3.org/2000/svg"><path d="M18.31 14.23a.748.748 0 00-.99.38c-.015.033-1.55 3.38-5.377 3.425h-.07c-3.602 0-5.155-3.29-5.22-3.431a.751.751 0 00-1.366.62c.08.178 2.001 4.311 6.583 4.311h.09c4.778-.057 6.653-4.14 6.73-4.315a.749.749 0 00-.38-.99zM12 0C5.372 0 0 5.372 0 12s5.372 12 12 12 12-5.372 12-12S18.628 0 12 0zm0 22.5C6.21 22.5 1.5 17.79 1.5 12S6.21 1.5 12 1.5 22.5 6.21 22.5 12 17.79 22.5 12 22.5zM8.238 11.246a1.496 1.496 0 100-2.993 1.496 1.496 0 000 2.993zm7.5 0a1.496 1.496 0 100-2.992 1.496 1.496 0 000 2.992z"/></symbol><symbol viewBox="0 0 306 30" id="title-check" xmlns="http://www.w3.org/2000/svg"><path d="M291.721 10.472c-.988.077-1.38-.017-1.777.067-17.459 3.968-36.064 6.496-54.479 9.294-19.009 2.88-38.018 5.759-57.791 7.648-11.069.93-22.136 1.77-33.371 1.45-3.35-.132-6.894-.355-10.232-.932-6.679-1.065-9.371-3.773-6.73-6.77 1.018-1.235 2.625-2.374 4.624-3.418 3.001-1.656 6.392-3.128 9.588-4.692 1.598-.782 3.196-1.564 4.599-2.438 2.609-1.75 1.857-3.185-1.86-4.391s-8.043-1.706-12.376-1.94c-6.306-.257-12.235.202-18.17.93-13.06 1.617-25.546 3.955-37.067 7.107-4.766 1.277-63.53 15.465-68.295 16.652-1.589.426-3.567.668-5.344.735-.988.076-2.752-.392-2.94-.75-.383-.45.424-1.154.833-1.683.201-.176.795-.258 1.192-.342C9.477 24.864 71.03 9.642 78.972 7.603a246.226 246.226 0 0142.988-7.3c7.312-.532 14.607-.44 21.476.895 3.142.575 6.276 1.417 8.814 2.43 5.856 2.39 6.952 5.792 2.931 8.772-2.011 1.49-4.805 2.791-7.403 4.095-3.001 1.656-6.197 3.22-9.196 4.787-.8.435-1.213 1.143-1.818 1.67 1.949.916 4.32.768 6.486.884 12.026.242 23.879-.5 35.554-1.956 24.14-2.993 48.088-6.167 72.033-9.25 9.302-1.22 18.601-2.35 28.694-3.65-1.374-.284-2.158-.472-3.139-.663-3.733-.582-7.468-1.075-11.198-1.746-1.571-.287-3.139-.663-4.506-1.216-1.563-.554-2.132-1.453-.931-2.15.803-.525 2.389-.862 3.774-1.023 1.385-.16 2.761.035 4.136.231 10.813 1.385 21.628 2.68 32.439 4.154 5.502.783 7.424 2.768 4.604 5.05-1.412 1.23-3.416 2.452-5.805 3.314-8.371 3.37-17.133 6.647-25.894 9.834-1.593.604-3.776 1.11-5.757 1.442-2.375.327-3.934-.406-2.726-1.371 1.612-1.317 3.423-2.72 5.819-3.849 5.392-2.606 10.977-5.03 16.367-7.548 1.399-.695 2.795-1.301 4.193-1.997.007-.267.211-.532.814-.97z"/></symbol><symbol viewBox="0 0 60 57" id="title-client-1" xmlns="http://www.w3.org/2000/svg"><path fill-rule="evenodd" clip-rule="evenodd" d="M54.096 35.704l-.914.044-.243-.221c-.578 0-1.136.008-1.693 0-.47-.006-.942-.056-1.41-.037-.523.021-1.042-.018-1.57.028-.476.042-.974.224-1.445.09-.548-.157-1.038.148-1.57.094-.492-.05-.993-.008-1.489-.006l.009.179c-1.476.199-2.963.361-4.42 1.017l-.327-.129-.02.301c-.809.291-1.615.639-2.43.904-1.004.327-1.919.884-2.984 1.061-.535.09-1.073.36-1.522.673-.274.192-.387.002-.596-.024l-.08.418-1.983.713-.041-.455c-.338-.043-.662-.351-1.22.087.144-.334.232-.54.34-.795l-.83.07c-.03.146-.056.284-.085.434l-.625.205c-.058-.074-.15-.143-.14-.184.081-.303.184-.6.279-.898-.33-.434-.649-.013-.97.002l-.011-.256-.458-.128.143-1.084c.58-.74 1.318-1.538 1.873-2.448.288-.47.755-.854.902-1.332.182-.595.75-.838.937-1.332.206-.544.693-.867.91-1.342.237-.52.703-.86.92-1.334.519-1.128 1.424-2.038 1.775-3.249.441-.28.456-.947 1.02-1.115.108-.607.449-1.103.757-1.617.435-.727.625-1.582 1.21-2.237.165-.186.187-.498.33-.912l-2.744 1.677-.772-.05-.374.756c-.979.487-1.838 1.377-3.068 1.466.08.54-.49.685-.653 1.036-1.27.476-2.19 1.386-3.371 2.167h-.389c-.467.235-.63.787-1.2.941-.414.112-.82.484-1.087.845-.324.442-.79.733-1.21.888-.524.192-.7.64-1.14.924h-.578c-.68.9-1.608 1.59-2.468 2.398l-.597-.054-.783.857-.066-.533c-.35.467-.803.504-1.331.44-.038-.115-.08-.248-.118-.361l-2.42.078-.45-.728.124-.414-.196-.178-.413.228c-.528-.414-.588-1.005-.586-1.61.29-.449.29-.449.046-1.155l-.125.536-.346-.183.406-.605-.308-.022-.448-2.157.34-.373-.413-.014.179-.407-.355-.323-.022-.51c.317-.043.616-.31.961-.078-.129-.607-.604-.41-1.073-.437l.355-.464c-.154-.521-.197-1.068-.657-1.513-.385-.371-.222-.94-.024-1.478l-.406-.041.324-.532-.307-.21c-.077-.357-.093-.896-.312-1.334-.312-.624.008-1.296-.322-1.93-.29-.556-.404-1.207-.466-1.87-.085-.906-.385-1.79-.608-2.75l-.419.46.2.485-.559.155c-.07.325-.178.665-.206 1.012-.023.29-.28.602.03.883-.373.24-.294.626-.281.977l-.241.01c.04 1.289-.288 2.505-.707 3.707l.085 1.235-.253.277c-.073.61-.137 1.14-.208 1.744l-.679-.153-.23 1.023.723.394-.38 2.477c-.256-.37-.188-.616-.227-.867-.504.144-.214.545-.28.816l-.553.112.343.526-.24.015.51.108-.245.852-.37.041v.347l.809.501-.634 3-.13.005c-.023-.105-.046-.21-.1-.472l-.858 1.372c-.408-.198-.784-.38-1.33-.647L0 34.294c.222-1.338.143-2.623.154-3.89.015-1.753.359-3.456.484-5.189.13-1.803.5-3.59.76-5.386.149-1.023.265-2.05.433-3.07.237-1.43.452-2.868.79-4.275.148-.62.063-1.259.337-1.88.235-.532.195-1.188.27-1.79.191-1.537.428-3.067.445-4.625.01-1.015.155-2.028.252-3.19L4.838 0c.25.213.596.357.619.865L6.09.31c1.051.225 1.853.83 2.616 1.72l-.103.865c-.022.059-.13.35-.262.699l.857.356c.098.496.23.986.282 1.485.045.424.5.814-.036 1.285l.452-.02c-.205.523.496.984.018 1.52l.388.448-.157.277c.65 1.284.783 2.715 1.019 4.146.061.056.193.118.22.211.112.375.357.82.245 1.126-.184.495.375.97-.098 1.414l.56.574-.168.41c.093.094.196.197.353.358l.026 1.31a233.29 233.29 0 01-.647-.2l.23.93c.13.025.261.049.47.086-.043.206-.123.396-.106.578.014.159.138.308.213.459l.492.067-.149.703-.498.309.34.309c-.108.423-.187.718.11 1.132.503.703.695 1.593.996 2.411.046.126-.077.313-.122.47l.21.01c.06.484.18.928.15 1.363-.028.442-.203.874-.343 1.421.115.241.324.11.645-.428l-.057.883-.591.227.763.294.07.367c.145-.012.398.037.46-.05.3-.422.746-.543 1.151-.686.398-.758 1.227-.986 1.81-1.496.64-.562 1.322-1.1 2.057-1.524.704-.407 1.435-.803 2.019-1.335.62-.565 1.357-.926 2.003-1.435.658-.52 1.397-.949 2.14-1.346.715-.382 1.318-.923 2.047-1.299.74-.381 1.477-.833 2.142-1.335.66-.498 1.42-.776 2.093-1.225a31.428 31.428 0 012.069-1.258c.73-.41 1.488-.77 2.228-1.165.71-.378 1.414-.771 2.18-1.19l1.024-.047.032.304c.335.352.613.041.859-.04l1.24.771.022.27c.794.009.896.647.997 1.192.102.552.068 1.128.096 1.732-.623.908-.608 2.203-1.695 2.896l.267.366-1.206 1.85.134.223c-.295.582-.568 1.154-.875 1.707-.121.218-.286.5-.49.564-.519.161-.781.451-.895.98-.053.242-.304.441-.345.757l.6-.655c.056.139.11.227.095.24-.44.402-.642.957-.87 1.47-.192.432-.473.858-.828.975-.461.152-.575.542-1.089.826l.452.053c-.134.786-.234 1.074-.782 1.288-.44.17-.556.54-.752.894l.849-.74-1.022 1.738c1.805-.777 3.542-1.009 5.233-1.427 1.723-.425 2.648-.51 4.115-.402.266.019.542-.131.814-.132.47 0 .943.095 1.412.076.43-.018.858-.201 1.285-.195 1.131.018 2.254.224 3.393.166.111-.005.232.168.362.269.181-.052.388-.177.576-.153.915.121 1.84.221 2.732.448.709.18 1.43.302 2.138.543.698.237 1.244.672 1.868.983.645.322 1.068.965 1.376 1.701-1.048.126-.911 1.269-1.49 1.832l.833-.782.126.13-.505.554c-.153.167-.31.332-.458.502-.167.192-.412.348-.317.664-.341-.121-.236.344-.44.35-.369.008-.035.476-.382.52-.192.024-.383.178-.54.313-.194.167-.353.375-.51.547l-.515-.219.255.466-.302.393-.998.046-.304.37.232.445-.515-.155-.167.183.199.483c-.596.338-1.23.582-1.697 1.119-.212.242-.608.326-.954.499l-.013.162-1.648 1.054.041-.723c-.28.233-.421.428-.567.798-.035.007-.07.017-.106.02-.075.006-.15.008-.24.012.007.074.016.148.02.222.002.036-.003.073-.006.112l-.91.515-.735-.671-.159.063.146.564.557.134-1.172.782-.308-.178c-.099.682-.614.781-1.146.874-.17.03-.34.098-.49.184-.334.194-.655.411-1.048.662a62.663 62.663 0 00-.301-.146l-.54.676c.084-.011-.027-.024-.107.019-.646.347-1.25.77-1.927 1.065-.064.028-.104.106-.164.146-.393.26-.966.015-1.293.442-.29.377-.766.343-1.131.552-.393.226-.807.415-1.215.612-.126.062-.278.077-.39.155-.12.084-.207.217-.355.379l-.564-.052-.518.567c-.658.014-1.324.018-1.791.609-.042.053-.116.115-.173.114-.977-.016-1.664.735-2.569.953-.872.21-1.67.71-2.53.996-1.14.38-2.305.679-3.46 1.006a.683.683 0 01-.338.015c-.985-.245-1.968-.5-2.859-.729l-.975-1.31.171-.887c.582-.29 1.132-.599 1.71-.84.582-.244 1.18-.466 1.791-.617 1.337-.333 2.564-.955 3.863-1.381.768-.252 1.463-.733 2.306-.754 1.158-.746 2.47-1.143 3.719-1.686.54-.236 1.12-.392 1.63-.719.468-.301.983-.528 1.477-.79 1.544-.818 3.09-1.628 4.628-2.457.8-.432 1.593-.882 2.373-1.35.785-.472 1.534-1.035 2.323-1.462 1.384-.75 2.502-1.844 3.844-2.637.709-.418 1.277-1.087 1.871-1.68.58-.578 1.111-1.203 1.823-1.982z"/></symbol><symbol viewBox="0 0 333 21" id="title-client-2" xmlns="http://www.w3.org/2000/svg"><path d="M276.969 2.463c-2.72.131-5.274.208-8.201.295l-1.535.046c-36.052 1.13-72.002 2.27-107.952 3.411-35.951 1.14-71.903 2.281-107.956 3.41-1.864.057-3.744.12-5.634.181-5.397.177-10.881.357-16.338.43-3.366.034-6.732.067-10.05-.094-5.41-.19-9.043-.788-9.624-1.856-.4-.947 2.062-1.581 6.977-1.948 2.776-.198 5.552-.397 8.509-.475 2.82-.094 5.62-.2 8.421-.307 5.601-.213 11.202-.426 16.964-.533l28.998-.617h.012c44.851-.958 89.517-1.912 134.428-2.703 11.897-.154 23.865-.143 35.783-.132 4.53.005 9.053.009 13.563.004 4.412-.02 9.185.2 13.958.421-.228.076-.275.271-.323.467zM332.677 12.468c-.841.008-1.74.036-2.638.063-.899.027-1.797.054-2.639.063-85.837 1.545-170.634 4.131-255.271 6.713h-.025c-11.784.36-23.564.72-35.343 1.076-2.184.063-4.393.134-6.602.204-4.418.142-8.836.284-13.05.359-.592.006-1.19.014-1.79.022-2.823.04-5.713.079-8.26-.117-2.863-.313-6.495-.91-6.99-1.467-.495-.556 1.786-1.31 3.791-1.794 1.473-.338 3.912-.502 6.285-.66.49-.034.978-.066 1.454-.1 5.733-.277 11.466-.554 17.38-.711 77.972-2.22 156.667-3.96 235.896-4.436 13.445-.085 26.951-.027 40.616.031 6.627.028 13.293.057 20.007.07 1.819-.003 3.436.063 5.052.128.808.032 1.616.065 2.45.09-.334.11-.327.204-.317.323.003.043.007.09-.006.143z"/></symbol><symbol viewBox="0 0 202 142" id="title-consulting" xmlns="http://www.w3.org/2000/svg"><g clip-path="url(#clip0_232_1318)"><path d="M136.617 10.683c-.953-1.732-1.877-3.417-3.01-5.466l-3.419 5.47c-1.31 2.096-2.564 4.198-3.853 6.307-.472.754-.873 1.582-1.365 2.324-1.886 2.785-3.772 5.57-5.665 8.321-1.598 2.324-3.217 4.636-4.793 6.973-.341.545-.611 1.163-.915 1.789 1.32.912 2.523 1.78 3.905 2.732-.01-.357.014-.487-.01-.59-.55-1.771.044-2.07 1.928-2.293.539-.07 1.093-.074 1.784-.109-.614 1.307-2.054.728-2.921 1.556.219.72.242 1.754.757 2.28.909.918 2.062 1.725 3.293 2.174.962.368 1.905-.442 2.659-1.136-.29-.793-.627-1.557-.231-2.33.102-.024.191-.027.293-.05.269.78.626 1.557.78 2.381.057.328-.307.77-.6 1.053-.367.354-.845.609-1.403.99l2.991 1.868c2.07 1.294 4.132 2.553 6.19 3.868 1.756 1.097 3.461 2.279 5.217 3.377l10.289 6.429a224.157 224.157 0 006.047 3.633c1.929 1.147 3.958 2.181 5.822 3.433 2.875 1.914 5.632 4.016 8.495 5.95 1.333.891 2.792 1.628 4.224 2.406.918.487 2.205.708 2.732 1.445.75 1.08 2.024 1.323 2.776 2.26.107.154.232.465.133.578-.092.147-.411.239-.584.189a3.173 3.173 0 01-.972-.491c-2.604-1.744-5.215-3.521-7.832-5.244-1.283-.83-2.645-1.536-3.929-2.367-3.801-2.433-7.549-4.95-11.389-7.321-3.715-2.292-7.547-4.396-11.288-6.646-1.916-1.168-3.741-2.483-5.617-3.714-2.351-1.497-4.766-2.89-7.03-4.48-1.069-.755-2.319-1.128-3.388-1.883-1.09-.769-2.358-1.3-3.56-1.934l-.168-.105c-2.572-2.073-5.596-3.468-8.242-5.47-.713-.534-1.401-1.109-2.101-1.663-.463-.377-.596-.722-.237-1.343.81-1.388 1.381-2.955 2.275-4.291.998-1.504 2.267-2.838 3.349-4.29 1.398-1.866 2.776-3.744 4.028-5.701 2.198-3.378 4.555-6.685 6.308-10.281 1.488-3.034 3.675-5.602 5.234-8.562.636-1.206.72-1.153 1.917-.463 2.374 1.366 4.808 2.683 7.129 4.134 2.071 1.293 4.062 2.713 6.059 4.077 1.467 1.004 2.941 2.042 4.434 3.004 1.15.718 2.379 1.311 3.542 2.01 3.971 2.393 7.921 4.774 11.879 7.189.522.326 1.014.75 1.523 1.097.23.144.458.432.649.405 1.14-.103 1.775.79 2.591 1.299.481.3.988.56 1.422.889.684.486 1.291 1.098 2.01 1.576.606.379 1.278.653 1.945.982.319.141.685.253.964.457 2.248 1.522 4.457 3.106 6.739 4.62 2.073 1.382 4.164 2.689 6.263 4.03 1.673 1.045 3.38 2.082 5.027 3.17.698.465 1.317 1.056 1.856 1.684.17.193.075.717-.054 1.016-.403.972-.87 1.904-1.328 2.87-.092.148-.163.307-.262.42-.731.797-1.532 1.52-2.171 2.403-.717 1.01-1.323 2.117-1.915 3.204-.513.962-.883 1.926-2.003 2.508-.513.263-.707 1.132-1.032 1.745-.393.63-.744 1.284-1.158 1.9-.445.712-.904 1.446-1.42 2.085-1.157 1.434-1.329 3.337-2.418 4.755-.812 1.067-1.687 2.094-2.54 3.134l-.21.336a562.894 562.894 0 00-3.627 5.34c-.223.356-.375.786-.64 1.116-.29.372-.686.679-1.039 1.012-.306-.395-.632-.804-.938-1.199.144.003.275.026.419.029.319-.325.646-.616.924-.967a232.626 232.626 0 002.522-3.292c.104-.167.319-.325.314-.503.148-2.005 1.91-2.916 2.86-4.391.184-.293.495-.653.446-.946-.182-.871.365-1.375.779-1.99 1.249-1.814 2.415-3.679 3.588-5.51.655-1.049 1.31-2.097 1.944-3.158.065-.104.144-.23.272-.296 1.725-.991 2.045-2.715 2.502-4.47.255-.919 1.254-1.634 1.93-2.436.351-.422.744-.818.998-1.271.482-.865.846-1.774 1.292-2.72-.892.172-1.811.385-2.739.475-1.332.13-2.684.247-4.028.164-4.891-.316-9.764-.709-14.662-1.06-4.46-.309-8.89-.57-13.337-.901-1.584-.116-3.146-.363-4.707-.61-.241-.034-.499-.458-.617-.735-.138-.29-.02-.712-.205-.974-1.894-2.786-3.848-5.523-5.742-8.309-1.379-2.027-2.617-4.142-4.069-6.098-1.51-2.051-3.308-3.874-4.737-5.962-1.086-1.611-2.226-2.207-4.029-1.323-.385.197-.9.137-1.337.185a3.567 3.567 0 00-.115-.421c1.016-.415 1.997-.822 3.059-1.266-1.186-1.732-2.371-3.464-3.628-5.269-.942.344-1.884.688-2.941 1.077.07.772.208 1.529.215 2.262.002.322-.249.631-.39.95-.233-.232-.602-.433-.63-.713a16.758 16.758 0 01-.22-2.673c.005-.288.301-.715.566-.813.955-.365 1.954-.615 3.053-.977l.269.08zm60.88 31.892s.055-.228.079-.358l-7.299-4.561-11.648-7.279c-1.861-1.163-3.688-2.334-5.563-3.476-.878-.549-1.775-1.021-2.653-1.57l-4.768-2.98c-.147-.091-.329-.264-.411-.227-1.172.433-1.741-.564-2.494-1.034-1.757-1.098-3.469-2.313-5.225-3.411-2.029-1.268-4.07-2.514-6.078-3.769-1.401-.875-2.742-1.8-4.13-2.697a465.754 465.754 0 00-4.951-3.152l-7.382-4.613c-.129.066-.27.152-.398.218.041.492-.012 1.042.179 1.481.316.752.862 1.413 1.212 2.156 2.054 4.344 4.915 8.143 7.93 11.834 2.419 2.969 4.812 5.98 7.03 9.085 2.745 3.843 5.276 7.843 7.927 11.744.243.356.69.664 1.09.769 1.062.255 2.142.435 3.219.525 4.379.346 8.754.603 13.146.928 5.359.405 10.691.852 16.029 1.244a3.835 3.835 0 001.813-.295c1.084-.43 2.062-1.16 3.333-.54l.013-.022z"/><path d="M172.824 70.846c-.858-.77-2.841.032-2.69-2.118-.358-.078-.818-.133-1.239-.25-.27-.08-.733-.224-.738-.402-.135-1.134-1.11-1.015-1.782-1.29-.471-.177-.973-.257-1.41-.443-.7-.32-.831-.81-.048-1.458-.421-.117-.826-.167-1.145-.308-.319-.14-.847-.412-.832-.577.064-1.126-.77-1.094-1.474-1.271-.572-.154-1.449.085-1.424-.978-.003-.089-.327-.175-.5-.224-1.655-.656-3.323-1.29-4.978-1.945-.319-.141-.585-.366-.836-.756.191-.026.421-.116.56-.058 2.274.78 4.549 1.56 6.819 2.396.664.24 1.291.632 1.924.969.314.196.826.4.86.625.08 1.128 1.001 1.004 1.652 1.265.769.305 1.55.59 1.047 1.675.777.339 1.726.495 2.228 1.042.755.792 1.691.97 2.559 1.395.424.206.679.774.933 1.253 1.758.691 2.496 1.434 2.213 2.228.533.217 1.106.37 1.621.663.293.183.536.54.716.856.037.08-.165.45-.275.44-.343-.01-.714-.067-1.012-.195-.617-.27-1.171-.732-1.807-.925-.836-.29-1.252-.695-.906-1.528l-.036-.081zM169.476 62.196c-1.775-.556-2.348-.71-1.824-1.78-.57-.066-1.085-.125-1.71-.195.031-.097.023-.364.144-.464.597-.443 2.579-.079 2.667.618.161 1.091 1.106.836 1.605 1.294.316.285.606.612.922.897.183.172.434.33.67.418.92.342 1.893.6 2.166 1.791.055.238.526.416.837.523 1.169.41 2.337.82 2.967 2 .122.222.023.567.017.855l-.69-.43c-.878-.55-1.73-1.373-2.651-1.482-1.195-.135-1.859-.841-2.373-1.6-.379-.557-.774-.717-1.292-.865-.441-.13-.915-.164-1.344-.316-.29-.093-.523-.326-.781-.517l.636-.739.034-.008zM128.945 35.617c.137-1.43-.489-2.754-.143-4.053.178-.005.369-.032.547-.037.218 1.419.484 2.809.613 4.23.008.267-.445.713-.756.839-.9.37-1.803.651-2.755.872-.272.063-.594-.167-.918-.253.191-.26.33-.668.581-.744.908-.336 1.84-.57 2.818-.833l.013-.021zM122.02 31.202c.146.79.321 1.629.44 2.461.044.348.075.717.01 1.055-.037.152-.312.36-.49.365-.144-.003-.397-.249-.449-.398-.232-1.165-.498-2.322-.627-3.51-.037-.314.343-.922.641-1.027 1.133-.37 2.284-.584 3.462-.84.136-.03.311.108.47.178l.071.306c-1.165.468-2.337.901-3.569 1.384l.041.026zM129.321 22.824c-.754.695-1.763.822-2.81 1.1.25.856.514 1.691.709 2.542.07.306.039.636-.056.927-.057.139-.369.265-.567.257-.123.01-.309-.25-.361-.4-.253-.945-.472-1.898-.711-2.863-.261-.98.006-1.454 1.016-1.58.874-.096 1.755-.157 2.629-.252.036.081.094.175.13.256l.021.013zM137.417 18.382c.232 1.398.49 2.754.653 4.168.029.28-.299.804-.576.922-.772.304-1.596.46-2.407.594-.225.035-.492-.19-.714-.3.199-.225.354-.566.571-.634.746-.263 1.536-.41 2.378-.642-.161-1.324-.309-2.67-.464-4.05.191-.026.368-.031.58-.045l-.021-.013zM132.857 17.398c-.743.119-1.486.237-2.182.327.208 1.063.461 2.008.557 2.971.021.246-.354.566-.545.825-.151-.269-.384-.502-.475-.821-.242-.822-.362-1.654-.605-2.476-.279-.903-.066-1.383.862-1.473.772-.071 1.583.027 2.391.037.005.178.031.37.023.568l-.026.042zM132.801 24.795c.786.929.937 2.13.97 3.287.002.322-.535.716-.911.947-.492.275-1.05.422-1.594.549-.238.055-.51-.115-.771-.162.136-.265.207-.657.416-.76.594-.299 1.22-.462 1.85-.68a851.995 851.995 0 01-.381-3.065c.136-.032.293-.05.429-.082l-.008-.034zM124.784 32.784c.354-.566.814-.745 1.408-.345.523.327.715 1.554.312 2.06-.424.493-.974.674-1.573.33-.606-.38-.658-1.228-.126-2.032l-.021-.013zM120.931 38.857c.293-.05.753-.229 1.153-.125.539.162.901 1.583.472 1.898-.382.286-1.128.548-1.442.352-.627-.392-.642-1.159-.196-2.104l.013-.021zM135.174 20.624c-.629.773-1.157.734-1.727.436-.591-.31-.697-.931-.305-1.327.32-.325 1.084-.664 1.39-.502.347.188.444.919.642 1.393zM129.265 26.87c-.057-.794-.258-1.357-.098-1.752.123-.244.788-.237 1.209-.352.104.53.318 1.073.278 1.602-.016.165-.712.254-1.41.488l.021.013zM138.104 15.284c-.678.014-1.214.175-1.342.007-.227-.287-.332-.819-.211-1.152.063-.193.811-.367 1.007-.215.272.17.3.683.567 1.374l-.021-.014z"/></g><path fill-rule="evenodd" clip-rule="evenodd" d="M75.936 38.71c2.373.553 4.525 1.734 6.254 3.62l-1.188 1.097c-1.494-1.63-3.351-2.654-5.43-3.138l.364-1.578zM62.19 41.267c2.162-1.19 4.4-2.045 6.607-2.513l.333 1.586c-2.036.431-4.125 1.226-6.164 2.348l-.776-1.42zm-10.34 9.392a31.651 31.651 0 014.635-5.287l1.086 1.2a30.033 30.033 0 00-4.397 5.016l-1.323-.929zm33.69-1.989c.3 1.083.527 2.253.676 3.513.128 1.086.189 2.178.185 3.274l-1.614-.006a25.48 25.48 0 00-.174-3.078 21.885 21.885 0 00-.628-3.27l1.556-.433zM46.688 63.651a29.817 29.817 0 011.824-6.804l1.499.603a28.186 28.186 0 00-1.725 6.433l-1.598-.232zm38.977-1.714a39.39 39.39 0 01-1.93 6.197l-1.498-.604a37.767 37.767 0 001.85-5.94l1.578.347zm51.211 4.292a.812.812 0 01.215 1.125c-.617.913-1.255 1.84-1.914 2.778l-1.319-.934a182.64 182.64 0 001.897-2.753.805.805 0 011.121-.216zM47.873 77.576a33.442 33.442 0 01-1.37-6.884l1.609-.145a31.812 31.812 0 001.304 6.55l-1.543.479zm33.075-3.61a68.454 68.454 0 01-3.387 5.475l-1.332-.916a66.796 66.796 0 003.308-5.346l1.411.786zm50.24 1.624a162.09 162.09 0 01-4.206 5.3l-1.241-1.037c1.445-1.743 2.835-3.5 4.164-5.247l1.283.984zM54.199 90.013a48.598 48.598 0 01-3.667-5.973l1.434-.744a46.99 46.99 0 003.545 5.773l-1.312.944zm19.55-5.422a110.305 110.305 0 01-4.138 4.891L68.41 88.4a108.81 108.81 0 004.078-4.82l1.261 1.01zm48.792 1.407a119.723 119.723 0 01-4.702 4.873l-1.127-1.16a118.117 118.117 0 004.639-4.808l1.19 1.095zM61.156 98.132l-.498.469-1.102-1.183.466-.44a69.924 69.924 0 01-1.484-1.593l1.196-1.088c.47.52.955 1.042 1.457 1.564.985-.95 1.95-1.902 2.89-2.859l1.149 1.14c-.947.96-1.915 1.919-2.904 2.873.73.722 1.46 1.4 2.193 2.034l-1.055 1.227a46.735 46.735 0 01-2.308-2.144zm51.678-2.684a78.699 78.699 0 01-5.351 4.185l-.935-1.322a77.042 77.042 0 005.242-4.099l1.044 1.236zm-56.902 7.441a219.176 219.176 0 01-4.855 4.138l-1.028-1.249a224.203 224.203 0 004.82-4.108l1.063 1.219zm45.804.392a46.862 46.862 0 01-6.184 2.896l-.57-1.516a45.33 45.33 0 005.972-2.797l.782 1.417zm-26.44 3.862a30.63 30.63 0 01-6.282-2.84l.819-1.396a29.027 29.027 0 005.952 2.692l-.489 1.544zm13.645.867a29.622 29.622 0 01-6.87.401l.097-1.617c2.17.131 4.34-.006 6.498-.381l.275 1.597zm-42.823 3.019a286.565 286.565 0 01-5.052 3.885l-.968-1.297a289.312 289.312 0 005.024-3.863l.996 1.275zm-10.181 7.66a353.252 353.252 0 01-5.198 3.676l-.918-1.333a353.842 353.842 0 005.174-3.659l.942 1.316zm-10.457 7.263a431.373 431.373 0 01-5.315 3.503l-.876-1.361a423.662 423.662 0 005.294-3.49l.897 1.348zm-10.675 6.925a470.98 470.98 0 01-5.413 3.353l-.839-1.384a478.193 478.193 0 005.395-3.342l.857 1.373zm-10.86 6.632c-.92.546-1.831 1.083-2.731 1.61a.807.807 0 01-1.104-.292.812.812 0 01.29-1.108c.898-.525 1.806-1.06 2.723-1.605l.822 1.395z"/><defs><clipPath><path transform="rotate(32 65.656 234.042)" d="M0 0h79.108v42.783H0z"/></clipPath></defs></symbol><symbol viewBox="0 0 34 62" id="title-help" xmlns="http://www.w3.org/2000/svg"><path d="M7.962 30.14c-.782-.015-1.512-.025-2.266-.068a140.194 140.194 0 01-3.543-.102 3.182 3.182 0 01-.75-.072C.405 29.68-.076 28.704.24 27.593c.037-.117.074-.233.135-.317 1.504-3.4 2.68-6.92 3.806-10.475C5.45 12.869 6.744 8.939 8.035 5.039c.256-.756.538-1.51.794-2.266.359-1.016.943-1.65 1.938-1.675 1.046-.019 2.076-.13 3.12-.12 4.69.123 9.406-.022 14.1-.2A70.807 70.807 0 0131.54.763c.417.01.828.08 1.205.236.957.363 1.268 1.474.78 2.478-.162.315-.372.595-.582.875-.546.788-1.09 1.547-1.61 2.337-1.414 2.206-2.803 4.415-4.24 6.589-1.439 2.174-2.902 4.345-4.366 6.516-.425.62-.848 1.21-1.27 1.8-.121.168-.245.366-.43.649l.57.055c2.146.237 4.294.445 6.44.682.154.015.333.062.485.107.96.333 1.352 1.422.886 2.458-.167.374-.434.709-.699 1.014-1.216 1.504-2.455 2.976-3.649 4.513a20.105 20.105 0 00-1.561 2.372c-2.539 4.38-5.05 8.733-7.54 13.148-2.578 4.526-5.112 9.117-7.665 13.646-.19.342-.405.682-.693.954-.693.684-1.515.545-2.096-.202A2.749 2.749 0 014.93 59.1c.051-1.346.08-2.725.238-4.091.549-4.873 1.175-9.738 1.724-14.61.37-3.299.69-6.602 1.035-9.902.06-.085.046-.206.034-.357z"/></symbol><symbol viewBox="0 0 70 96" id="title-price" xmlns="http://www.w3.org/2000/svg"><path d="M69.358 90.35c-5.82-10.473-10.277-17.19-19.439-27.664-.742-.91-1.857-2.05-3.218-3.757-1.486-1.708-3.343-3.985-5.82-7.058-1.114-1.594-2.476-3.188-3.714-5.01-.619-.91-1.362-1.821-1.98-2.846a41.112 41.112 0 00-1.982-2.96c-2.476-4.098-5.076-8.766-6.19-13.32-.124-.569-.372-1.138-.372-1.707 0-.57-.123-1.025-.123-1.594 0-1.025.123-2.05.495-3.074.619-1.936 1.857-3.87 3.59-5.465 3.467-3.301 8.79-5.464 13.867-6.261 2.6-.456 5.076-.456 7.305-.228.619 0 1.114.228 1.61.228l1.485.341c.867.342 1.733.683 2.228 1.139 1.239.797 1.734 1.707 1.981 2.846 0 .341 0 .57.124.91 0 .342 0 .684-.124 1.025v.228l-.123.341c0 .228-.124.456-.124.57-.124.455-.124.797-.248 1.252-.743 3.074-1.98 5.35-2.847 6.945-.99 1.593-1.61 2.39-1.61 2.39s-.124.228-.371.456c-.248.341-.62.797-1.115 1.366-.99 1.252-2.724 2.846-5.076 4.781-2.352 1.936-5.447 4.099-9.162 6.262-3.714 2.277-7.924 4.554-12.628 7.059-4.581 2.618-9.658 5.35-14.362 9.107-2.353 1.936-4.705 4.099-6.686 6.717-.99 1.366-1.857 2.733-2.476 4.326-.372.683-.62 1.594-.867 2.277-.247.797-.495 1.594-.619 2.277-.743 3.188-.99 6.49-.124 9.79.743 3.302 2.848 6.604 5.696 8.767 2.847 2.277 6.066 3.416 9.038 4.099 3.095.683 5.943.796 8.542.683 6.562-.342 11.391-1.822 15.105-3.188l2.6-1.025c.743-.341 1.486-.683 2.105-1.024 1.362-.57 2.352-1.139 3.22-1.594 3.466-1.936 6.313-3.87 8.666-5.92 2.476-2.05 4.333-4.213 6.066-6.376 3.343-4.326 5.82-8.993 7.677-14.572-4.581 4.099-8.667 7.059-12.877 10.019-2.104 1.48-4.21 2.96-6.685 4.44-2.353 1.594-4.953 3.073-7.924 4.667-.743.342-1.61.911-2.724 1.367-.495.227-1.114.569-1.857.796-.62.228-1.362.57-2.105.797-3.095 1.139-7.057 2.277-11.886 2.505-1.98 0-3.961 0-5.819-.456-1.857-.455-3.59-1.138-4.828-2.162-1.238-1.025-2.105-2.277-2.6-4.099-.372-1.708-.372-3.757.124-5.92.123-.57.247-1.139.371-1.594.124-.455.248-.91.495-1.366.372-.91.99-1.822 1.61-2.732 1.238-1.822 2.971-3.416 4.952-5.01 3.838-3.073 8.543-5.692 13-8.197 4.581-2.504 8.915-4.895 12.876-7.286 3.962-2.39 7.429-4.781 10.153-7.058s4.828-4.326 6.19-5.92c.62-.797 1.238-1.366 1.486-1.822.371-.455.495-.683.495-.683s.867-1.024 2.105-3.073a33.278 33.278 0 003.838-9.336c.124-.57.248-1.024.371-1.594 0-.227.124-.569.124-.797l.124-.455v-.456c0-.682.124-1.366.124-2.049 0-.683-.124-1.48-.248-2.277-.123-.796-.371-1.594-.619-2.39-.371-.797-.743-1.594-1.238-2.391-.495-.683-.99-1.48-1.733-2.163-.372-.342-.62-.683-.99-.911-.372-.228-.743-.57-1.115-.797-3.095-2.163-6.562-3.074-9.905-3.53-3.466-.455-6.81-.227-10.276.342-3.343.57-6.81 1.48-10.028 2.96-2.972 1.936-6.067 3.757-8.79 6.376-2.725 2.504-4.953 5.692-5.944 9.335-.371.91-.371 1.822-.619 2.732-.124.911-.124 1.822-.247 2.733 0 .91.123 1.821.247 2.732.124.91.372 1.594.495 2.39.248.798.372 1.595.62 2.392.247.683.495 1.48.742 2.163.248.683.496 1.48.867 2.163.371.683.62 1.366.99 2.049.372.683.62 1.366.991 1.935.371.57.743 1.253.99 1.822.743 1.252 1.362 2.39 2.105 3.53.743 1.138 1.486 2.162 2.105 3.3.743 1.025 1.486 2.05 2.105 2.96 1.362 1.936 2.724 3.644 3.962 5.352 2.6 3.187 4.457 5.578 6.066 7.286 1.486 1.821 2.6 2.96 3.343 3.87 9.534 10.588 16.59 15.256 26.99 21.973z"/></symbol><symbol viewBox="0 0 118 108" id="title-question" xmlns="http://www.w3.org/2000/svg"><path d="M41.607 15.09c1.194 4.155-.297 7.075-1.501 10.014-.592 1.451-1.345 2.758-.692 4.45.334.813.141 1.76-.932 2.065-1.124.348-1.728-.303-2.106-1.29-.616-1.67-.676-3.235.118-4.986 1.38-2.984 3.346-5.87 1.928-9.565-1.165-3.078-5.14-5.223-8.22-4.128-1.453.525-2.464 1.557-2.623 3.239-.2 2.002-.745 3.999-.185 6.055.142.552.175 1.163-.446 1.414-.59.244-1.04-.169-1.422-.567-.257-.274-.617-.585-.707-.934-1.035-3.297-1.046-6.608.832-9.471 1.813-2.754 4.514-3.629 7.897-2.82 5.273 1.258 6.991 2.616 8.03 6.532l.03-.008zM38.561 33.983c1.329-.401 2.575.087 2.75 1.373.228 1.49-.458 3.06-2.05 3.527-1.788.549-2.266-1.187-2.645-2.298-.47-1.46.528-2.303 1.945-2.602zM113.703 64.572c1.133 3.2-1.038 11.662-3.655 13.947-1.212 1.058-2.733 1.462-4.377 1.623-5.281.582-9.772-1.276-13.869-4.145-2.962-2.072-5.94-3.755-9.79-2.615-1.189.346-2.098-.022-2.378-1.2-.326-1.384.997-1.459 1.809-1.696 4.513-1.258 8.295.254 11.85 2.876 3.476 2.587 7.377 4.247 11.988 3.85 1.902-.161 3.095-.925 3.857-2.585.85-1.853 1.372-3.808 1.788-5.789.904-4.372-2.675-6.888-5.756-7.988-1.033-.354-2.119-.591-3.194-.801-.557-.114-1.503.365-1.498-.566-.006-.959 1-1.364 1.826-1.478 2.371-.367 4.574.193 6.579 1.34 2.132 1.227 3.804 2.945 4.837 5.189l-.017.038zM70.638 76.674c.108-1.001-.87-2.497.983-2.96 1.294-.32 2.946-.805 3.535 1.027.491 1.484-.11 2.796-1.674 3.344-1.27.472-2.272-.054-2.883-1.43l.039.019zM98.228 38.08c-1.855 3.645-5.178 4.54-8.648 5.115-1.534.262-3.106.315-4.662.343-2.835.027-5.148.994-6.712 3.527-.307.445-.723.889-1.203 1.107-.68.298-1.487.512-2.043-.378-.475-.798-.533-1.456.131-2.312 3.282-4.016 7.58-5.263 12.453-5.062 1.596.072 3.114-.273 4.593-.827 3.143-1.163 5.919-5.452 5.653-8.726-.402-4.933-4.516-7.454-9.638-5.86-.655.206-1.304.564-1.984.754-.62.158-1.397.646-1.803-.25-.373-.837.285-1.261.826-1.728 2.742-2.384 8.04-2.8 10.941-.855 3.888 2.585 5.581 7.236 4.121 11.369-.496 1.408-1.008 2.84-2.084 3.816l.06-.033zM66.984 57.661c-1.786-.857-.801-1.967-.256-2.758.597-.865 1.506-1.918 2.689-.928 1.05.864 1.846 1.99.857 3.424-1.024 1.484-2.24 1.126-3.29.262zM57.62 63.263c-1.24-4.455-4.423-7.246-7.605-9.876-2.211-1.879-5.016-2.791-7.82-3.113-4.585-.537-9.115-1.02-13.7-1.235-5.717-.215-11.434.483-17.097 1.342-3.29.483-5.987 2.254-8.037 5.1-.647.912-.917 2.146-1.294 3.273C1.58 60.257.934 61.76.772 63.317c-.377 3.596-.431 7.246-.7 10.842-.216 3.274.053 6.44.862 9.554.54 2.2 1.403 4.348 2.104 6.494v.108c1.132 2.254 3.02 3.65 4.8 5.153.863.751 2.05 1.02 3.236.751 1.564-.376 3.128-.644 4.962-1.02a759.438 759.438 0 01-3.937 7.246c-.162.322-.432.644-.378.966.054 1.074.216 2.147.378 3.167.108.966.593 1.557 1.51 1.396.97-.161 1.942-.483 2.859-.698 3.128-.644 5.77-2.415 8.09-4.616 1.672-1.61 3.02-3.596 3.667-6.119 2.266.161 4.369.483 6.526.483 3.506 0 7.012-.215 10.464-1.127 1.941-.537 4.045-.43 6.04-.913 1.08-.268 2.212-.912 3.02-1.717 1.457-1.503 2.644-3.274 3.29-5.421.594-1.825 1.295-3.65 1.511-5.582.593-5.046-.377-10.091-.701-15.136a18.665 18.665 0 00-.755-3.919v.054zM8.215 93.803c-.539-.912-1.618-1.02-1.456-2.307.594.268 1.133.536 1.78.805-.054.375-.162.751-.324 1.449v.054zm1.888.86c-.755-.054-.863-.43-.593-2.416.647-.107 1.24-.161 1.78-.268 0 1.878-.378 2.737-1.187 2.683zm1.996-.215c.108-.86.162-1.718.27-2.63.647-.108 1.186-.215 1.78-.322.107 2.147-.162 2.63-1.996 2.952h-.054zm3.236-.752c0-1.538.431-2.236 1.294-2.093 0 0 .162.215.216.322-.54.59-1.025 1.18-1.564 1.771h.054zm-.162 11.97c-.162.912-.863.751-1.51.751-.216-.751-.378-1.503-.593-2.308a48.375 48.375 0 002.373-1.449c-.108 1.181-.108 2.093-.27 3.006zm2.427-.483c-.108.322-.755.483-1.348.805v-1.825c0-1.396.665-2.272 1.995-2.63-.215 1.234-.323 2.469-.647 3.65zm3.236-3.167c0 1.556-.647 2.415-2.103 2.737.27-1.342.377-2.684.755-3.864.216-.591 1.025-.859 1.672-1.45-.162 1.02-.378 1.825-.378 2.577h.054zm2.373-.376c-.107.483-.647.859-1.186 1.503 0-2.684-.27-5.1 1.887-6.28-.215 1.45-.377 3.167-.7 4.831v-.054zm1.618-1.556c.108-1.825.162-3.436.378-5.046.108-.698.324-1.61 1.456-1.771-.917 2.254-.054 4.83-1.834 6.817zm4.962-5.153c-.431 0-.755 0-1.132-.054-.378 0-.755-.054-1.187-.107v-1.396c.81-.107 1.672-.215 2.643-.322-.108.752-.216 1.288-.324 1.932v-.053zm1.349.053V93.16h1.618c-.162 1.986-.216 2.04-1.618 1.825zm3.83-.644c-.055.269-.109.59-.217.913h-1.186c0-.644.054-1.235.108-1.933h1.456c-.054.376-.108.698-.216 1.02h.054zm1.671 1.074s-.27-.108-.377-.161c.108-.59.161-1.181.27-1.825.269 0 .485.054.862.107-.323.752-.54 1.288-.809 1.879h.054zm1.726-.161v-1.718h1.402c-.377.698-.108 1.879-1.402 1.718zm2.859-.054s-.216-.16-.378-.215c.108-.59 0-1.341.755-1.449.108.054.216.161.27.215-.216.483-.486.966-.701 1.45h.054zm1.941-.59v-1.235c.486-.107.971-.215 1.564-.322 0 1.235-.323 1.879-1.564 1.557zm2.697-.215v-1.503c.701-.107 1.402-.268 2.103-.376 0 1.074-.7 1.7-2.103 1.879zm4.638-.698c-.27.054-.593.161-.916.215-.432-1.503-.216-2.04 1.186-2.898-.108.912-.162 1.77-.27 2.683zm1.565-.912c.323-1.503-.594-3.113 1.51-3.918-.917 1.234.431 3.005-1.51 3.918zm2.48-2.523c.378-1.342-.539-2.576.81-3.596-.054 1.288.377 2.469-.81 3.596zm1.672-11.11c-.539 1.61-.916 3.274-1.402 4.884a4.228 4.228 0 01-.863 1.61c-1.887 2.254-3.883 4.455-6.688 5.207-3.667.912-7.389 1.073-11.11.751-2.805-.215-5.717 0-8.522-.161-2.05-.161-3.128.751-3.991 2.684a9.218 9.218 0 01-2.589 3.274c-1.78 1.395-3.721 2.415-5.61 3.596-.107-.107-.161-.215-.269-.322.701-1.557 1.456-3.113 2.158-4.67a68.19 68.19 0 001.941-4.562c.378-1.02 0-1.771-1.079-1.718-2.48.108-4.908.215-7.335.537-2.373.376-5.124-.912-6.58-2.952-1.995-2.845-2.265-6.119-2.48-9.447a65.937 65.937 0 010-7.997c.161-2.845.539-5.636 1.024-8.427.27-1.503.809-2.898 1.402-4.294.486-1.18 1.403-1.986 2.427-2.791 3.075-2.576 6.742-2.63 10.248-2.952 4.584-.483 9.223-.698 13.861-.698 3.02 0 5.987.537 9.007.805 3.29.322 6.58 1.02 9.277 3.113 3.83 3.006 7.281 6.495 7.713 12.13.27 4.134.809 8.32-.593 12.346l.053.053zM67.644 19.867c-.835 2.14-2.67 3.853-4.506 5.565-1.174 1.112-2.518 2.032-2.672 3.92-.06.818-.754 1.606-1.853 1.297-1.166-.311-1.428-1.163-1.146-2.203.546-1.92 1.69-3.488 3.193-4.833 2.468-2.194 4.725-4.567 5.603-7.941.623-2.32-1.016-8.079-2.913-9.388-2.134-1.502-5.411-.416-6.772 2.262-.48.9-.881 1.843-1.202 2.829-.174.519-.372.89-.911.876-.54-.013-.771-.475-.868-.934-.098-.392-.17-.77-.174-1.145-.061-3.022 2.027-5.654 5.789-7.265 1.949-.838 5.366.052 6.996 1.797 3.325 3.559 4.051 10.261 1.422 15.19l.014-.027zM57.728 42.545c-1.324-.462-1.573-1.273-.798-2.663.649-1.152 1.448-1.817 2.575-1.05 1.009.669 1.969 1.686 1.232 3.13-.694 1.366-1.773 1.339-3.009.583z"/></symbol><symbol viewBox="0 0 336 105" id="title-report" xmlns="http://www.w3.org/2000/svg"><path d="M80.66 103.593c.264-.019.619-.074.879-.048 12.913 1.054 25.454.578 37.93-.132 5.799-.33 11.52-.759 17.241-1.187.441-.047.883-.094 1.342-.32-1.043-.058-2.081-.161-3.124-.219-22.129-1.517-43.766-4.478-64.722-9.908-1.02-.282-2.14-.439-3.266-.55-12.77-1.63-25.308-3.824-37.187-7.403-6.36-1.944-12.248-4.249-17.292-7.149C2.971 71.027-.874 64.85.841 58.091c1.021-4.156 3.92-7.853 7.666-11.285 2.593-2.369 5.691-4.552 9.04-6.62.56-.352 1.21-.74 1.513-1.163 4.697-6.87 12.588-12.472 22.499-17.285 11.56-5.6 25.079-9.783 39.728-13.039 22.684-4.995 46.882-7.62 72.3-8.45a493.063 493.063 0 0145.108.626c20.844 1.253 41.396 3.7 61.594 7.967 15.232 3.232 29.679 7.337 42.756 12.936 8.218 3.487 15.427 7.462 21.258 12.116 6.233 5.01 10.163 10.337 10.999 16.035.408 2.938-.048 5.79-1.538 8.496-1.911 3.433-4.255 6.823-7.697 9.832-5.064 4.388-11.873 7.879-19.677 10.818-10.164 3.837-21.45 6.656-33.458 8.816-17.167 3.097-34.97 5.542-52.84 7.8a1386.398 1386.398 0 01-59.332 6.294c-16.476 1.399-33.016 2.566-49.914 2.927-9.195.22-18.528.064-27.868-.908l-2.25-.223c-.081-.053-.072-.143-.068-.188zm35.595-12.77c5.469.361 14.758.966 24.142 1.49 3.214.182 6.528.24 9.683.145 9.732-.348 19.236-1.035 28.67-1.91 20.107-1.9 39.52-4.729 57.685-9.085 12.888-3.114 24.878-6.86 35.243-11.854 6.606-3.194 12.382-6.832 16.221-11.206 3.249-3.708 4.867-7.713 3.816-12.12-1.119-4.593-4.9-8.772-10.642-12.557-5.738-3.83-12.685-6.918-20.377-9.538-13.014-4.46-26.975-7.295-41.453-9.32-14.738-2.05-29.408-3.008-44.145-3.293-19.449-.344-38.325.59-56.629 2.805-20.424 2.457-39.592 6.351-56.765 12.164-9.76 3.289-18.527 7.128-25.642 11.947-6.534 4.242-11.114 9.04-12.209 14.819-.946 5.158 1.181 10.17 6.826 14.94 4.194 3.541 9.765 6.403 15.981 8.922 8.742 3.493 18.364 6.033 28.39 8.023 12.252 2.439 24.676 4.033 41.205 5.628zm81.284-80.01c-.009.09.073.143.065.233l4.931.49c10.218.922 20.31 2.24 30.258 4.133 11.41 2.128 22.403 4.94 32.606 8.669 7.925 2.914 15.018 6.29 20.543 10.505 8.126 6.195 10.812 12.62 8.054 19.32-1.818 4.257-5.5 7.922-10.284 11.25-6.188 4.277-13.785 7.78-22.126 10.847-11.146 4.056-23.333 7.15-36.164 9.68-15.501 3.036-31.697 5.142-48.351 6.57-.792.056-1.588.159-2.38.216a3.703 3.703 0 001.553.2c8.581-.191 17.239-.283 25.747-.616 20.702-.845 40.878-2.556 60.235-5.707 14.206-2.304 27.613-5.367 39.578-9.75 7.522-2.74 14.218-5.97 19.666-9.822 4.416-3.139 6.786-6.798 7.276-10.87.708-5.409-2.279-10.55-8.088-15.428-5.481-4.665-12.79-8.514-21.021-11.867-13.609-5.516-28.615-9.269-44.42-12.014-12.712-2.212-25.481-3.841-38.408-4.761-6.416-.5-12.845-.867-19.27-1.278zM331.17 47.526c.087.009.178-.028.178-.028-.069-.187-.051-.367-.125-.51-1.125-3.644-3.662-7.155-7.263-10.501-5.77-5.282-13.371-9.704-22.337-13.582-10.055-4.349-20.986-7.788-32.589-10.614C245.4 6.55 221.15 3.51 196.476 2.104c-12.858-.732-25.509-.9-38.205-.62-25.31.613-49.485 3.015-72.147 7.785-15.256 3.196-29.215 7.426-41.308 13.11-7.51 3.511-13.932 7.493-18.767 12.22-.286.244-.49.54-.78.829a2.42 2.42 0 001.069-.211c11.192-5.41 23.858-9.814 37.747-13.327C105.036 11.508 149.81 7.527 197.789 9.163c17.502.604 34.905 2.194 52.199 4.906 13.335 2.093 26.254 4.869 38.551 8.625 9.5 2.89 18.25 6.293 25.952 10.59 7.204 4.02 12.88 8.477 16.04 13.635.324.259.484.41.639.607zm-315.254-3.2c-.754.56-1.313.911-1.79 1.317-5.115 4.02-9.122 8.332-10.237 13.43-1.114 5.096 1.285 9.998 7.649 14.57 4.406 3.153 9.93 5.603 16.1 7.71 8.112 2.797 16.83 4.748 25.767 6.269 1.462.235 2.837.462 4.3.698-30.97-11.087-46.339-25.336-41.79-43.994zm68.237 48.656c-.004.044-.1.126-.104.17.342.08.766.212 1.107.291 7.28 1.492 14.585 2.715 21.995 3.767 13.184 1.852 26.508 3.173 39.808 3.859 1.388.092 2.786.095 4.11-.045 20.722-1.93 41.22-4.243 61.48-6.807.441-.046.891-.183 1.333-.23-.947-.139-1.822-.135-2.7-.086-15.89.778-31.823 1.1-48.048.848-8.723-.14-17.442-.326-26.109-.145a468.626 468.626 0 01-43.938-.963 197.986 197.986 0 00-8.934-.66zM53.23 27.424c.005-.044-.077-.098-.073-.143-1.715.555-3.43 1.11-5.057 1.672-9.315 3.197-17.977 6.866-25.562 11.14-.741.424-1.495.983-1.813 1.54-2.22 3.9-3.232 7.966-2.519 12.248 1.387 8.968 8.288 16.943 20.614 23.962 8.02 4.6 17.463 8.072 27.655 11.03 2.97.883 6.063 1.417 9.264 1.734 13.415 1.286 26.888 1.988 40.232 2.225 2.007.018 4.015.036 6.027.01-21.029-2.041-24.225-2.404-38.677-4.698-9.46-1.527-18.61-3.522-27.432-6.208-8.99-2.748-17.225-6.056-23.78-10.464-6.718-4.516-10.51-9.466-11.113-14.869-.523-4.444 1.19-8.53 4.453-12.373C29.7 39.218 36.13 35.147 43.65 31.546c3.197-1.404 6.384-2.718 9.58-4.122z"/></symbol><symbol viewBox="0 0 54 52" id="title-we" xmlns="http://www.w3.org/2000/svg"><path fill-rule="evenodd" clip-rule="evenodd" d="M21.56 19.29c.096.223.193.45.28.687.133-.044.245-.069.347-.091.13-.029.243-.054.355-.11l.068-.234c.175-.606.333-1.15.333-1.774 0-5.12 0-10.239-.1-15.359 0-.502 0-1.104-.3-1.405C22.04.502 21.44 0 20.838 0c-.4 0-1.102.602-1.302 1.205-.3.602-.3 1.405-.2 2.108.45 4.336.982 8.59 1.522 12.91l.18 1.445c.071.567.292 1.084.521 1.621zm30.51 3.546c.636-.198 1.276-.396 1.93-.55 0-.1-.1-.302-.2-.502H31.557c-.4 0-.901 0-1.202.2l-.142.113c-.482.382-1.07.846-1.16 1.393-.1.904.6 1.406 1.502 1.606.601.1 1.102.1 1.703.1h.001c5.61-.501 11.22-1.003 16.73-1.605 1.05-.124 2.06-.438 3.08-.755zm-26.868 28.26c.155.302.311.603.445.904.2 0 .4-.1.601-.2 0-.101.05-.201.1-.302.05-.1.1-.2.1-.301V35.035c0-.703-.1-1.406-.2-2.108-.2-1.004-.902-1.707-2.004-1.707-1.202 0-1.703.904-1.803 1.907-.066.398-.045.752-.023 1.12.011.19.023.382.023.587.1 1.506.2 3.012.4 4.517.502 3.313 1.003 6.626 1.604 9.939.133.602.445 1.204.757 1.806zm-4.426-25.742c-.54.211-1.07.419-1.64.546-4.56.716-9.2 1.353-13.778 1.981l-1.651.227c-.802.1-1.703.2-2.405-.1C.802 27.706 0 27.104 0 26.602c0-.502.601-1.104 1.102-1.606.2-.2.701-.301 1.102-.301 5.51-.2 11.02-.402 16.53-.502.902 0 1.904.1 2.806.2.05.101.075.202.1.302.025.1.05.2.1.301-.331.11-.65.235-.964.358z"/></symbol><symbol viewBox="0 0 301 96" id="title-work" xmlns="http://www.w3.org/2000/svg"><path d="M115.644 65.968c12.664-10.838 16.099-20.205 16.725-29.127.378-4.997-.365-9.6-3.328-13.362-1.225-1.603-2.672-3.052-5.052-3.993-1.501-.534-3.101-.965-5.146-1.087-3.8-.233-8.307 1.287-12.223 3.904-2.463 1.642-4.281 3.467-5.71 5.197-2.46 3.043-3.976 5.955-4.959 8.778-2.65 7.453-1.893 13.835.764 19.634a33.955 33.955 0 007.831 10.441c.234.224.324.442.58.72-3.106 2.16-6.702 3.817-10.465 5.416-15.617 6.754-31.426 11.993-47.26 15.776-5.197 1.228-10.316 2.297-15.38 3.152-9.817 1.775-18.648 2.128-26.182 1.123-1.345-.152-2.69-.304-4.156-.407-.145-.005-.389.095-1 .344.401.282.635.506.99.68 6.616 2.59 15.072 3.409 25.513 2.463 13.03-1.237 26.743-4.283 40.787-8.61 11.513-3.55 22.803-7.647 33.79-12.83 2.398-1.106 4.85-2.425 7.447-3.74a14.8 14.8 0 011.112.63c5.329 3.625 11.202 6.837 18.672 9.078 6.014 1.816 12.649 3.06 20.571 3.27 4.31.089 8.92-.135 13.862-.94 12.672-2.111 22.959-7.264 30.008-15.11l1.397-1.462c.734.401 1.279.688 1.969.98 4.782 2.638 9.909 5.07 15.945 6.941 5.203 1.573 10.949 2.734 17.859 2.91 3.322.11 6.799-.098 10.675-.723 9.328-1.575 17.397-5.186 24.184-10.886 1.287-1.035 2.285-2.08 3.649-3.273.734.402 1.279.69 1.846 1.031a77.93 77.93 0 0017.536 7.694c1.645.54 3.512.924 5.479 1.205.934.193 2.289.022 3.544-.044 1.089-.125 2.187-.573 2.863-1.359.676-.785.131-1.073-.78-1.211a47.472 47.472 0 01-5.213-1.25c-8.137-2.48-14.921-5.83-20.895-9.637-.567-.342-1.012-.734-.359-1.574 5.882-8.263 7.711-15.636 7.818-22.69.246-9.85-2.483-18.613-8.143-26.181-1.916-2.596-4.276-4.883-8.057-6.463a17.946 17.946 0 00-4.802-1.29c-4.489-.527-9.54 1.406-13.221 4.947-2.239 2.188-3.535 4.246-4.397 6.318-1.891 4.086-2.35 7.841-2.175 11.402.236 6.85 2.671 12.802 6.471 18.262 4.58 6.67 10.702 12.584 17.979 17.835.823.62 1.069 1.221-.295 2.415-1.663 1.507-3.16 3.073-4.99 4.52-4.103 3.204-8.943 5.306-14.351 6.365-3.687.74-6.897.902-9.93.802-5.299-.069-9.756-.863-14.013-1.867-8.892-2.234-16.109-5.599-22.539-9.475-.567-.342-.846-.675-.436-1.415 3.462-7.212 3.715-13.56 2.703-19.52-1.069-6.445-3.603-12.293-8.191-17.24-1.77-1.89-3.785-3.681-6.709-4.91a14.452 14.452 0 00-4.302-1.112c-4.011-.403-8.629 1.544-10.944 4.592-1.108 1.472-1.805 2.903-2.235 4.29-1.136 3.84-.618 7.197.144 10.455 2.777 10.273 10.348 18.336 20.272 25.184.378.228.635.506 1.135.684.712.347.668.938.115 1.674-1.308 1.68-2.448 3.42-4.189 5.086-3.936 3.963-9.473 6.796-16.025 8.194-3.398.75-6.808 1.121-9.996 1.338-5.554.354-10.309-.127-14.744-.867-9.324-1.549-16.673-4.54-23.014-8.198-2.157-1.096-4.16-2.509-6.429-3.877zm153.399-10.903c-.501-.178-.667-.237-.857-.351-.355-.174-.611-.452-.967-.625-7.444-5.311-13.489-11.384-17.503-18.412-2.944-5.108-4.911-10.614-4.413-17.062.238-2.901.621-5.797 2.414-9.078.841-1.426 1.949-2.898 3.345-4.36 1.297-1.357 3.151-2.05 4.852-1.724 1.533.266 2.99.692 4.079 1.267 3.915 1.908 6.187 4.676 8.115 7.65 4.102 6.546 6.107 13.885 6.279 21.972.079 5.766-.742 11.772-4.016 18.397-.454.632-.742 1.322-1.328 2.326zm-157.495 7.157c-.634-.505-1.057-.843-1.336-1.175-1.114-1.33-2.327-2.555-3.319-3.935-3.599-4.968-5.466-10.579-4.624-17.23.448-3.433 1.574-6.951 4.132-10.799.986-1.421 2.26-2.834 3.679-4.24 1.963-1.821 3.639-2.25 5.696-1.751.789.188 1.478.48 1.924.872 1.124 1.007 2.392 2.019 3.173 3.23 2.797 4.402 3.231 9.642 2.176 15.425-.956 4.978-3.245 10.181-7.932 15.79-.953 1.153-2.172 2.352-3.569 3.813zm64.76-40.566c.244-.1.611-.25.877-.294.812.242 1.845.33 2.535.622 1.279.69 2.702 1.383 3.759 2.226 5.075 4.047 7.752 9.2 9.352 14.856 1.522 5.114 2.067 10.627.835 16.673-.087.482-.297 1.014-.507 1.546-.912-.138-1.579-.376-1.879-.763-2.783-2.624-5.91-5.045-8.327-7.819-4.587-4.946-7.732-10.546-8.534-17.037-.316-2.165.101-4.629.54-7.039-.068-.864.763-1.967 1.349-2.971z"/></symbol><symbol viewBox="0 0 42 42" id="work-1" xmlns="http://www.w3.org/2000/svg"><g clip-path="url(#clip0_248_1505)"><path d="M10.272 31.294l-1.118 2.734A.703.703 0 009.8 35c.045 0 .09-.004.131-.012l29.4-5.6a.698.698 0 00.307-1.233l-3.502-2.802a.696.696 0 00-.573-.14l-11.849 2.37" stroke-miterlimit="10"/><path d="M9.121 34.47l.7 2.8a.7.7 0 00.81.517l29.401-5.6a.7.7 0 00.547-.857l-.7-2.8" stroke-miterlimit="10"/><path d="M1.63 35.296C3.873 37.203 8.117 41.3 14.7 41.3c1.867 0 5.6-.383 5.6-2.1 0-1.466-1.185-2.27-2.1-2.854M14.755 37.002l1.748 1.962" stroke-miterlimit="10"/><path d="M20.046 39.974c2.008-.29 3.754-1.01 3.754-2.174 0-1.433-1.758-2.186-1.758-2.186M15.281 28.902l-2.153 5.477M29.963 16.836l.42 1.31M29.503 15.4l-.442-1.378.798-1.584a1.75 1.75 0 10-3.242-.645" stroke-miterlimit="10"/><path d="M35.7 13.3a7 7 0 10-7 7l3.5 2.1.7-3.51a6.98 6.98 0 002.8-5.59zM27.088 3.932a7 7 0 00-11.72 1.48M34.853 36.024l-8.842 1.685M40.468 34.955l-3.89.74M2.263 26.839C6.244 25.045 10.5 23.8 12.6 23.8c2.1 0 5.478.017 7 .7 1.56.7 4.2 2.217 4.2 3.5 0 .988-.984 1.4-2.1 1.4-3.39 0-3.062-1.4-5.6-1.4-2.797 3.61-7.772 3.525-8.345 3.503" stroke-miterlimit="10"/><path d="M21 7.7H9.8a1.4 1.4 0 00-1.4 1.4v7a1.4 1.4 0 001.4 1.4h3.5l4.2 2.8v-2.8h2.8" stroke-miterlimit="10"/><path d="M16.1 11.9h-1.4v1.4h1.4v-1.4zM13.3 11.9h-1.4v1.4h1.4v-1.4zM18.9 11.9h-1.4v1.4h1.4v-1.4z"/></g><defs><clipPath><path d="M0 0h42v42H0z"/></clipPath></defs></symbol><symbol viewBox="0 0 40 42" id="work-2" xmlns="http://www.w3.org/2000/svg"><path d="M16.5 10.5v3.85c0 2.9 2.35 5.25 5.25 5.25S27 17.25 27 14.35V8.466A4.266 4.266 0 0022.736 4.2H22.1c-3.5 0-4.9-2.8-4.9-2.8s-2.1 1.4-2.1 3.5 1.4 4.2 4.9 4.2M16.5 11.2V8.026" stroke-miterlimit="10"/><path d="M34 42V31.593a7.187 7.187 0 00-3.779-6.328l-5.32-2.865-1.065-3.23M29.1 33.6V42" stroke-miterlimit="10"/><path d="M24.9 22.4l-3.15 2.1L24.2 28l4.2-3.715" stroke-miterlimit="10"/><path d="M19.665 19.17l-1.064 3.23 3.15 2.1L19.3 28l-4.2-3.715" stroke-miterlimit="10"/><path d="M18.6 22.4l-3.5 1.885-7.02-1.493 4.575-6.938a2.1 2.1 0 00-3.436-2.414l-6.93 9.242a2.44 2.44 0 00-.488 1.468c0 .893.294 1.687 1.342 2.17l8.218 3.782a5.222 5.222 0 013.04 4.744V42" stroke-miterlimit="10"/><path d="M10.928 12.6l-.617-1.233a1.052 1.052 0 01.459-1.405l1.476-.75a1.03 1.03 0 011.39.464l3.103 6.244M17.472 17.394l.318.64c.257.515.05 1.145-.46 1.404l-1.476.75a1.03 1.03 0 01-1.389-.464l-1.874-3.77M34.7 12.6v3.5M34.7 18.9v3.5M39.6 17.5h-3.5M33.3 17.5h-3.5M4.6 2.1v2.8M4.6 7.7v2.8M8.8 6.3H6M3.2 6.3H.4" stroke-miterlimit="10"/></symbol><symbol viewBox="0 0 37 41" id="work-3" xmlns="http://www.w3.org/2000/svg"><path d="M27.8 39.6a8.4 8.4 0 100-16.8 8.4 8.4 0 000 16.8z" stroke-miterlimit="10"/><path d="M25 33.3c0 1.16 1.254 2.1 2.8 2.1 1.546 0 2.8-.94 2.8-2.1 0-1.16-1.254-2.1-2.8-2.1-1.546 0-2.8-.94-2.8-2.1 0-1.16 1.254-2.1 2.8-2.1 1.546 0 2.8.94 2.8 2.1M27.8 27v-2.1M27.8 37.5v-2.1M19.4 37.5H5.326a2.1 2.1 0 01-2.054-1.663L.528 22.931a1.267 1.267 0 011.239-1.53H11M12.4 21.4h3.408a1.4 1.4 0 001.2-.68l1.286-2.14a1.4 1.4 0 011.2-.68h14.737a1.27 1.27 0 011.243 1.528l-.699 3.372M29.9 15.8V1.1H11.7L5.4 7.4v11.9" stroke-miterlimit="10"/><path d="M11.7 1.1v6.3H5.405M14.5 7.4h5.6M21.5 7.4h2.8M8.2 14.4h6.3M8.2 10.9h18.9M15.9 14.4h1.4" stroke-miterlimit="10"/></symbol><symbol viewBox="0 0 42 42" id="work-4" xmlns="http://www.w3.org/2000/svg"><path d="M9.8 12.6a3.5 3.5 0 100-7 3.5 3.5 0 000 7zM15.747 18.707A6.994 6.994 0 009.8 15.4a6.995 6.995 0 00-5.946 3.306M31.5 32.9a3.5 3.5 0 100-7 3.5 3.5 0 000 7zM37.447 39.006A6.995 6.995 0 0031.5 35.7a6.995 6.995 0 00-5.946 3.306M35 14v1.4a1.4 1.4 0 01-1.4 1.4h-8.137L20.3 19.6v-2.8h-2.8" stroke-miterlimit="10"/><path d="M3.5 14.7V4.2a1.4 1.4 0 011.4-1.4h28.7A1.4 1.4 0 0135 4.2v8.4M6.3 34.3v1.4a1.4 1.4 0 001.4 1.4h8.137L21 39.71V37.1h2.8M37.8 35V24.5a1.4 1.4 0 00-1.4-1.4H7.7a1.4 1.4 0 00-1.4 1.4v8.4" stroke-miterlimit="10"/><path d="M18.9 29.4h-1.4v1.4h1.4v-1.4zM22.4 29.4H21v1.4h1.4v-1.4zM15.4 29.4H14v1.4h1.4v-1.4z"/><path d="M18.9 7.7h7M18.9 11.9h12.6M37.8 2.1v7M37.8 10.5v2.1" stroke-miterlimit="10"/></symbol><symbol viewBox="0 0 42 38" id="work-5" xmlns="http://www.w3.org/2000/svg"><path d="M.3 36.67c.015-.021.026-.028.03-.03h1.965c.004.002.015.009.03.03.026.037.05.1.05.18 0 .08-.024.144-.05.18-.015.022-.026.028-.03.03H.33c-.004-.002-.015-.008-.03-.03a.315.315 0 01-.05-.18c0-.08.024-.143.05-.18zm1.993-.03h.001-.001zm0 .42h.001-.001zm-1.96 0H.33h.001zm-.002-.42h.001-.001zM3.58 36.67c.016-.021.028-.028.032-.03H41.67c.004.002.015.009.03.03.026.037.05.1.05.18 0 .08-.024.144-.05.18-.015.022-.026.028-.03.03H3.612c-.004-.002-.016-.008-.031-.03a.315.315 0 01-.05-.18c0-.08.024-.143.05-.18zm38.088-.03h.001-.001zm0 .42h.001-.001zm-38.055 0h-.001.001zm-.001-.42h.001-.001z" stroke-width=".5"/><mask><path d="M38.723 34.094h1.636l.952-2.855a1.312 1.312 0 00-.66-1.59l-.299-.149-.438-2.088a3.28 3.28 0 00-2.649-2.559l-5.355-.93-7.629-6.163a3.283 3.283 0 00-2.062-.729H8.981a3.283 3.283 0 00-2.663 1.364L3.281 22.61H1.16a.656.656 0 00-.562.993l1.372 2.288v3.61c-.845 0-1.474.778-1.297 1.604l.64 2.989h1.641"/></mask><path d="M38.723 33.594a.5.5 0 000 1v-1zm1.636.5v.5h.36l.115-.342-.475-.158zm.952-2.855l.474.158-.474-.158zm-.66-1.59l-.224.447.223-.447zm-.299-.149l-.49.103.05.237.217.108.223-.448zm-.438-2.088l-.489.103.49-.103zm-2.649-2.559l-.086.493.086-.493zm-5.355-.93l-.314.388.1.081.128.023.086-.493zm-7.629-6.163l.314-.389-.314.389zm-17.963.634l-.405-.292.405.293zM3.281 22.61v.5h.256l.15-.208-.406-.292zm-2.684.993l.428-.257-.428.257zm1.372 2.288h.5v-.139l-.071-.118-.43.257zm0 3.61v.5h.5v-.5h-.5zM.672 31.104L1.161 31l-.489.105zm.64 2.989l-.488.105.084.395h.404v-.5zm1.641.5a.5.5 0 000-1v1zm35.77 0h1.636v-1h-1.636v1zm2.11-.342l.952-2.855-.948-.316-.952 2.855.949.316zm.952-2.855a1.812 1.812 0 00-.912-2.196l-.445.895c.362.18.537.6.409.985l.948.316zm-.912-2.196l-.298-.148-.446.895.298.148.446-.895zm-.031.197l-.438-2.088-.979.205.438 2.088.979-.205zm-.438-2.088a3.78 3.78 0 00-3.053-2.95l-.171.986a2.78 2.78 0 012.245 2.169l.979-.206zm-3.053-2.95l-5.355-.93-.171.985 5.354.93.172-.984zm-5.127-.827l-7.629-6.162-.628.778 7.629 6.162.628-.778zm-7.629-6.162a3.783 3.783 0 00-2.376-.84v1c.637 0 1.253.219 1.748.618l.628-.778zm-2.376-.84H8.981v1h13.238v-1zm-13.238 0a3.783 3.783 0 00-3.068 1.571l.811.585a2.783 2.783 0 012.257-1.155v-1zm-3.068 1.571l-3.037 4.215.81.585 3.038-4.215-.811-.585zM3.28 22.11H1.16v1H3.28v-1zm-2.122 0c-.899 0-1.454.98-.991 1.75l.857-.514a.156.156 0 01.134-.236v-1zm-.991 1.75l1.372 2.288.858-.514-1.373-2.288-.857.514zm1.3 2.03v3.61h1v-3.61h-1zm.5 3.11a1.826 1.826 0 00-1.785 2.21l.978-.21a.826.826 0 01.808-1v-1zM.184 31.21l.64 2.989.978-.21L1.161 31l-.978.21zm1.13 3.384h1.64v-1h-1.64v1z" mask="url(#a)"/><path d="M40.685 29.578h0l-.156-.077a.25.25 0 01-.133-.173l-.405-1.931h0a3.343 3.343 0 00-2.712-2.62s0 0 0 0l-5.271-.917a.25.25 0 01-.115-.052L24.332 17.7s0 0 0 0a3.37 3.37 0 00-2.111-.746H8.98a3.369 3.369 0 00-2.726 1.395s0 0 0 0l-2.939 4.08a.25.25 0 01-.203.104H1.16a.725.725 0 00-.64.372l40.165 6.674zm0 0c.616.307.918 1.032.7 1.685l-.95 2.855s0 0 0 0a.08.08 0 01-.076.054h-1.968a.078.078 0 010-.156h1.732a.25.25 0 00.237-.171l.877-2.631a1.238 1.238 0 00-.621-1.495s0 0 0 0l-.298-.149h0a.077.077 0 01-.042-.053h0l-.438-2.088a3.188 3.188 0 00-2.587-2.498h0l-5.353-.93s0 0 0 0a.086.086 0 01-.038-.018l-7.628-6.162 16.453 11.757zM.529 23.644h0l1.326 2.21a.25.25 0 01.036.128v3.223a.25.25 0 01-.201.245 1.397 1.397 0 00-.813.494h0c-.268.332-.37.76-.28 1.177h0l.64 2.99h0c.007.035.039.061.076.061H3.28a.078.078 0 000-.156H1.578a.25.25 0 01-.245-.198l-.585-2.73h0l.244-.053-.463-7.391zm0 0a.723.723 0 01-.009-.74l.01.74z" stroke-width=".5" stroke-linejoin="round"/><path d="M14.737 33.718c.016-.022.027-.029.03-.03H27.56c.004.001.015.008.031.03.026.036.05.098.05.18 0 .08-.024.142-.05.179-.016.021-.027.028-.03.03H14.767c-.004-.002-.015-.009-.03-.03a.315.315 0 01-.05-.18c0-.08.023-.143.05-.18zm12.821-.03h.002-.002zm0 .419h.002-.002zm-12.788 0h-.002.002zm-.002-.42h.002-.002z" stroke-width=".5"/><path d="M36.828 32.453a4.016 4.016 0 11-8.031 0 4.016 4.016 0 018.031 0z" stroke-width=".5"/><path d="M28.469 32.453a4.35 4.35 0 014.343-4.343 4.35 4.35 0 014.344 4.343 4.35 4.35 0 01-4.343 4.344 4.35 4.35 0 01-4.344-4.344zm.156 0a4.191 4.191 0 004.188 4.188A4.191 4.191 0 0037 32.453a4.191 4.191 0 00-4.188-4.187 4.191 4.191 0 00-4.187 4.187z" stroke-width=".5"/><path d="M12.875 32.453a4.016 4.016 0 11-8.031 0 4.016 4.016 0 018.031 0z" stroke-width=".5"/><path d="M4.516 32.453a4.349 4.349 0 014.343-4.343 4.349 4.349 0 014.344 4.343 4.349 4.349 0 01-4.344 4.344 4.349 4.349 0 01-4.343-4.344zm.156 0a4.191 4.191 0 004.187 4.188 4.191 4.191 0 004.188-4.188 4.191 4.191 0 00-4.188-4.187 4.191 4.191 0 00-4.187 4.187z" stroke-width=".5"/><path d="M31.203 23.672H10.898a1.39 1.39 0 01-1.302-1.879h0l.738-1.969a1.39 1.39 0 011.302-.902h13.685l5.881 4.75z" stroke-width=".5"/><path d="M10.173 19.764h0a1.569 1.569 0 011.464-1.014h13.746l.069.056 5.687 4.593.55.445H10.898c-.519 0-.989-.246-1.284-.673a1.545 1.545 0 01-.179-1.438m.738-1.969l-.738 1.969m.738-1.969l-.738 1.969m.738-1.969l-.738 1.969M31.96 23.86h0a.08.08 0 01.025.087.08.08 0 01-.074.052H10.898a1.722 1.722 0 01-1.413-.739 1.722 1.722 0 01-.196-1.583s0 0 0 0l.738-1.969h0a1.727 1.727 0 011.61-1.115H25.41c.017 0 .035.006.048.017h0l6.5 5.25z" stroke-width=".5"/><path d="M31.385 24.907c-.253 0-.46.146-.46.328v1.936c0 .18.207.328.46.328.254 0 .46-.147.46-.328v-1.936c0-.181-.206-.328-.46-.328zM18.178 24.907c-.254 0-.46.146-.46.328v7.547c0 .18.206.328.46.328s.46-.147.46-.328v-7.547c0-.181-.206-.328-.46-.328zM18.178 18.344c-.254 0-.46.147-.46.328v5.25c0 .181.206.328.46.328s.46-.147.46-.328v-5.25c0-.181-.206-.328-.46-.328zM5.988 23.922H4.676a.986.986 0 00-.985.985v1.312c0 .543.442.984.985.984h1.312a.986.986 0 00.985-.984v-1.313a.986.986 0 00-.985-.984zm.22 2.297c0 .181-.039.268-.22.268H4.676c-.181 0-.252-.087-.252-.268v-1.313c0-.18.07-.253.252-.253h1.312c.181 0 .22.072.22.254v1.312z"/><path d="M39.67 27.464l.375 1.786h-1.357l-.768-1.537h0a.406.406 0 01.363-.588h1.292c.039.111.071.224.095.338 0 0 0 0 0 0z" stroke-width=".5"/><path d="M37.626 27.86h0a.728.728 0 01.033-.714.728.728 0 01.624-.348h1.466c.032 0 .06.02.073.05l.232-.093-.232.092c.078.197.132.376.17.55 0 0 0 0 0 0l.438 2.088h0a.075.075 0 01-.015.064l-.001.001a.079.079 0 01-.06.03h-1.82a.079.079 0 01-.07-.044s0 0 0 0l-.838-1.675zm.885 1.424l.07.138h1.674l-.063-.301-.355-1.692s0 0 0 0c-.02-.1-.048-.2-.082-.304l-.056-.172H38.28a.577.577 0 00-.517.836h0v.001l.747 1.494zM40.182 15.357h0a.15.15 0 01.212.212s0 0 0 0l-8.387 8.387s0 0 0 0a.152.152 0 01-.213 0 .15.15 0 010-.212l8.388-8.387z" stroke-width=".5"/><path d="M24.969 1.531h12.468c.769 0 1.391.623 1.391 1.391v8.531a1.39 1.39 0 01-1.39 1.391h-12.47a1.39 1.39 0 01-1.39-1.39V2.921c0-.768.623-1.39 1.39-1.39z" stroke-width=".5"/><path d="M24.969 1.203h12.468c.948 0 1.72.772 1.72 1.72v8.53c0 .948-.772 1.72-1.72 1.72H24.97a1.721 1.721 0 01-1.719-1.72v-8.53c0-.948.771-1.72 1.719-1.72zm12.468 11.813c.862 0 1.563-.7 1.563-1.563v-8.53c0-.863-.7-1.563-1.563-1.563H24.97c-.862 0-1.563.7-1.563 1.562v8.531c0 .862.7 1.563 1.563 1.563h12.468zM15.04 10.013l.06.166h3.133a.155.155 0 010 .31H14.99a.155.155 0 01-.146-.103h0l-1.614-4.52-.255-.712-.22.723-2.48 8.15s0 0 0 0a.155.155 0 01-.138.11h0-.001 0-.001 0-.001 0-.001 0-.001 0-.001 0-.001 0-.001 0-.001 0-.001 0a.156.156 0 01-.144-.098l-.233.093.233-.093-2.146-5.364-.177-.441-.263.395-1.194 1.79v.001a.154.154 0 01-.13.07H2.832a.155.155 0 010-.311H5.991l.074-.112 1.5-2.252h0a.15.15 0 01.144-.068h.001a.158.158 0 01.13.097s0 0 0 0l2.003 5.009.265.66.207-.68 2.5-8.219s0 0 0 0a.156.156 0 01.139-.11c.083.006.138.052.156.103h0l1.93 5.406z" stroke-width=".5"/><path d="M35.203 4.348h0a.734.734 0 01.001 1.038l-4.64 4.64a.731.731 0 01-1.039 0h0l-2.32-2.32h0a.734.734 0 111.038-1.038l1.624 1.625.177.176.177-.176 3.944-3.944a.734.734 0 011.038 0z" stroke-width=".5"/><path d="M35.435 4.116h0c.201.201.311.467.311.751 0 .285-.11.55-.31.751h-.001l-4.64 4.64a1.054 1.054 0 01-.75.312c-.285 0-.55-.11-.752-.311l-2.32-2.32v-.001c-.202-.2-.312-.466-.312-.75 0-.285.11-.55.311-.752.399-.399 1.104-.399 1.503 0l1.392 1.393.177.176.177-.177 3.712-3.712s0 0 0 0a1.064 1.064 0 011.502 0zm-.11 1.392h0a.906.906 0 000-1.282h0a.907.907 0 00-1.282 0h0L30.1 8.17s0 0 0 0c-.03.03-.08.03-.11 0h0l-1.625-1.625h0a.907.907 0 00-1.282 1.281h0l2.321 2.321h0a.921.921 0 001.282 0h0l4.64-4.64z" stroke-width=".5"/></symbol><symbol viewBox="0 0 34 40" id="work-6" xmlns="http://www.w3.org/2000/svg"><path d="M22.6 21.1v2.1M20.5 27.4a1.4 1.4 0 001.4 1.4h1.4a1.4 1.4 0 000-2.8h-1.4a1.4 1.4 0 010-2.8h1.4a1.4 1.4 0 011.4 1.4M22.6 30.9v-2.1M30.3 33.7v5.6H15.6M15.524 12.7h14.777v16.8M30.3 30.9v1.4" stroke-miterlimit="10"/><path d="M17.7 28.1V33a2.8 2.8 0 012.8 2.8h4.2a2.8 2.8 0 012.8-2.8V19a2.8 2.8 0 01-2.8-2.8h-4.2a2.8 2.8 0 01-2.8 2.8v4.9M17.7 25.3v1.4M33.1 20.4v1.4M33.1 23.2v7.7M.9 21.1V26M.9 27.4v1.4M2.3.1v5.6M2.3 7.1v1.4" stroke-miterlimit="10"/></symbol></svg>